<?xml version="1.0" encoding="utf-8"?>
<!-- Generator: Adobe Illustrator 24.2.3, SVG Export Plug-In . SVG Version: 6.00 Build 0)  -->
<svg version="1.1" id="Layer_1" xmlns="http://www.w3.org/2000/svg" xmlns:xlink="http://www.w3.org/1999/xlink" x="0px" y="0px"
	 viewBox="0 0 1440 1106.7" style="enable-background:new 0 0 1440 1106.7;" xml:space="preserve">
<style type="text/css">
	.st0{fill:#FEA3D2;}
	.st1{fill:#FECA1E;}
	.st2{fill:#DBB319;}
	.st3{fill:#231F20;}
	.st4{fill:#FD8BD3;}
</style>
<g>
	<path class="st0" d="M781.4,175.7c52.3,10.6,100.9,30.4,146.2,58.4c31.6,19.5,60.1,42.8,85,70.2c33.1,36.4,59,77.4,75.8,123.9
		c2.8,7.6,5.3,15.3,7.6,23c1.2,4,2.8,5.3,7.6,4.5c17.9-2.7,34.8-8.3,51.4-15.3c4.9-2.1,5.3-3.2,1.2-6.8c-13.5-12.1-24.6-26-30-43.8
		c-9-29.9,3.6-61.4,30.9-73.4c32.3-14.1,76.9-3.2,86.9,36.8c6.6,26.2-0.8,48.8-18.2,68.6c-4,4.5-8.5,8.7-13,12.7
		c-2.8,2.4-2.9,3.9,0.5,5.3c20.1,8.5,40.5,15.8,62.5,16.7c5.8,0.2,7.2,2.2,7.2,7.6c0,19.9,0.2,20-19.7,16.4
		c-24.8-4.4-48.6-11.8-70.8-23.7c-5.6-3-9.9-2.8-15.4,0.1c-21.1,11.1-43.5,18.7-67.2,22.5c-4.5,0.7-6.3,2-5.2,7.5
		c6.6,31.6,8,63.6,6.3,95.6c-1.7,31-7.1,61.5-14.9,91.6c-13,50.3-31.9,98.4-55,144.9c-20.9,42.1-44.8,82.5-71.7,121.1
		c-3.3,4.7-7.3,6.7-13.4,6.7c-51.4-0.2-102.7-0.3-154.1,0c-7.1,0-9.9-1.8-9.6-9.3c0.5-12.4,0-24.8,0.2-37.2c0.1-4.6-1-7.2-6.3-6.7
		c-35.2,3.4-70.6,2.7-105.9,4.2c-22.2,1-44.5,0.7-66.8-0.2c-5.8-0.2-7,1.6-7.9,5.9c-2.5,12.3-5.4,24.6-7.4,37
		c-0.8,4.9-2.9,6.2-7.4,6.2c-52.9-0.1-105.8-0.1-158.6,0c-5.9,0-7.3-2.4-7.3-7.8c0.2-23.8-0.1-47.5,0.2-71.3
		c0.1-5.9-1.8-8.8-7.4-11.3c-44.8-20-84.5-47.4-117.5-83.9c-17.3-19.2-32-40.3-43.4-63.6c-2.5-5.2-6-8.2-11.5-9.9
		c-19.3-6.1-38.3-12.9-57.6-19c-5-1.6-7.5-4.1-8.3-9.2c-5.1-30.8-10.3-61.6-15.4-92.4c-2.3-13.6-4.1-27.4-6.9-40.9
		c-1.1-5.4,0.2-7.7,5.3-9.3c19.5-6.2,38.7-13.1,58.2-19.1c6-1.8,6.1-6.3,6.7-10.5c2.9-19.8,8.1-39,14.5-57.9
		c15.1-44.8,38.5-84.9,69.1-120.9c3.5-4.1,4-7.3,1.2-12c-23.3-38.7-41.4-79.7-53-123.5c-3-11.3-3.1-11.8,8-14.3
		c66.2-14.8,126.7-3.2,180.2,39.7c2.2,1.8,3.9,2.6,6.7,1.2c34.8-16.5,71.3-28.2,108.9-36.5c5.3,12.8,13.3,23.8,21.3,34.9
		c-13.2,3.2-26.5,5.9-39.5,9.5c-21.2,5.9-17.7,2.1-11.3,23.2c1.5,4.8,4.8,6.1,9.4,4.7c6.5-1.9,13-4.1,19.6-5.6
		c15.9-3.6,31.8-6.8,47.7-10.2c8.8-1.1,17.6-2.2,26.5-3.4c23.9-1.1,47.8-1.1,71.8,0l0,0c1.2,0.1,2.5,0.1,3.7,0.2
		c6.4,2.4,13.2,1.7,19.8,3c0.9,0.4,1.8,1,2.7,1.2c19,2.2,37.6,6.5,56,11.4c19.3,5.1,19,5.4,24.8-13.4c1.6-5.1-0.3-7-4.5-8.2
		c-16.7-4.7-33.4-9.2-50.4-12.5C768.3,198.6,775.8,187.7,781.4,175.7z M1185.1,335.3c-24.4-0.1-40.3,15.1-35.9,43.2
		c3.2,20.1,17.4,32.3,32.6,43.6c3.4,2.5,6.2,0.3,8.9-1.7c8.6-6.3,16.4-13.6,22.4-22.4c9.5-14.2,12-29.4,4.7-45.2
		C1211.4,339,1199,335.6,1185.1,335.3z M339.9,457.4c0.1,20.7,16.7,37.1,37.3,36.9c20.2-0.2,36.7-16.8,36.7-36.8
		c0-20.3-17.1-37.2-37.5-37C356.3,420.7,339.8,437.3,339.9,457.4z"/>
	<path class="st1" d="M584.4,209.4c-8-11.1-16.1-22.2-21.3-34.9c-10.6-28.6-12-57.4-0.6-85.9c17.4-43.3,49.7-69.2,95.9-74.8
		c45-5.5,82.2,11,109.1,47.5c24.2,32.8,28.5,69.3,16,108c-0.7,2.2-1.3,4.3-2,6.5c-5.6,12-13.1,22.8-20.8,33.5
		c-8.9,8-17.1,17.1-28.7,21.6c-6.5-1.3-13.4-0.7-19.8-3c0.9-1.8,2.6-2.3,4.2-3c41.7-19.4,67.8-65.4,59.2-112.5
		C765.1,54.6,711.3,17,653.4,27.4c-46.3,8.3-81.4,47-85.3,93.8c-2.8,33.9,8.6,63.1,33.8,86.2c10,9.1,21,17.4,34.8,20.3
		c-8.8,1.1-17.6,2.2-26.4,3.4C601.1,224.4,592.4,217.3,584.4,209.4z"/>
	<path class="st2" d="M636.7,227.7c-13.8-2.9-24.9-11.1-34.8-20.3c-25.2-23.1-36.6-52.3-33.8-86.2c3.8-46.8,39-85.5,85.3-93.8
		c57.9-10.4,111.8,27.2,122.3,84.9c8.6,47.1-17.6,93.2-59.2,112.5c-1.6,0.7-3.4,1.2-4.2,3c-1.2,0-2.5-0.1-3.7-0.1c0,0,0,0,0,0
		C684.6,226.6,660.7,226.6,636.7,227.7z M581.6,129.3c-2.3,50.2,39.9,92.1,90.8,92.2c49.3,0.2,90.8-41.1,91.5-89.3
		c0.8-52.3-42.4-92.5-90.3-93.2C623.6,38.3,579.6,81.1,581.6,129.3z"/>
	<path class="st3" d="M339.9,457.4c-0.1-20.1,16.4-36.7,36.6-36.9c20.4-0.2,37.5,16.7,37.5,37c0,20.1-16.6,36.6-36.7,36.8
		C356.6,494.5,340,478.1,339.9,457.4z"/>
	<g>
		<path class="st4" d="M732,230.9c11.6-4.5,19.7-13.6,28.7-21.6c17,3.3,33.7,7.8,50.4,12.5c4.2,1.2,6.1,3.2,4.5,8.2
			c-5.8,18.8-5.6,18.6-24.8,13.4c-18.4-4.9-37-9.2-56-11.4C733.7,232,732.9,231.3,732,230.9z"/>
		<path class="st4" d="M584.4,209.4c8,8,16.8,15.1,25.9,21.7c-15.9,3.4-31.8,6.6-47.7,10.2c-6.6,1.5-13.1,3.6-19.6,5.6
			c-4.7,1.4-8,0.1-9.4-4.7c-6.4-21.1-10-17.3,11.3-23.2C557.9,215.3,571.2,212.5,584.4,209.4z"/>
	</g>
	<path class="st1" d="M708.5,227.7C708.5,227.7,708.5,227.7,708.5,227.7C708.5,227.7,708.5,227.7,708.5,227.7z"/>
	<path class="st1" d="M581.6,129.3c-1.9-48.2,42-91,92-90.3c47.9,0.7,91.2,40.9,90.3,93.2c-0.8,48.2-42.2,89.5-91.5,89.3
		C621.5,221.4,579.3,179.5,581.6,129.3z"/>
	<g>
		<path class="st0" d="M95.4,1040.1c7.9-3.5,16-10.2,16-23.3v-0.3c0-6.5-2.3-11.8-6.5-16.1c-5.8-5.6-14.8-8.9-26.3-8.9H35.6v100.7
			h44.8c22,0,36.6-10.2,36.6-27.5v-0.3C116.9,1050.6,107.3,1043.7,95.4,1040.1z M46.9,1001.7h30.7c14.4,0,22.3,6.5,22.3,16.4v0.3
			c0,11.8-9.5,18-23.2,18H46.9V1001.7z M105.4,1064c0,11.2-9.5,18-24.7,18H46.9v-35.5h31.8c17.6,0,26.8,6.3,26.8,17.3V1064z"/>
		<path class="st0" d="M210.5,1050c0,22-11.8,33.2-30.4,33.2c-19.1,0-30.8-12.2-30.8-34v-57.8H138v58.6c0,28.5,17,43.7,41.9,43.7
			c25.2,0,42-15.3,42-44.6v-57.7h-11.4V1050z"/>
		<path class="st0" d="M283.8,991.5h-35v100.7h35c31.7,0,53.5-22,53.5-50.4v-0.3C337.3,1013.2,315.4,991.5,283.8,991.5z
			 M325.5,1042.1c0,22.3-16.3,39.6-41.7,39.6h-23.6V1002h23.6c25.5,0,41.7,17.5,41.7,39.9V1042.1z"/>
		<path class="st0" d="M407,1048.6h30.6v25c-6.9,5.6-17.6,10.1-29.1,10.1c-24.5,0-39.9-17.8-39.9-41.9v-0.3
			c0-22.4,16-41.3,38.3-41.3c14.2,0,22.9,4.7,30.6,11.5l7.3-8.6c-10.1-8.5-20.6-13.4-37.6-13.4c-30.2,0-50.5,24.5-50.5,52.1v0.3
			c0,28.8,19.6,51.8,51.2,51.8c17,0,31.1-7.1,40.4-15.4v-40.1H407V1048.6z"/>
		<polygon class="st0" points="485.6,1046.6 540.6,1046.6 540.6,1036.2 485.6,1036.2 485.6,1001.8 547,1001.8 547,991.5 
			474.2,991.5 474.2,1092.2 547.8,1092.2 547.8,1081.8 485.6,1081.8 		"/>
		<polygon class="st0" points="563.5,1002 597.3,1002 597.3,1092.2 608.8,1092.2 608.8,1002 642.6,1002 642.6,991.5 563.5,991.5 		
			"/>
		<polygon class="st4" points="697.8,1011.9 728.4,1011.9 728.4,1092.2 750.6,1092.2 750.6,1011.9 781.2,1011.9 781.2,991.5 
			697.8,991.5 		"/>
		<path class="st4" d="M882.3,1025v-0.3c0-9.5-3-17.4-8.6-23c-6.6-6.6-16.5-10.2-29.3-10.2h-46v100.7h22.2V1060h17.4l21.6,32.2h25.9
			l-24.6-36C873.5,1051.5,882.3,1041.3,882.3,1025z M859.8,1026.2c0,8.5-6.2,14.2-17,14.2h-22.4v-28.9h22c10.8,0,17.4,4.9,17.4,14.4
			V1026.2z"/>
		<path class="st4" d="M936.9,990.8l-43.2,101.5h22.6l9.2-22.6h42.6l9.2,22.6h23.2l-43.2-101.5H936.9z M933.4,1050l13.4-32.7
			l13.4,32.7H933.4z"/>
		<path class="st4" d="M1057.5,1073.5c-17.3,0-29.2-14.4-29.2-31.7v-0.3c0-17.3,12.2-31.4,29.2-31.4c10.1,0,18,4.3,25.8,11.4
			l14.1-16.3c-9.4-9.2-20.7-15.5-39.7-15.5c-30.9,0-52.5,23.5-52.5,52.1v0.3c0,28.9,22,51.8,51.7,51.8c19.4,0,30.9-6.9,41.3-18
			l-14.1-14.2C1076,1068.9,1069,1073.5,1057.5,1073.5z"/>
		<path class="st4" d="M1379.7,1056.2c12.8-4.7,21.6-15,21.6-31.2v-0.3c0-9.5-3-17.4-8.6-23c-6.6-6.6-16.5-10.2-29.3-10.2h-46v100.7
			h22.2V1060h17.4l21.6,32.2h25.9L1379.7,1056.2z M1378.9,1026.2c0,8.5-6.2,14.2-17,14.2h-22.4v-28.9h22c10.8,0,17.4,4.9,17.4,14.4
			V1026.2z"/>
		<polygon class="st4" points="1242.9,1051.3 1290.4,1051.3 1290.4,1031.6 1242.9,1031.6 1242.9,1011.2 1296.8,1011.2 1296.8,991.5 
			1254.7,991.5 1220.9,1036.1 1220.9,1092.2 1297.6,1092.2 1297.6,1072.5 1242.9,1072.5 		"/>
		<polygon class="st4" points="1225.9,1021.7 1232.2,1013.6 1232.2,1013.5 1260.5,976.7 1268.3,981.6 1271,943.6 1235.7,961.1 
			1243,966.1 1216.1,1001.1 1214,999.5 1204.7,992.4 1203.5,991.5 1203.3,991.5 1187.2,978.9 1173.3,993.9 1137.9,1031.9 
			1137.9,991.5 1115.8,991.5 1115.8,1092.2 1137.9,1092.2 1137.9,1061.4 1149.6,1049.3 1180.8,1092.2 1207.4,1092.2 1164.6,1034.2 
			1190.4,1007.3 1190.5,1007.2 1192.7,1008.8 1219.8,1029.7 1220.8,1028.4 1220.9,1028.4 		"/>
	</g>
</g>
</svg>
