<?xml version="1.0" encoding="utf-8"?>
<!-- Generator: Adobe Illustrator 24.2.3, SVG Export Plug-In . SVG Version: 6.00 Build 0)  -->
<svg version="1.1" id="Layer_1" xmlns="http://www.w3.org/2000/svg" xmlns:xlink="http://www.w3.org/1999/xlink" x="0px" y="0px"
	 viewBox="0 0 1440 156.1" style="enable-background:new 0 0 1440 156.1;" xml:space="preserve">
<style type="text/css">
	.st0{fill:#FEA3D2;}
	.st1{fill:#FD8BD3;}
</style>
<g>
	<path class="st0" d="M73.8,100.1C82,96.5,90.3,89.5,90.3,76v-0.3c0-6.7-2.4-12.2-6.7-16.7c-6-5.8-15.3-9.2-27.2-9.2H12V154h46.3
		c22.8,0,37.8-10.6,37.8-28.4v-0.3C96.1,111,86.1,103.9,73.8,100.1z M23.6,60.4h31.7c14.9,0,23.1,6.7,23.1,17v0.3
		c0,12.2-9.8,18.6-24,18.6H23.6V60.4z M84.2,124.8c0,11.6-9.8,18.6-25.6,18.6h-35v-36.8h32.9c18.2,0,27.7,6.5,27.7,17.9V124.8z"/>
	<path class="st0" d="M192.9,110.4c0,22.8-12.2,34.4-31.4,34.4c-19.8,0-31.9-12.7-31.9-35.1V49.8h-11.8v60.6
		c0,29.5,17.6,45.3,43.3,45.3c26.1,0,43.5-15.8,43.5-46.2V49.8h-11.8L192.9,110.4L192.9,110.4z"/>
	<path class="st0" d="M268.7,49.8h-36.2V154h36.2c32.8,0,55.4-22.8,55.4-52.1v-0.3C324.1,72.3,301.5,49.8,268.7,49.8z M311.9,102.2
		c0,23.1-16.8,40.9-43.2,40.9h-24.4V60.7h24.4c26.4,0,43.2,18.2,43.2,41.2V102.2z"/>
	<path class="st0" d="M396.2,108.9h31.7v25.9c-7.1,5.8-18.2,10.4-30.1,10.4c-25.3,0-41.2-18.5-41.2-43.3v-0.3
		c0-23.2,16.5-42.7,39.6-42.7c14.7,0,23.7,4.9,31.7,11.9l7.6-8.9C425.1,53.1,414.2,48,396.6,48c-31.3,0-52.3,25.3-52.3,53.9v0.3
		c0,29.8,20.2,53.6,53,53.6c17.6,0,32.2-7.3,41.8-15.9V98.3h-43v10.6H396.2z"/>
	<polygon class="st0" points="477.5,106.8 534.4,106.8 534.4,96.1 477.5,96.1 477.5,60.5 541.1,60.5 541.1,49.8 465.7,49.8 
		465.7,154 541.8,154 541.8,143.3 477.5,143.3 	"/>
	<polygon class="st0" points="558.1,60.7 593,60.7 593,154 605,154 605,60.7 639.9,60.7 639.9,49.8 558.1,49.8 	"/>
	<polygon class="st1" points="697,70.9 728.7,70.9 728.7,154 751.6,154 751.6,70.9 783.4,70.9 783.4,49.8 697,49.8 	"/>
	<path class="st1" d="M887.9,84.5v-0.3c0-9.8-3.1-18-8.9-23.8c-6.8-6.8-17.1-10.6-30.4-10.6H801V154h22.9v-33.4h18l22.3,33.4H891
		l-25.5-37.2C878.8,111.9,887.9,101.3,887.9,84.5z M864.7,85.7c0,8.8-6.4,14.7-17.6,14.7h-23.2V70.5h22.8c11.2,0,18,5.1,18,14.9
		V85.7z"/>
	<path class="st1" d="M944.3,49.1l-44.7,105H923l9.5-23.4h44.1l9.5,23.4h24l-44.7-105C965.4,49.1,944.3,49.1,944.3,49.1z
		 M940.8,110.4l13.8-33.8l13.8,33.8C968.4,110.4,940.8,110.4,940.8,110.4z"/>
	<path class="st1" d="M1069.1,134.7c-17.9,0-30.2-14.9-30.2-32.8v-0.3c0-17.9,12.6-32.5,30.2-32.5c10.4,0,18.6,4.5,26.7,11.8
		l14.6-16.8c-9.7-9.5-21.4-16.1-41.1-16.1c-32,0-54.3,24.3-54.3,53.9v0.3c0,29.9,22.8,53.6,53.4,53.6c20.1,0,32-7.1,42.7-18.6
		l-14.6-14.7C1088.3,129.9,1081.1,134.7,1069.1,134.7z"/>
	<path class="st1" d="M1402.6,116.8c13.3-4.9,22.3-15.5,22.3-32.3v-0.3c0-9.8-3.1-18-8.9-23.8c-6.8-6.8-17.1-10.6-30.4-10.6H1338
		V154h22.9v-33.4h18l22.3,33.4h26.8L1402.6,116.8z M1401.7,85.7c0,8.8-6.4,14.7-17.6,14.7h-23.2V70.5h22.8c11.2,0,18,5.1,18,14.9
		L1401.7,85.7L1401.7,85.7z"/>
	<polygon class="st1" points="1261,111.7 1310.1,111.7 1310.1,91.3 1261,91.3 1261,70.2 1316.8,70.2 1316.8,49.8 1273.2,49.8 
		1238.2,96 1238.2,154 1317.5,154 1317.5,133.6 1261,133.6 	"/>
	<polygon class="st1" points="1243.4,81.1 1249.9,72.7 1249.9,72.6 1279.2,34.6 1287.3,39.6 1290.1,0.3 1253.5,18.4 1261.1,23.6 
		1233.2,59.8 1231.1,58.2 1221.5,50.7 1220.3,49.8 1220,49.8 1203.4,36.8 1189,52.3 1152.4,91.7 1152.4,49.8 1129.5,49.8 
		1129.5,154 1152.4,154 1152.4,122.2 1164.5,109.7 1196.8,154 1224.3,154 1179.9,94 1206.7,66.2 1206.7,66.1 1209.1,67.8 
		1237.1,89.3 1238.1,88 1238.2,88 	"/>
</g>
</svg>
