<?xml version="1.0" encoding="utf-8"?>
<!-- Generator: Adobe Illustrator 24.2.3, SVG Export Plug-In . SVG Version: 6.00 Build 0)  -->
<svg version="1.1" id="Layer_1" xmlns="http://www.w3.org/2000/svg" xmlns:xlink="http://www.w3.org/1999/xlink" x="0px" y="0px"
	 viewBox="0 0 750 500" style="enable-background:new 0 0 750 500;" xml:space="preserve">
<style type="text/css">
	.st0{fill:none;}
	.st1{fill:#FFFFFF;}
	.st2{fill:url(#SVGID_1_);}
	.st3{opacity:0.6;}
	.st4{fill:url(#SVGID_2_);}
	.st5{opacity:0.4;}
	.st6{opacity:0.5;}
	.st7{opacity:0.7;clip-path:url(#SVGID_4_);fill:url(#SVGID_5_);enable-background:new    ;}
	.st8{opacity:0.7;clip-path:url(#SVGID_7_);}
	.st9{fill:url(#SVGID_8_);}
	.st10{fill:url(#SVGID_9_);}
	.st11{fill:url(#SVGID_10_);}
	.st12{fill:url(#SVGID_11_);}
	.st13{fill:url(#SVGID_12_);}
	.st14{fill:url(#SVGID_13_);}
	.st15{fill:url(#SVGID_14_);}
	.st16{fill:url(#SVGID_15_);}
	.st17{fill:url(#SVGID_16_);}
	.st18{fill:url(#SVGID_17_);}
	.st19{fill:url(#SVGID_18_);}
	.st20{fill:url(#SVGID_19_);}
	.st21{fill:url(#SVGID_20_);}
	.st22{fill:url(#SVGID_21_);}
	.st23{fill:url(#SVGID_22_);}
	.st24{fill:url(#SVGID_23_);}
	.st25{fill:url(#SVGID_24_);}
	.st26{opacity:0.7;clip-path:url(#SVGID_26_);}
	.st27{fill:url(#SVGID_27_);}
	.st28{fill:url(#SVGID_28_);}
	.st29{fill:url(#SVGID_29_);}
	.st30{fill:url(#SVGID_30_);}
	.st31{opacity:0.7;clip-path:url(#SVGID_32_);}
	.st32{fill:url(#SVGID_33_);}
	.st33{fill:url(#SVGID_34_);}
	.st34{fill:url(#SVGID_35_);}
	.st35{fill:url(#SVGID_36_);}
	.st36{clip-path:url(#SVGID_38_);}
	.st37{fill:#55CBFF;}
	.st38{clip-path:url(#SVGID_40_);fill:url(#SVGID_41_);}
	.st39{clip-path:url(#SVGID_44_);fill:url(#SVGID_45_);}
	.st40{clip-path:url(#SVGID_48_);fill:url(#SVGID_50_);}
	.st41{opacity:0.5;clip-path:url(#SVGID_52_);fill:#FFFFFF;enable-background:new    ;}
	.st42{opacity:0.5;clip-path:url(#SVGID_54_);fill:#FFFFFF;enable-background:new    ;}
	.st43{opacity:0.5;clip-path:url(#SVGID_56_);fill:#FFFFFF;enable-background:new    ;}
	.st44{opacity:0.5;clip-path:url(#SVGID_58_);fill:#FFFFFF;enable-background:new    ;}
	.st45{opacity:0.5;clip-path:url(#SVGID_60_);fill:#FFFFFF;enable-background:new    ;}
	.st46{opacity:0.5;clip-path:url(#SVGID_62_);fill:#FFFFFF;enable-background:new    ;}
	.st47{opacity:0.5;clip-path:url(#SVGID_64_);fill:#FFFFFF;enable-background:new    ;}
	.st48{opacity:0.5;clip-path:url(#SVGID_66_);fill:#FFFFFF;enable-background:new    ;}
	.st49{opacity:0.5;clip-path:url(#SVGID_68_);fill:#FFFFFF;enable-background:new    ;}
	.st50{opacity:0.5;clip-path:url(#SVGID_70_);fill:#FFFFFF;enable-background:new    ;}
	.st51{opacity:0.5;clip-path:url(#SVGID_72_);fill:#FFFFFF;enable-background:new    ;}
</style>
<pattern  y="500" width="9.5" height="9.5" patternUnits="userSpaceOnUse" id="SVGID_43_" viewBox="0 -9.5 9.5 9.5" style="overflow:visible;">
	<g>
		<rect y="-9.5" class="st0" width="9.5" height="9.5"/>
		<g>
			<rect y="-9.5" class="st0" width="9.5" height="9.5"/>
			<g>
				<rect y="-9.5" class="st0" width="9.5" height="9.5"/>
				<circle class="st1" cx="4.7" cy="-4.7" r="1.2"/>
			</g>
		</g>
	</g>
</pattern>
<pattern  y="500" width="9.5" height="9.5" patternUnits="userSpaceOnUse" id="SVGID_46_" viewBox="0 -9.5 9.5 9.5" style="overflow:visible;">
	<g>
		<rect y="-9.5" class="st0" width="9.5" height="9.5"/>
		<g>
			<rect y="-9.5" class="st0" width="9.5" height="9.5"/>
			<g>
				<rect y="-9.5" class="st0" width="9.5" height="9.5"/>
				<circle class="st1" cx="4.7" cy="-4.7" r="1.2"/>
			</g>
		</g>
	</g>
</pattern>
<pattern  y="500" width="9.5" height="9.5" patternUnits="userSpaceOnUse" id="SVGID_49_" viewBox="0 -9.5 9.5 9.5" style="overflow:visible;">
	<g>
		<rect y="-9.5" class="st0" width="9.5" height="9.5"/>
		<g>
			<rect y="-9.5" class="st0" width="9.5" height="9.5"/>
			<g>
				<rect y="-9.5" class="st0" width="9.5" height="9.5"/>
				<circle class="st1" cx="4.7" cy="-4.7" r="1.2"/>
			</g>
		</g>
	</g>
</pattern>
<g id="BACKGROUND">
	
		<linearGradient id="SVGID_1_" gradientUnits="userSpaceOnUse" x1="463.0126" y1="1084.4675" x2="286.1546" y2="424.4246" gradientTransform="matrix(-1 0 0 -1 750 1006)">
		<stop  offset="5.208302e-04" style="stop-color:#032656"/>
		<stop  offset="8.316831e-02" style="stop-color:#045175"/>
		<stop  offset="0.2027" style="stop-color:#05889E"/>
		<stop  offset="0.3139" style="stop-color:#07B4BF"/>
		<stop  offset="0.4131" style="stop-color:#07D3D6"/>
		<stop  offset="0.4967" style="stop-color:#08E6E4"/>
		<stop  offset="0.5546" style="stop-color:#08EDE9"/>
		<stop  offset="0.6684" style="stop-color:#08EBE0"/>
		<stop  offset="0.8561" style="stop-color:#07E5C7"/>
		<stop  offset="1" style="stop-color:#07DFAF"/>
	</linearGradient>
	<rect class="st2" width="750" height="500"/>
	<g id="BACKGROUND_1_" class="st3">
		
			<linearGradient id="SVGID_2_" gradientUnits="userSpaceOnUse" x1="463.0126" y1="1084.4675" x2="286.1546" y2="424.4246" gradientTransform="matrix(-1 0 0 -1 750 1006)">
			<stop  offset="5.208302e-04" style="stop-color:#032656"/>
			<stop  offset="4.906923e-03" style="stop-color:#032958"/>
			<stop  offset="0.1362" style="stop-color:#057C96"/>
			<stop  offset="0.2437" style="stop-color:#07B9C3"/>
			<stop  offset="0.3222" style="stop-color:#08DFDE"/>
			<stop  offset="0.3634" style="stop-color:#08EDE9"/>
			<stop  offset="0.5261" style="stop-color:#08EBE0"/>
			<stop  offset="0.7944" style="stop-color:#07E5C7"/>
			<stop  offset="1" style="stop-color:#07DFAF"/>
		</linearGradient>
		<rect class="st4" width="750" height="500"/>
	</g>
</g>
<g id="OBJECTS" class="st5">
	<g class="st6">
		<g>
			<g>
				<defs>
					<rect id="SVGID_3_" width="750" height="500"/>
				</defs>
				<clipPath id="SVGID_4_">
					<use xlink:href="#SVGID_3_"  style="overflow:visible;"/>
				</clipPath>
				
					<linearGradient id="SVGID_5_" gradientUnits="userSpaceOnUse" x1="119.7531" y1="443.9" x2="950.1999" y2="443.9" gradientTransform="matrix(-1 0 0 -1 750 500)">
					<stop  offset="0" style="stop-color:#7A99ED"/>
					<stop  offset="1" style="stop-color:#FEFCFF"/>
				</linearGradient>
				<path class="st7" d="M275.7-35.4c-8-46.5-26-92.5-52.1-133.3c-0.8-1.3-1.7-2.6-2.6-3.9c-25.5-38.7-58.7-73.3-96.2-100.3l-0.7,1
					c38.6,27.8,72.6,63.6,98.4,103.8c26,40.6,44,86.5,51.9,132.8c9.5,55.3,3.1,107.3-17.6,147.5c-4.3-0.7-8.6-1.4-13-2.1
					c18.4-41.2,22.7-93.3,11-148.6c-9.6-45.8-28.1-89.3-53.7-128.1c-27.3-41.5-62.8-77.6-104.4-105.4l-0.7,1.1
					C176.4-217.2,233.8-132.4,253.6-38c11.6,55.1,7.3,107.1-11.1,148.1c-41.6-6.4-83.8-10.1-124.2,0.6c-21.6,5.7-42,15.5-60.1,28.6
					c-3.2,2.1-6.4,4.2-9.5,6.5c-3.2,2-6.3,4.1-9.4,6.4c-3.3,2-6.4,4.2-9.5,6.4c-3.3,2-6.4,4.1-9.5,6.4c-3.3,2-6.6,4.2-9.7,6.4
					c-3.3,2-6.5,4.1-9.6,6.3c-3.3,2-6.6,4.1-9.8,6.3l-0.1,0.1c-2.6,1.5-5.1,3.1-7.5,4.7c-0.7,0.5-1.4,1-2.2,1.5
					c-1.8,1.1-3.7,2.2-5.5,3.3c-1.5,1-3.1,2-4.6,3c-1,0.6-2,1.2-3.1,1.8c-2.4,1.5-4.8,3-7.2,4.6c-0.1,0.1-0.3,0.1-0.4,0.2
					c-3.4,1.9-6.7,4-10.1,6.1c-3.6,2-7.2,4.1-10.7,6.3c-3,1.6-6.1,3.3-9,5c-0.6,0.4-1.2,0.7-1.8,1.1c-1.8,0.9-3.7,1.9-5.5,2.8
					c-1.9,1-3.8,2.1-5.6,3.2c-0.5,0.3-1.1,0.5-1.6,0.8c-3.1,1.5-6.2,3.1-9.3,4.8c-3.8,1.6-7.6,3.4-11.3,5.3
					c-23.9,9.5-45.9,24.1-62.5,41.4c-20,21-31.6,45.4-33.4,70.6l1.3,0.1c1.9-24.9,13.3-49,33.1-69.8c13.4-14.1,30.5-26.4,49.3-35.5
					c-13.7,8.3-26.5,18.4-37.8,29.9c-23.4,23.5-39,51.3-44.1,78.3l1.3,0.2c5-26.7,20.5-54.2,43.7-77.6
					c14.2-14.4,30.8-26.6,48.5-35.9c-15.2,9.8-29.7,22-42.7,36c-22.9,24.5-40.7,53.7-48.9,80.2l1.2,0.4
					c8.2-26.3,25.9-55.4,48.6-79.7c14.7-15.7,31.1-29.1,48.3-39.4c0.2-0.1,0.4-0.2,0.6-0.2c0.3-0.1,0.6-0.2,0.9-0.3
					c-15.2,10.8-30,24.2-44,40.2c-22.2,25-41.8,54.9-53.8,82.1l1.1,0.5c12-27.1,31.5-56.9,53.6-81.8c15.1-17,30.9-31.2,47.2-42.3
					c0.9-0.3,1.9-0.6,2.8-0.9c-14.8,11.5-29.4,25.9-44.1,43.5c-26.9,31.8-48.3,66.3-58.6,84l1,0.6c10.3-17.7,31.7-52.1,58.5-83.9
					c15.5-18.4,30.8-33.3,46.3-45.1c1.2-0.4,2.3-0.7,3.5-1c-14.3,12.2-28.6,27.4-43.9,46.5c-15.7,19.5-31.1,41-44.6,59.9
					c-6.7,9.3-13,18.2-18.8,26.1l0.8,0.6c5.9-7.9,12.2-16.7,18.9-26.1c13.5-18.9,28.9-40.4,44.6-59.9c15.9-19.8,30.7-35.4,45.5-47.8
					c1.3-0.4,2.6-0.7,3.9-1.1c-16.8,15.6-31.1,33.2-43.5,49.2c-7.6,9.8-15.2,20.1-22.6,30.1c-16.2,21.7-31.4,42.2-45.7,57.9l0.7,0.7
					c14.3-15.7,29.6-36.2,45.7-57.9c7.4-10,15.1-20.2,22.6-30.1c12.7-16.5,27.5-34.6,44.8-50.4c1.4-0.4,2.8-0.7,4.1-1
					c-16.4,16.5-30.5,35-43,51.8c-3.1,4.1-6.1,8.3-9.2,12.5c-21.1,28.7-42.9,58.3-64,77.4l0.6,0.7c21.1-19.2,43-48.9,64.1-77.6
					c3.1-4.2,6.2-8.4,9.2-12.5c12.7-17.2,27.2-36.1,44-52.8c1.5-0.3,2.9-0.7,4.4-1c-14.9,16.1-28.4,34.4-42.5,54.3
					c-23.8,33.3-50.7,70.9-78,91.9l0.5,0.7c27.4-21,54.4-58.8,78.2-92.1c14.4-20.2,28-38.8,43.3-55.1c1.6-0.3,3.2-0.7,4.8-1
					C-73.6,244.6-87,264-100.1,283l-0.5,0.7c-46.1,66.8-67,83.5-82.9,93.9l0.4,0.7c13.8-9,28.1-22.4,43.7-41.1
					c14-16.7,27.2-35.3,39.4-53l0.5-0.7c13.2-19.3,26.8-39,42.2-56.6c1.6-0.3,3.3-0.6,4.9-0.9c-13.5,16.7-25.6,34.8-37.4,52.6
					l-4.1,6.2c-44,65.8-69,85.4-87.8,95.9l0.4,0.7c15.3-8.6,30.8-22,47.2-41c15.7-18.2,30.1-39,40.8-55.1l4.1-6.2
					c12-18,24.2-36.4,37.9-53.2c1.7-0.3,3.4-0.6,5.1-0.9c-12.2,16-23.2,33.1-34,49.9c-2.4,3.7-4.7,7.3-7.1,11
					c-23.3,36-54.9,79.7-92.7,97.9l0.3,0.6c16.9-8.1,33.5-21.5,50.7-41c13.1-14.8,26.5-32.9,42.2-57.1c2.4-3.7,4.7-7.3,7.1-11
					c10.9-17,22-34.4,34.4-50.5c1.7-0.3,3.5-0.5,5.2-0.8c-11.1,15.3-21.2,31.6-31,47.6c-3.1,5-6.3,10.2-9.5,15.3
					c-45.2,72-77.3,91.5-97.6,99.9l0.2,0.6c18.4-7.6,36.1-21,54.2-40.9c14.1-15.4,27.9-34.2,43.6-59.2c3.2-5.1,6.4-10.3,9.5-15.3
					c10-16.1,20.1-32.6,31.4-48.1c1.8-0.3,3.6-0.5,5.4-0.7C-44,238-53.3,253.5-62.4,268.8c-3.8,6.3-7.7,12.9-11.5,19.2
					c-21.9,35.8-56.3,85.2-102.4,101.9l0.2,0.5C-130,373.6-95.5,324-73.6,288.2c3.9-6.4,7.8-12.9,11.5-19.2
					c9.2-15.4,18.5-31.1,28.8-46c1.8-0.2,3.6-0.5,5.5-0.7c-9.3,14.3-17.9,29.1-26.3,43.8c-4.3,7.5-8.8,15.3-13.3,22.9
					c-15.6,26.2-30.8,46.9-46.3,63.2c-19.5,20.5-40,34.2-61,40.7l0.2,0.5c21-6.6,41.6-20.3,61.2-40.8c15.6-16.3,30.8-37,46.4-63.3
					c4.5-7.6,9-15.3,13.3-22.9c8.5-14.7,17.1-29.7,26.5-44.1c1.9-0.2,3.7-0.5,5.6-0.7c-8.6,13.8-16.5,28.1-24.3,42.1
					c-4.8,8.7-9.8,17.6-14.8,26.3c-35,60.3-71.7,94.9-112.2,105.9l0.1,0.4c40.6-11,77.4-45.7,112.5-106.1c5-8.7,10-17.6,14.8-26.3
					c7.9-14.1,15.8-28.5,24.5-42.4c1.9-0.2,3.8-0.4,5.7-0.6c-7.9,13.3-15.3,27-22.5,40.5c-5.2,9.8-10.6,19.8-16.2,29.6
					c-15.9,28-32,50-49.1,67.3c-21.2,21.4-44.1,35-68,40.6l0.1,0.4c24-5.6,46.9-19.3,68.2-40.7c17.2-17.3,33.3-39.3,49.2-67.4
					c5.5-9.7,10.9-19.8,16.2-29.6c7.3-13.6,14.7-27.4,22.7-40.8c1.9-0.2,3.9-0.4,5.8-0.6c-7.3,12.9-14.2,26-21,39.1
					c-5.6,10.8-11.4,21.9-17.4,32.7c-16,28.9-32.6,51.6-50.5,69.3c-22.1,21.8-46.2,35.5-71.5,40.6l0.1,0.3
					c25.4-5.1,49.5-18.8,71.7-40.7c18-17.8,34.5-40.5,50.6-69.4c6-10.7,11.8-21.9,17.4-32.7c6.8-13.1,13.7-26.3,21.1-39.3
					c10.9-1,21.8-1.8,32.5-2.7c12.2-0.9,24.8-1.9,37.1-3.1c22.8-2.3,50.8-6.2,78.4-15.2c7-1.7,13.7-3.7,20.2-5.8
					c5.5-1.4,10.8-2.9,15.9-4.6c7-1.7,13.7-3.6,20.1-5.8c5.5-1.4,10.8-2.9,15.9-4.5c6.2-1.5,12.3-3.2,18.1-5
					c6.4-1.5,12.6-3.2,18.6-5.1c6-1.4,11.8-3,17.4-4.7c6.5-1.5,12.8-3.1,18.9-5c6.3-1.4,12.5-3,18.5-4.9c6.4-1.4,12.6-3,18.6-4.8
					c6.4-1.4,12.7-2.9,18.8-4.7c6.6-1.4,13-2.9,19.2-4.7c6.5-1.3,12.9-2.8,19.2-4.5c6.5-1.2,12.9-2.7,19.1-4.4
					c6.8-1.2,13.5-2.7,20-4.4c6.8-1.2,13.4-2.5,19.9-4.1c15.5-2.5,30.3-6,44.3-10.6c26.6-8.7,51.9-22,73-38.5
					c22.7-17.8,40.5-38.7,52.8-62.3c11.5-22,18.5-47.2,21-74.7c2.3-24.8,0.8-51.2-4.4-78.4C614.9-194,593.6-242.8,573-290l-0.3,0.1
					c20.6,47.2,41.9,96,51.8,147.6c5.2,27.1,6.7,53.5,4.4,78.3c-2.5,27.5-9.6,52.6-21,74.5c-12.3,23.5-30,44.5-52.7,62.2
					c-21.1,16.5-46.3,29.8-72.9,38.5c-12.8,4.2-26.3,7.5-40.3,10c1.5-0.4,3-0.8,4.5-1.2c7.1-2,14.1-4.2,20.8-6.7
					c54.1-20,97.8-58.4,120-105.4c10.5-22.2,16.7-47.2,18.5-74.4c1.6-24.8-0.4-50.8-6.1-77.5c-10.5-49.1-31-94.7-54.7-144.9
					l-0.4,0.2c23.7,50.2,44.2,95.8,54.7,144.8c5.7,26.6,7.7,52.6,6.1,77.4c-1.8,27.1-8,52.1-18.4,74.2
					C564.8,54.6,521.2,93,467.2,112.9c-6.7,2.5-13.7,4.8-20.8,6.7c-3,0.8-6,1.6-9.1,2.3c-2.5,0.4-5.1,0.8-7.7,1.1
					c0.7-0.2,1.4-0.4,2.1-0.6c7-2.2,13.9-4.7,20.6-7.5c52.1-21.6,93.8-61.7,114.3-110c9.5-22.3,14.8-47.2,15.9-74
					c1-24.7-1.7-50.4-7.8-76.6c-11.9-50.2-35-97.8-57.6-142.2l-0.4,0.2c22.6,44.4,45.7,91.9,57.6,142.1c6.2,26.1,8.8,51.8,7.8,76.4
					c-1.1,26.8-6.4,51.6-15.9,73.9C545.7,53,504.1,93,452.1,114.5c-6.6,2.7-13.5,5.3-20.5,7.5c-1.6,0.5-3.2,1-4.8,1.4
					c-2.8,0.4-5.6,0.7-8.4,1c6.4-2.3,12.8-4.9,18.9-7.7c50.2-23.1,89.8-64.8,108.6-114.6c8.5-22.4,13-47.2,13.3-73.7
					c0.3-24.6-2.9-50-9.6-75.7c-13.4-51.4-38.3-99-60.6-139.5l-0.5,0.2c22.3,40.5,47.2,88,60.5,139.4c6.7,25.6,9.9,51,9.6,75.5
					c-0.3,26.4-4.8,51.1-13.3,73.5C526.5,51.5,487,93.1,436.9,116.1c-6.5,3-13.3,5.8-20.2,8.2c-0.2,0.1-0.4,0.1-0.6,0.2
					c-3,0.3-6,0.5-9.1,0.7c5.1-2.1,10.2-4.5,15-6.9c48.4-24.5,85.9-68,102.9-119.2c7.5-22.6,11.1-47.2,10.8-73.4
					c-0.3-24.5-4.1-49.6-11.3-74.8c-14.3-50.1-40.1-97.3-63.5-136.8l-0.5,0.3c23.4,39.5,49.2,86.6,63.4,136.6
					c7.1,25.1,10.9,50.2,11.3,74.6c0.4,26.1-3.2,50.7-10.7,73.2c-17,51.1-54.4,94.4-102.6,118.9c-5.4,2.7-10.9,5.3-16.6,7.6
					c-1.3,0.1-2.6,0.2-3.9,0.2c-1.9,0.1-3.7,0.2-5.6,0.2c3.8-1.8,7.6-3.8,11.3-5.8c23.5-13.1,44-30.7,60.9-52.3
					c16.6-21.3,28.8-45.4,36.4-71.5c12.6-43.9,10.9-96.1-4.8-146.9c-15.9-51.3-43.8-98.6-66.4-134.1l-0.5,0.3
					c22.6,35.4,50.5,82.7,66.4,133.9C514.7-100,516.4-48,503.8-4.2c-7.5,26.1-19.7,50.1-36.2,71.3c-16.8,21.5-37.2,39.1-60.7,52.1
					c-4.1,2.3-8.3,4.4-12.5,6.4c-3.2,0.1-6.5,0.2-9.8,0.2c2.6-1.4,5.1-2.9,7.6-4.4c22.9-13.9,42.6-32.4,58.5-55
					c15.4-21.9,26.6-46.6,33-73.4c10.7-44.3,7.5-96.1-9.1-145.7c-7.9-23.5-22.6-60.6-60.3-117.9c-2.9-4.4-5.9-8.8-9-13.4l-0.6,0.4
					c21.3,31.1,51.6,78.5,69.3,131.2c16.6,49.5,19.8,101.1,9.1,145.3c-6.5,26.7-17.5,51.3-32.9,73.2c-15.8,22.5-35.4,40.9-58.3,54.8
					c-2.8,1.7-5.7,3.4-8.7,5c-3.3,0-6.7,0-10.1-0.1c1.4-0.9,2.7-1.7,4-2.6c22.3-14.7,41.2-34.1,56.1-57.7
					c14.3-22.6,24.3-47.9,29.7-75.3c8.9-44.7,4.1-96-13.4-144.4c-11.3-31.1-27.3-62.3-49.7-96.3c-6.9-10.5-14.4-21.2-22.6-32.3
					l-0.6,0.4c34.6,47,57.5,87.8,72.2,128.4c17.5,48.3,22.2,99.5,13.4,144c-5.4,27.2-15.4,52.5-29.6,75
					c-14.9,23.5-33.6,42.8-55.9,57.5c-1.6,1.1-3.3,2.2-5,3.2c-3.4-0.1-6.9-0.2-10.4-0.3c0.2-0.2,0.5-0.3,0.7-0.5
					c42.6-30.5,71.1-79.4,80.1-137.6c7-45,0.7-95.9-17.7-143.2c-10.3-26.5-24.4-53.3-42.7-81c-9.7-14.7-20.5-29.6-32.6-44.9
					l-0.6,0.5c34.8,44.1,59.3,85.2,75.1,125.7c18.4,47.2,24.6,97.9,17.7,142.8c-9,58-37.3,106.6-79.8,137c-0.5,0.4-1.1,0.7-1.6,1.1
					c-3.5-0.2-7-0.4-10.6-0.6c39.9-32,65.4-81.7,72-140.3c5.2-46-2.5-95.1-22-142c-9.5-22.8-21.6-45.3-36.6-68.1
					c-12-18.2-25.8-36.5-41.6-55.1l-0.7,0.6c35.4,41.9,61,82.1,78,123c19.5,46.8,27.1,95.7,22,141.5C413.8,43,388.1,92.7,348,124.6
					c-3.6-0.3-7.2-0.6-10.9-0.9c36.9-33.5,59.3-83.6,63.4-142.2c3.2-46.2-5.9-94.9-26.3-140.7c-8.5-19-19-38.1-31.4-56.9
					c-14.1-21.4-30.7-42.7-49.6-63.5l-0.7,0.6c35.6,39.2,62.8,79.7,80.9,120.2c20.4,45.7,29.5,94.2,26.2,140.3
					c-4.1,58.6-26.7,108.8-63.7,142.1c-3.7-0.4-7.4-0.8-11.1-1.2c33.9-34.8,53.4-85.4,55-143.8c1.3-46.4-9.3-94.7-30.6-139.5
					c-7.5-15.8-16.4-31.5-26.5-46.9c-16-24.3-35.2-48.1-57.5-70.9l-0.7,0.7c36.2,37.2,64.4,76.7,83.8,117.5
					c21.3,44.7,31.8,92.8,30.5,139c-1.7,58.4-21.2,109-55.3,143.6c-1.5-0.2-3.1-0.4-4.6-0.6c-2.2-0.3-4.5-0.6-6.7-0.9
					c31-36.1,47.6-86.9,46.9-145c-0.6-46.5-12.7-94.4-34.9-138.3c-6.5-12.8-13.8-25.4-21.9-37.7c-17.9-27.2-39.7-53.1-65.1-77.4
					l-0.7,0.8c36.8,35.3,66,73.9,86.7,114.8c22.2,43.8,34.2,91.4,34.8,137.8c0.7,58.1-15.9,108.9-47.1,144.8
					c-3.9-0.6-7.8-1.1-11.7-1.7c28-37.2,42.1-89.2,39.1-146c-2.5-46.6-16-94-39.2-137c-5.3-9.8-11.1-19.5-17.3-29
					c-19.7-30-44.1-57.9-72.6-83.4l-0.7,0.8c37.4,33.4,67.6,71.1,89.7,112c23.1,42.9,36.6,90.1,39.1,136.6
					c3,56.8-11.2,108.7-39.2,145.7c-4-0.6-8-1.3-12-1.9c25.4-38.3,36.8-90.4,31.6-146.8c-4.3-46.6-19.4-93.6-43.5-135.8
					c-3.8-6.7-7.9-13.4-12.3-19.9c-21.7-33-49.2-63.6-80.6-89.7l-0.7,0.9c37.5,31.1,69.5,68.9,92.6,109.3c24,42,39,88.8,43.4,135.3
					c5.2,56.3-6.2,108.3-31.7,146.4c-4.1-0.7-8.2-1.4-12.3-2.1c22.9-39.4,31.8-91.5,24.4-147.4c-6.2-46.6-22.7-93.1-47.8-134.5
					c-2.4-4-4.9-7.9-7.5-11.9c-23.6-35.8-53.9-68.5-88.3-95.1l-0.8,1c38.1,29.4,71.1,66.3,95.5,106.6c25,41.3,41.5,87.6,47.6,134.1
					c7.4,55.8-1.5,107.8-24.4,147c-4.2-0.7-8.4-1.4-12.6-2.1C278.8,72.2,285.2,20,275.7-35.4z M256.7,112.7c-1.3,2.5-2.6,4.9-4,7.3
					c-4.2-0.7-8.3-1.3-12.5-2c1.2-2.4,2.4-4.9,3.6-7.4C248.1,111.3,252.4,112,256.7,112.7z M394.7,129.4c-2.5,0.9-5,1.7-7.5,2.5
					c-2.6,0.4-5.2,0.7-7.8,1c2.4-0.9,4.7-1.8,7-2.8C389.2,129.9,392,129.7,394.7,129.4z M396.9,129.2c2.5-0.3,4.9-0.6,7.3-0.9
					c-2.3,0.7-4.7,1.3-7.1,2c-2.2,0.4-4.5,0.8-6.8,1.1C392.6,130.8,394.8,130,396.9,129.2z M-33.9,216.4c1.1-1.4,2.1-2.8,3.2-4.2
					c1.7-0.3,3.3-0.7,5-1c-1.1,1.4-2.1,2.9-3.2,4.3c-1.5,0.2-2.9,0.4-4.4,0.7C-33.4,216.3-33.6,216.4-33.9,216.4z M-77.6,227.4
					c0.4-0.3,0.8-0.5,1.2-0.8c0.6-0.2,1.1-0.5,1.7-0.7c-0.4,0.3-0.8,0.6-1.2,1c-0.5,0.2-1.1,0.3-1.6,0.5
					C-77.6,227.3-77.6,227.3-77.6,227.4z M347.1,138.9c-2.9,0.2-5.7,0.5-8.6,0.6c1.4-0.7,2.9-1.5,4.3-2.3c0.8-0.5,1.7-0.9,2.5-1.4
					c3.1-0.1,6.1-0.2,9.1-0.3C352,136.7,349.6,137.8,347.1,138.9z M356.3,135.4c2.9-0.2,5.8-0.3,8.6-0.5c-2.4,1-4.8,2-7.3,2.9
					c-2.7,0.3-5.4,0.6-8.2,0.9C351.7,137.6,354,136.5,356.3,135.4z M-23.7,209.7c1.1-1.4,2.1-2.8,3.2-4.2c1.6-0.4,3.3-0.7,5-1
					c-1.1,1.4-2.1,2.9-3.1,4.3C-20.3,209.1-22,209.4-23.7,209.7L-23.7,209.7z M11.8,171.4c-0.3,0.2-0.6,0.4-0.8,0.7
					c-0.4,0.2-0.8,0.4-1.3,0.6c0.2-0.1,0.3-0.3,0.5-0.4C10.7,172,11.3,171.7,11.8,171.4z M255.3,136.7c-1.8,2.1-3.6,4.1-5.5,6.1
					c-3.5-0.4-7.1-0.7-10.6-1.1c0.7-0.9,1.5-1.8,2.2-2.6c1-1.2,1.9-2.5,2.8-3.7C247.9,135.8,251.6,136.2,255.3,136.7z M315.4,140.7
					c3.1,0,6.2,0,9.3-0.1c-2.3,1.3-4.6,2.5-7,3.8c-2.9,0.2-5.8,0.3-8.8,0.4c1.5-0.9,2.9-1.8,4.4-2.7
					C314,141.7,314.7,141.2,315.4,140.7z M312.8,141.4c-1.9,1.2-3.9,2.4-5.8,3.5c-3,0.1-6.1,0.2-9.2,0.2c0.2-0.2,0.5-0.3,0.7-0.5
					c1.9-1.3,3.8-2.6,5.6-4c3.2,0.1,6.4,0.1,9.6,0.1C313.4,141,313.1,141.2,312.8,141.4z M-42.4,206.9c-0.5,0.4-0.9,0.8-1.4,1.1
					c-0.6,0.3-1.3,0.5-1.9,0.8c0.4-0.3,0.9-0.6,1.3-1C-43.7,207.6-43,207.2-42.4,206.9z M283.7,147.1c0.7-0.5,1.3-1,2-1.5
					c3.2,0.1,6.3,0.1,9.4,0.1c-2.2,1.4-4.4,2.8-6.7,4.1c-2.9,0.1-5.9,0.2-8.9,0.2C280.9,149,282.3,148,283.7,147.1z M283.1,146.2
					c-1.8,1.3-3.7,2.6-5.5,3.8c-3.1,0-6.1,0-9.3,0c0.2-0.2,0.4-0.3,0.7-0.5c1.8-1.4,3.6-2.9,5.4-4.3c3.3,0.2,6.5,0.3,9.7,0.4
					C283.7,145.7,283.4,146,283.1,146.2z M270.1,154.7c-2.9,0.1-5.8,0.2-8.7,0.3c2.1-1.4,4.1-2.9,6.1-4.3c3.1,0,6.1,0.1,9.1,0
					C274.5,152,272.3,153.4,270.1,154.7z M251.9,159.6c-2.8,0.1-5.6,0.2-8.4,0.3c2-1.4,4-2.8,5.9-4.3c3,0,6,0,8.9,0
					C256.2,157,254.1,158.4,251.9,159.6z M233.9,164.7c-2.7,0.2-5.5,0.3-8.3,0.4c2-1.4,3.9-2.7,5.8-4.2c2.9,0,5.8,0,8.7-0.1
					C238.1,162.1,236,163.4,233.9,164.7z M215.9,169.7c-2.6,0.2-5.3,0.3-8,0.4c1.9-1.3,3.8-2.7,5.7-4.1c2.8,0,5.7,0,8.5-0.1
					C220,167.2,218,168.5,215.9,169.7z M198.1,174.8c-2.7,0.2-5.4,0.3-8.1,0.5c1.9-1.3,3.8-2.6,5.6-4c2.8,0,5.6-0.1,8.4-0.1
					C202.1,172.4,200.2,173.6,198.1,174.8z M-24.9,197.6c0.5-0.4,0.9-0.8,1.4-1.2c1.2-0.5,2.4-1.1,3.6-1.6c-0.9,0.9-1.8,1.7-2.7,2.6
					c-1.2,0.4-2.4,0.9-3.5,1.3C-25.7,198.4-25.3,198-24.9,197.6z M-10.3,189.7c0.7-0.7,1.5-1.4,2.2-2.1c1.3-0.5,2.6-1.1,4-1.6
					c-1,1-1.9,2-2.9,3c-1.4,0.5-2.7,0.9-4.1,1.4C-10.9,190.2-10.6,189.9-10.3,189.7z M4.2,181.7c0.9-0.9,1.8-1.8,2.7-2.7
					c1.4-0.6,2.9-1.1,4.3-1.6l0,0c-1,1.1-2,2.2-3,3.4c-1.5,0.4-2.9,0.9-4.4,1.4C3.9,182,4.1,181.8,4.2,181.7z M243.1,149.5
					c-1.4,1.3-2.9,2.7-4.4,3.9c-0.5,0.4-1,0.8-1.5,1.2c-3.1-0.1-6.3-0.3-9.5-0.5c-0.1,0-0.2,0-0.2,0c1.9-1.8,3.7-3.6,5.5-5.5
					c3.3,0.3,6.6,0.6,9.8,0.8C242.9,149.5,243,149.5,243.1,149.5z M253.5,151c-1.7,1.4-3.4,2.7-5.1,4c-3.1,0-6.2-0.1-9.4-0.2
					c0.1-0.1,0.3-0.2,0.4-0.4c1.8-1.5,3.5-3.1,5.2-4.8c3.3,0.2,6.5,0.4,9.8,0.6C254.1,150.5,253.8,150.8,253.5,151z M224.7,156.8
					c0.7-0.6,1.4-1.3,2.1-2c0.3,0,0.6,0,0.9,0.1c2.9,0.2,5.8,0.3,8.7,0.4c-2,1.6-4,3.2-6,4.7c-3,0-6.1-0.1-9.2-0.2
					C222.4,158.9,223.6,157.9,224.7,156.8z M225.7,154.1c-3.3-0.2-6.6-0.5-10-0.7c1.8-1.9,3.5-3.9,5.2-5.9c3.5,0.4,6.9,0.7,10.4,1.1
					C229.5,150.5,227.6,152.3,225.7,154.1z M225,154.7c-0.4,0.4-0.8,0.8-1.2,1.1c-1.5,1.4-3,2.7-4.6,4c-2.2-0.1-4.5-0.2-6.7-0.3
					c-0.9,0-1.8-0.1-2.8-0.2c0.1-0.1,0.1-0.1,0.2-0.1c1.8-1.7,3.5-3.5,5.2-5.3C218.5,154.3,221.8,154.5,225,154.7z M-1.9,188.5
					c1.5-0.5,3.1-0.9,4.7-1.3c-1.1,1.3-2.1,2.6-3.1,3.9c-1.6,0.4-3.2,0.7-4.7,1.1C-4.1,190.9-3,189.7-1.9,188.5z M-6,192.4
					c-1.5,0.4-3,0.8-4.5,1.2c1-1.1,2-2.3,3.1-3.4c1.5-0.5,3-1,4.5-1.4C-3.9,190-5,191.2-6,192.4z M3.5,186.9
					c1.6-0.4,3.3-0.9,4.9-1.3c-1.1,1.4-2.1,2.8-3.2,4.2c-0.2,0-0.4,0.1-0.5,0.1c-1.5,0.3-2.9,0.6-4.4,1
					C1.4,189.5,2.4,188.2,3.5,186.9z M4.6,185.6c1.1-1.3,2.1-2.5,3.2-3.8c1.6-0.5,3.2-1,4.7-1.4c-1.1,1.3-2.1,2.6-3.2,4
					C7.7,184.8,6.2,185.2,4.6,185.6z M9,180.5c0.8-0.9,1.7-1.9,2.5-2.8c0.2-0.2,0.4-0.4,0.6-0.7c1.5-0.5,3.1-1.1,4.6-1.5
					c-1.1,1.2-2.1,2.5-3.2,3.7C12,179.6,10.5,180,9,180.5z M13.2,180.2c1.6-0.5,3.3-0.9,4.9-1.3c-1.1,1.4-2.1,2.8-3.2,4.2
					c-0.2,0.1-0.5,0.1-0.7,0.1c-1.4,0.3-2.8,0.6-4.2,1C11,182.9,12.1,181.6,13.2,180.2z M14.2,179c1.1-1.3,2.1-2.5,3.2-3.8
					c1.6-0.5,3.2-1,4.8-1.4c-1.1,1.3-2.1,2.6-3.2,4C17.4,178.2,15.8,178.6,14.2,179z M18.5,174c0.1-0.1,0.2-0.2,0.3-0.3
					c1-1.1,1.9-2.1,2.9-3.2c1.5-0.6,3.1-1.1,4.6-1.6c-1.1,1.2-2.1,2.5-3.1,3.7C21.6,173.1,20,173.5,18.5,174z M26.9,168.7
					c5.2-1.7,10.5-3.2,15.8-4.4c35.8-8.2,73.3-4.9,109.6-1.7c14.8,1.3,30.1,2.6,45.1,3.2c1.1,0,2.1,0.1,3.2,0.1
					c-1.8,1.5-3.7,3-5.8,4.6c-4.1,0-8.3,0-12.5-0.1c-14.7-0.3-29.7-1.5-44.2-2.6c-34.7-2.6-70.6-5.3-104.9,2.4
					c-3.2,0.7-6.3,1.5-9.4,2.4C24.8,171.2,25.8,169.9,26.9,168.7z M197.4,164.9c-14.9-0.5-30.2-1.9-45-3.2
					c-36.3-3.2-73.9-6.5-109.8,1.8c-4.9,1.1-9.8,2.5-14.6,4c1-1.2,2.1-2.4,3.2-3.5c6.9-2.5,13.9-4.7,21-6.4
					c37.4-8.8,76.7-4.9,114.6-1.1c13.3,1.3,26.9,2.7,40.4,3.5c-1.8,1.6-3.6,3.3-5.7,5C200.1,165,198.8,165,197.4,164.9z M209,160.1
					c1.2,0.1,2.3,0.1,3.5,0.2c2,0.1,3.9,0.2,5.9,0.2c-1.9,1.6-3.9,3.1-5.9,4.6c-3,0-6,0-9.1-0.1C205.3,163.5,207.2,161.9,209,160.1z
					 M209,158.3c-0.4,0.3-0.7,0.7-1.1,1c-13.7-0.8-27.6-2.2-41.1-3.5c-38-3.8-77.3-7.7-114.9,1.1c-6.7,1.6-13.3,3.5-19.7,5.9
					c1-1.1,2.1-2.2,3.1-3.3c8.5-3.5,17.3-6.4,26.3-8.5c39.1-9.4,80.1-4.8,119.7-0.4c10.5,1.2,21.3,2.4,32.1,3.3
					C212,155.4,210.5,156.9,209,158.3z M31.6,163c-1.4,0.5-2.9,1.1-4.3,1.6c1-1,2-2,3.1-3c1.4-0.6,2.8-1.3,4.3-1.9
					C33.6,160.9,32.6,162,31.6,163z M30.4,164.3c-1,1.1-2.1,2.3-3.1,3.5c-1.5,0.5-3,1-4.5,1.5c1-1.1,2.1-2.2,3.1-3.2
					C27.5,165.4,28.9,164.8,30.4,164.3z M22,169.5c-1.4,0.5-2.8,1-4.2,1.6c1-1,2-2,2.9-2.9c1.4-0.6,2.8-1.2,4.3-1.8
					C24,167.4,23,168.5,22,169.5z M20.9,170.8c-0.8,0.9-1.6,1.7-2.4,2.6c-0.2,0.3-0.4,0.5-0.7,0.8c-1.5,0.5-2.9,0.9-4.4,1.4
					c1-1.1,2-2.1,3-3.1C17.9,171.9,19.4,171.4,20.9,170.8z M12.5,176c-1.4,0.5-2.8,1-4.2,1.5c1-1,1.9-1.9,2.9-2.8
					c1.4-0.6,2.7-1.2,4.1-1.7C14.4,173.9,13.4,175,12.5,176z M6.9,182.1c-1.1,1.2-2.1,2.5-3.1,3.7c-1.5,0.4-3,0.8-4.5,1.2
					c1-1.2,2.1-2.3,3.2-3.5C3.9,183.1,5.4,182.6,6.9,182.1z M-1.6,187.3c-1.4,0.4-2.9,0.9-4.3,1.3c1-1,1.9-2,2.9-3l0.1-0.1
					c1.4-0.5,2.9-1.1,4.3-1.6C0.4,185.1-0.6,186.2-1.6,187.3z M-8.5,190.6c-1,1.1-2,2.2-3,3.3c-1.4,0.4-2.8,0.8-4.2,1.2
					c1-1,2-2.1,3-3.1C-11.3,191.5-9.9,191.1-8.5,190.6z M-17,195.6c-1.3,0.4-2.7,0.9-4,1.3c0.9-0.9,1.9-1.8,2.8-2.7
					c1.3-0.5,2.7-1.1,4-1.6C-15.1,193.6-16.1,194.6-17,195.6z M-24.3,199.2c-1,1-1.9,2-2.9,3c-1.3,0.4-2.6,0.8-3.9,1.2
					c1-0.9,1.9-1.8,2.9-2.7C-26.9,200.1-25.6,199.7-24.3,199.2z M-22.8,198.6c1.4-0.5,2.8-1,4.2-1.4c-1,1.1-2,2.2-3,3.3
					c-1.4,0.4-2.8,0.8-4.3,1.2C-24.8,200.7-23.8,199.6-22.8,198.6z M-17.3,196.8c1.5-0.5,3-0.9,4.4-1.4c-1,1.2-2.1,2.4-3.1,3.6
					c-1.5,0.4-3,0.8-4.5,1.2C-19.4,199-18.3,197.9-17.3,196.8z M-11.8,195.1c1.6-0.5,3.1-0.9,4.7-1.3c-1.1,1.3-2.1,2.6-3.1,3.9
					c-1.6,0.3-3.2,0.7-4.7,1.1C-13.9,197.5-12.9,196.3-11.8,195.1z M-6.3,193.5c1.6-0.4,3.2-0.8,4.8-1.2c-1.1,1.4-2.1,2.8-3.1,4.1
					c-0.1,0-0.1,0-0.2,0c-1.6,0.3-3.1,0.6-4.7,1C-8.4,196.2-7.3,194.8-6.3,193.5z M-0.7,192.2c1.7-0.4,3.3-0.8,5-1.1
					c-1.1,1.5-2.1,2.9-3.2,4.4c-1.7,0.3-3.4,0.6-5,0.9C-2.9,194.9-1.8,193.6-0.7,192.2z M4.9,190.9L4.9,190.9c1.7-0.3,3.4-0.7,5.1-1
					c-1.1,1.5-2.1,3.1-3.2,4.6c-1.7,0.2-3.4,0.5-5.2,0.8C2.7,193.9,3.8,192.4,4.9,190.9z M5.8,189.7c1.1-1.4,2.1-2.8,3.2-4.2
					c1.7-0.4,3.3-0.8,5-1.2c-1.1,1.5-2.1,2.9-3.2,4.4C9.2,189.1,7.5,189.4,5.8,189.7z M14.5,184.2c31.1-6.5,63.5-5,94.9-3.5
					c14,0.6,28.4,1.3,42.5,1.3c9.1,0,17.9-0.3,26.5-0.9c-1.8,1-3.7,2.1-5.7,3.1c-11.5,1.2-23.5,2-36,2.2
					c-13.8,0.2-27.8-0.2-41.5-0.6c-27.7-0.8-56.3-1.7-84,3C12.4,187.2,13.4,185.7,14.5,184.2z M151.9,181c-14.1,0-28.5-0.6-42.5-1.3
					c-31.1-1.4-63.2-2.9-94.1,3.4c1.1-1.4,2.1-2.8,3.2-4.2c1.7-0.4,3.5-0.8,5.2-1.2c32.7-7.1,66.8-5,99.8-3
					c14.3,0.9,29,1.8,43.4,1.9c6.5,0.1,12.9,0,19.2-0.2c-1.9,1.2-3.8,2.4-5.8,3.6C171.2,180.6,161.7,181,151.9,181z M167.1,175.6
					c-14.4-0.2-29.1-1.1-43.4-1.9c-33.1-2-67.3-4.1-100.1,3c-1.4,0.3-2.7,0.6-4.1,0.9c1.1-1.3,2.1-2.7,3.2-4c3.5-1,7-1.9,10.5-2.7
					c34.2-7.7,70-5,104.7-2.4c14.5,1.1,29.6,2.2,44.3,2.6c3.8,0.1,7.6,0.1,11.4,0.1c-1.8,1.4-3.8,2.7-5.8,4.1
					C181,175.6,174.1,175.7,167.1,175.6z M196.9,170.4c1.9-1.4,3.8-2.9,5.6-4.5c3,0.1,6,0.1,8.9,0.1c-1.9,1.4-3.9,2.8-6,4.2
					C202.6,170.3,199.8,170.3,196.9,170.4z M214.7,165.2c1.9-1.5,3.8-3,5.7-4.6c3,0.1,6.1,0.2,9,0.2c-2,1.5-4,2.9-6.1,4.3
					C220.4,165.2,217.6,165.2,214.7,165.2z M232.4,160.1c2-1.5,3.9-3.1,5.8-4.7c3.1,0.1,6.2,0.2,9.3,0.2c-2,1.5-4.1,2.9-6.2,4.3
					C238.4,160.1,235.4,160.1,232.4,160.1z M250.3,155c1.3-1,2.6-2,3.9-3.1c0.7-0.5,1.3-1.1,2-1.7c3.2,0.1,6.3,0.2,9.5,0.3
					c-2.1,1.5-4.2,3-6.3,4.4C256.4,155,253.3,155,250.3,155z M268.3,148.6c-0.6,0.5-1.2,0.9-1.8,1.3c-3.2-0.1-6.4-0.2-9.6-0.3
					c2-1.7,3.9-3.4,5.9-5.2c3.4,0.2,6.7,0.5,10,0.6C271.3,146.3,269.8,147.5,268.3,148.6z M255.2,149.6c-3.3-0.1-6.6-0.3-9.9-0.6
					c1.9-1.8,3.7-3.7,5.6-5.6c2.4,0.2,4.7,0.5,7.1,0.7c1.1,0.1,2.1,0.2,3.2,0.2C259.2,146.1,257.2,147.9,255.2,149.6z M243.7,148.9
					c-0.3,0-0.5,0-0.8-0.1c-3.1-0.2-6.2-0.5-9.3-0.8c1.8-1.9,3.5-3.9,5.2-6c3.5,0.4,7,0.8,10.6,1.1
					C247.5,145.2,245.6,147.1,243.7,148.9z M231.9,148c-3.5-0.3-7-0.7-10.5-1.1c1.7-2,3.3-4.1,4.9-6.3c3.6,0.5,7.3,0.9,10.9,1.3
					C235.5,144,233.7,146,231.9,148z M219.8,146.7c-7.9-0.9-15.9-1.8-23.6-2.8c-41.4-5-84.3-10.3-125.2-0.2
					c-10.2,2.5-20.2,5.9-29.8,10.2c1-0.9,2-1.8,2.9-2.7c11.6-5.8,23.9-10.4,36.5-13.5c42.5-10.6,87.2-4.7,130.4,1
					c4.6,0.6,9.2,1.2,13.9,1.8C223.2,142.6,221.5,144.7,219.8,146.7z M71.1,144.3c40.8-10,83.6-4.8,125,0.3
					c7.6,0.9,15.4,1.9,23.2,2.7c-1.7,2-3.4,4-5.3,5.9c-10.9-0.9-21.9-2.2-32.6-3.3c-39.7-4.4-80.8-9-120,0.4
					c-8.4,2-16.8,4.7-24.8,7.9c1-1,2-2,3.1-3C49.8,150.7,60.3,147,71.1,144.3z M35.8,158.6c-1.4,0.6-2.7,1.1-4,1.7
					c1-0.9,1.9-1.8,2.9-2.7c1.3-0.7,2.7-1.3,4-1.9C37.8,156.6,36.8,157.6,35.8,158.6z M30.7,160.8c-1.2,0.5-2.4,1.1-3.6,1.6
					c0.8-0.7,1.6-1.5,2.5-2.2l0,0c1.2-0.7,2.5-1.3,3.8-2C32.5,159.1,31.6,159.9,30.7,160.8z M29.3,162.2c-1,0.9-1.9,1.9-2.9,2.9
					c-1.3,0.5-2.6,1.1-3.9,1.6c0.9-0.9,1.9-1.7,2.8-2.6C26.6,163.4,27.9,162.8,29.3,162.2z M21.2,167.2c-1.2,0.5-2.4,1-3.5,1.6
					c0.9-0.7,1.7-1.4,2.6-2.2c1.2-0.6,2.3-1.2,3.5-1.8C22.9,165.6,22,166.4,21.2,167.2z M19.6,168.7c-0.9,0.9-1.9,1.8-2.8,2.8
					c-1.3,0.5-2.6,1-3.9,1.6c0.9-0.9,1.9-1.7,2.8-2.5C17,169.9,18.3,169.3,19.6,168.7z M11.6,173.6c-1.1,0.5-2.2,1-3.3,1.5
					c0.8-0.7,1.6-1.3,2.3-2c1.1-0.6,2.3-1.2,3.4-1.7C13.2,172.1,12.4,172.9,11.6,173.6z M9.9,175.3c-0.9,0.9-1.8,1.7-2.7,2.6
					c-1.2,0.5-2.5,1-3.7,1.5c0.9-0.8,1.7-1.6,2.6-2.4C7.3,176.4,8.6,175.8,9.9,175.3z M5.7,179.4c-0.6,0.6-1.2,1.3-1.9,1.9
					c-0.4,0.4-0.7,0.8-1.1,1.2c-1.4,0.5-2.7,0.9-4,1.4c1-0.9,1.9-1.9,2.9-2.8C3,180.5,4.3,180,5.7,179.4z M-2.6,184.4
					c-1.2,0.5-2.5,0.9-3.7,1.4c0.9-0.8,1.8-1.6,2.8-2.5c1.2-0.6,2.4-1.1,3.7-1.6C-0.8,182.6-1.7,183.5-2.6,184.4z M-7.9,186.5
					c-1,0.4-2.1,0.9-3.1,1.3c0.7-0.6,1.5-1.3,2.2-1.9c1.1-0.5,2.1-1,3.2-1.6C-6.4,185.1-7.1,185.8-7.9,186.5z M-9.8,188.3
					c-0.3,0.3-0.6,0.6-1,0.9c-0.6,0.6-1.1,1.1-1.7,1.7c-1.2,0.4-2.4,0.9-3.6,1.4c0.9-0.8,1.8-1.6,2.6-2.4
					C-12.3,189.4-11.1,188.8-9.8,188.3z M-18,193c-1,0.4-2,0.8-3,1.2c0.8-0.6,1.5-1.3,2.3-1.9c1-0.5,2-1,3-1.5
					C-16.4,191.6-17.2,192.3-18,193z M-25.8,197.4c-0.7,0.7-1.4,1.3-2.2,2c-1,0.4-2,0.8-3,1.2c0.7-0.6,1.4-1.2,2.1-1.8
					C-27.8,198.4-26.8,197.9-25.8,197.4z M-30.1,201.4c-0.9,0.8-1.7,1.7-2.5,2.5c-1.2,0.4-2.3,0.8-3.5,1.2c0.9-0.8,1.7-1.5,2.6-2.3
					C-32.4,202.4-31.3,201.9-30.1,201.4z M-38.3,205.9c-1,0.4-1.9,0.7-2.9,1.1c0.6-0.5,1.1-0.9,1.7-1.4c0.1-0.1,0.3-0.2,0.4-0.3
					c1-0.5,2-0.9,3-1.3C-36.8,204.6-37.5,205.2-38.3,205.9z M-54.8,214.2c0.2-0.1,0.4-0.2,0.6-0.3c0.4-0.2,0.8-0.4,1.2-0.6
					c-0.4,0.4-0.9,0.7-1.3,1.1c-0.6,0.2-1.2,0.4-1.7,0.7C-55.6,214.8-55.2,214.5-54.8,214.2z M-49.3,211.6c0.9-0.4,1.9-0.8,2.8-1.2
					c-0.7,0.6-1.5,1.3-2.2,1.9c-0.9,0.3-1.9,0.7-2.8,1C-50.8,212.8-50.1,212.2-49.3,211.6z M-44,209.3c1.2-0.5,2.3-0.9,3.5-1.4
					c-0.9,0.8-1.8,1.6-2.6,2.5c-1.2,0.4-2.3,0.8-3.5,1.1C-45.7,210.8-44.8,210.1-44,209.3z M-38.4,207.1c1.3-0.5,2.6-1,3.9-1.4
					c-1,1-1.9,1.9-2.8,2.9c-1.3,0.4-2.6,0.8-3.9,1.2C-40.3,208.9-39.4,208-38.4,207.1z M-32.9,205.2c1.4-0.5,2.8-1,4.2-1.4
					c-1,1.1-2,2.2-3,3.3c-1.4,0.4-2.8,0.8-4.2,1.2C-34.9,207.2-33.9,206.2-32.9,205.2z M-27.4,203.4c1.5-0.5,3-0.9,4.5-1.4
					c-1,1.2-2.1,2.4-3.1,3.6c-1.5,0.4-3,0.7-4.5,1.1C-29.5,205.6-28.4,204.5-27.4,203.4z M-21.8,201.7c1.5-0.4,3.1-0.9,4.7-1.3
					c-1.1,1.3-2.1,2.6-3.2,3.9c-1.6,0.3-3.1,0.7-4.7,1.1C-23.9,204.1-22.8,202.9-21.8,201.7z M-16.2,200.2c1.6-0.4,3.2-0.8,4.9-1.2
					c-1.1,1.4-2.1,2.7-3.2,4.1c-1.6,0.3-3.3,0.6-4.9,1C-18.3,202.8-17.2,201.5-16.2,200.2z M-10.5,198.8c1.6-0.4,3.3-0.7,5-1
					c-1.1,1.4-2.1,2.9-3.2,4.4c-1.7,0.3-3.3,0.6-5,0.9C-12.7,201.6-11.6,200.2-10.5,198.8z M-4.9,197.7c0.1,0,0.2,0,0.3-0.1
					c1.6-0.3,3.2-0.6,4.8-0.9c-1.1,1.5-2.1,3-3.1,4.6c-1.7,0.2-3.5,0.5-5.2,0.8C-7,200.6-6,199.1-4.9,197.7z M0.8,196.6
					c1.7-0.3,3.5-0.6,5.2-0.8c-1,1.6-2.1,3.2-3.1,4.8c-1.8,0.2-3.5,0.4-5.3,0.7C-1.3,199.7-0.3,198.1,0.8,196.6z M6.5,195.7
					c24.7-3.5,50.1-3.2,74.7-2.9c13.3,0.2,27.1,0.4,40.5-0.1c13.9-0.4,27.1-1.5,39.6-3.2c-1.6,0.7-3.3,1.4-5,2.1
					c-15.4,2.7-32,4.5-49.8,5.3c-13.1,0.6-26.5,0.7-39.4,0.8c-21,0.1-42.5,0.3-63.7,2.7C4.4,198.9,5.4,197.3,6.5,195.7z
					 M121.6,191.7c-13.4,0.4-27.2,0.2-40.4,0.1c-24.4-0.3-49.4-0.6-73.9,2.8c1-1.6,2.1-3.1,3.2-4.6c27.9-4.8,56.8-4,84.8-3.1
					c13.6,0.4,27.7,0.8,41.5,0.6c11.6-0.2,22.7-0.8,33.3-1.9c-1.7,0.9-3.5,1.7-5.3,2.5C151.2,190,136.8,191.2,121.6,191.7z
					 M173.5,185.1c2-0.2,4.1-0.5,6.1-0.7c-1.5,0.7-3.1,1.4-4.7,2c-1.9,0.3-3.9,0.7-5.9,1C170.5,186.7,172,185.9,173.5,185.1z
					 M176,183.8c1.7-0.9,3.5-1.9,5.2-2.9c2.4-0.2,4.7-0.4,7.1-0.6c-1.8,0.9-3.6,1.8-5.4,2.7C180.6,183.2,178.3,183.5,176,183.8z
					 M183.1,179.7c1.9-1.1,3.7-2.3,5.5-3.5c2.6-0.1,5.2-0.2,7.8-0.4c-1.9,1.1-3.9,2.2-5.8,3.2C188.1,179.3,185.6,179.5,183.1,179.7z
					 M199.3,175.6c2.3-0.2,4.6-0.3,6.9-0.5c-1.9,1-3.8,1.9-5.8,2.8c-2.1,0.3-4.2,0.5-6.4,0.8C195.8,177.7,197.5,176.7,199.3,175.6z
					 M201,174.6c1.9-1.2,3.7-2.4,5.5-3.6c2.6-0.1,5.2-0.2,7.7-0.3c-2,1.1-4,2.2-6,3.3C205.9,174.2,203.4,174.4,201,174.6z
					 M217,170.5c2.5-0.2,4.9-0.3,7.3-0.5c-1.9,1-3.9,1.9-5.8,2.9c-2.3,0.3-4.6,0.6-7,0.8C213.3,172.6,215.2,171.6,217,170.5z
					 M218.6,169.5c2-1.2,3.9-2.4,5.7-3.7c2.7-0.1,5.4-0.2,8.1-0.3c-2,1.2-4,2.3-6.1,3.4C223.7,169.2,221.2,169.4,218.6,169.5z
					 M234.9,165.4c2.5-0.1,4.9-0.3,7.4-0.5c-2,1-4,2-6.1,3c-2.3,0.3-4.6,0.5-6.9,0.8C231.2,167.6,233.1,166.5,234.9,165.4z
					 M236.4,164.5c2-1.2,3.9-2.5,5.9-3.8c2.8-0.1,5.5-0.2,8.2-0.3c-2.1,1.2-4.2,2.4-6.4,3.5C241.6,164.2,239,164.3,236.4,164.5z
					 M252.9,160.3c2.6-0.1,5.2-0.3,7.8-0.5c-2.1,1.1-4.2,2.1-6.3,3.1c-2.4,0.3-4.9,0.5-7.3,0.8C249,162.6,250.9,161.5,252.9,160.3z
					 M254.3,159.5c2.1-1.3,4.1-2.5,6.1-3.9c2.9,0,5.7-0.1,8.5-0.2c-2.1,1.2-4.3,2.4-6.5,3.5C259.7,159.2,257,159.4,254.3,159.5z
					 M271.1,155.3c2.7-0.1,5.4-0.3,8-0.5c-2.1,1.1-4.3,2.1-6.5,3.1c-2.5,0.3-5.1,0.5-7.6,0.7C267,157.6,269.1,156.5,271.1,155.3z
					 M272.3,154.6c2.1-1.3,4.2-2.6,6.2-3.9c2.9,0,5.9-0.1,8.8-0.2c-2.2,1.2-4.4,2.4-6.6,3.6C277.9,154.3,275.1,154.4,272.3,154.6z
					 M289.4,150.3c2.8-0.1,5.5-0.3,8.3-0.4c-2.2,1.1-4.4,2.2-6.6,3.2c-2.6,0.3-5.2,0.5-7.9,0.7C285.2,152.7,287.3,151.6,289.4,150.3
					z M290.5,149.7c2.2-1.3,4.3-2.6,6.4-4c3,0,6-0.1,9-0.2c-2.2,1.3-4.5,2.5-6.8,3.7C296.2,149.4,293.4,149.5,290.5,149.7z
					 M297.9,143.8c-0.6,0.4-1.3,0.9-2,1.3c-3.1,0-6.3,0-9.5-0.1c2.1-1.6,4.1-3.2,6.2-4.9c3.3,0.2,6.6,0.3,9.9,0.4
					C301,141.7,299.5,142.7,297.9,143.8z M284.8,145c-3.2-0.1-6.5-0.2-9.8-0.3c2-1.7,4-3.5,5.9-5.3c3.4,0.3,6.8,0.5,10.2,0.7
					C289,141.7,286.9,143.4,284.8,145z M273.4,144.5c-3.3-0.2-6.7-0.4-10.1-0.6c1.9-1.8,3.8-3.7,5.6-5.7c1.4,0.1,2.8,0.3,4.2,0.4
					c2.1,0.2,4.2,0.4,6.3,0.5C277.4,141,275.4,142.8,273.4,144.5z M261.7,143.8c-1.2-0.1-2.5-0.2-3.7-0.3c-2.2-0.2-4.4-0.4-6.6-0.6
					c1.7-1.8,3.4-3.7,5-5.6c0.1-0.1,0.2-0.3,0.3-0.4c3.6,0.4,7.2,0.9,10.7,1.2C265.6,140.1,263.7,142,261.7,143.8z M240.4,138.2
					c-0.9,1.1-1.8,2.2-2.7,3.3c-3.7-0.4-7.3-0.9-11-1.3c1.6-2.2,3.1-4.4,4.6-6.6c3.8,0.5,7.6,1.1,11.5,1.6
					C242,136.1,241.2,137.2,240.4,138.2z M225.2,139.9c-4.8-0.6-9.5-1.2-14.2-1.8c-43.2-5.7-87.9-11.6-130.6-1
					c-11.9,3-23.6,7.2-34.7,12.6c0.9-0.8,1.8-1.6,2.7-2.4c13.1-7.1,27.1-12.7,41.5-16.4c44.3-11.2,90.9-4.7,135.9,1.7
					c1.3,0.2,2.6,0.4,3.9,0.6C228.3,135.5,226.8,137.8,225.2,139.9z M44.6,150.3L44.6,150.3c-1.2,0.6-2.2,1.1-3.3,1.7
					c0.8-0.6,1.5-1.2,2.3-1.8c1.1-0.7,2.3-1.3,3.4-2C46.2,148.9,45.4,149.6,44.6,150.3z M42.9,151.8c-0.9,0.8-1.8,1.7-2.8,2.6
					c-1.2,0.6-2.5,1.1-3.7,1.7c0.3-0.2,0.5-0.5,0.8-0.7c0.6-0.5,1.3-1.1,1.9-1.6C40.4,153.1,41.7,152.4,42.9,151.8z M37,155.1
					c-0.6,0.5-1.2,1.1-1.8,1.6c-1,0.5-2.1,1-3.1,1.5c0.7-0.6,1.4-1.1,2.1-1.7c1.1-0.6,2.1-1.2,3.2-1.8C37.3,154.8,37.1,155,37,155.1
					z M27.8,161.3c-0.7,0.6-1.4,1.2-2.2,1.9c-1,0.5-1.9,1-2.9,1.4c0.7-0.5,1.4-1.1,2-1.6C25.8,162.4,26.8,161.8,27.8,161.3z
					 M16.1,169.5c-0.9,0.4-1.8,0.9-2.7,1.3c0.4-0.3,0.7-0.6,1.1-0.9c0.3-0.2,0.5-0.4,0.8-0.6c1-0.5,1.9-1.1,2.9-1.6
					C17.4,168.4,16.7,168.9,16.1,169.5z M8.3,174.3c-0.6,0.5-1.3,1.1-1.9,1.6c-0.8,0.4-1.7,0.8-2.5,1.2c0.6-0.5,1.2-0.9,1.8-1.4
					C6.5,175.3,7.4,174.8,8.3,174.3z M4.2,177.9c-0.8,0.7-1.6,1.4-2.3,2.2c-1.1,0.5-2.2,0.9-3.2,1.4c0.8-0.7,1.5-1.3,2.3-1.9
					C2.1,178.9,3.2,178.4,4.2,177.9z M-3.3,182.3c-0.8,0.4-1.6,0.7-2.4,1.1c0.5-0.4,1-0.8,1.6-1.2c0.8-0.5,1.6-0.9,2.5-1.4
					C-2.2,181.4-2.7,181.8-3.3,182.3z M-8.5,184.8c-0.2,0.1-0.5,0.2-0.7,0.4c0,0,0.1,0,0.1-0.1c0.3-0.2,0.6-0.4,1-0.6
					C-8.2,184.6-8.4,184.7-8.5,184.8z M-11.5,187.3c-0.6,0.5-1.1,1-1.7,1.4c-0.7,0.3-1.4,0.6-2.2,1c0.5-0.4,1-0.8,1.6-1.2
					C-13,188.1-12.3,187.7-11.5,187.3z M-18.4,191.2c-0.1,0.1-0.2,0.1-0.3,0.2c0.2-0.1,0.3-0.2,0.5-0.3
					C-18.3,191.1-18.4,191.2-18.4,191.2z M-21.7,193.9c-0.5,0.5-1.1,0.9-1.6,1.4c-0.7,0.3-1.4,0.6-2.1,0.9c0.5-0.4,1-0.8,1.5-1.1
					C-23.1,194.6-22.4,194.3-21.7,193.9z M-28.6,197.7c-0.1,0-0.1,0.1-0.2,0.1C-28.7,197.7-28.6,197.7-28.6,197.7L-28.6,197.7z
					 M-32,200.4c-0.2,0.2-0.5,0.4-0.7,0.6s-0.5,0.4-0.7,0.6c-0.6,0.3-1.3,0.5-1.9,0.8c0.5-0.3,0.9-0.7,1.4-1
					C-33.3,201.1-32.7,200.8-32,200.4z M-65.7,220.6c0.6-0.3,1.3-0.6,1.9-0.9c-0.4,0.3-0.8,0.7-1.2,1c-0.6,0.2-1.2,0.4-1.8,0.7
					C-66.4,221.1-66.1,220.8-65.7,220.6z M-60,218c0.9-0.4,1.9-0.8,2.8-1.2c-0.7,0.6-1.4,1.2-2.1,1.8c-1,0.3-1.9,0.7-2.8,1
					C-61.4,219.1-60.7,218.5-60,218z M-54.4,215.7c1.1-0.4,2.3-0.9,3.4-1.3c-0.9,0.8-1.8,1.6-2.6,2.5c-1.2,0.4-2.3,0.7-3.4,1.1
					C-56.2,217.2-55.3,216.4-54.4,215.7z M-48.9,213.6c1.3-0.5,2.6-1,4-1.4c-1,1-2,1.9-2.9,2.9c-1.3,0.4-2.6,0.8-3.9,1.1
					C-50.8,215.4-49.8,214.5-48.9,213.6z M-43.2,211.7c1.4-0.5,2.8-0.9,4.2-1.3c-1,1.1-2,2.2-3,3.3c-1.4,0.4-2.9,0.7-4.3,1.1
					C-45.3,213.7-44.2,212.7-43.2,211.7z M-37.5,209.9c1.5-0.4,3-0.9,4.5-1.3c-1.1,1.2-2.1,2.4-3.1,3.6c-1.5,0.3-3,0.7-4.5,1.1
					C-39.7,212.1-38.6,211-37.5,209.9z M-31.9,208.3c1.5-0.4,3.1-0.8,4.7-1.2c-1.1,1.3-2.1,2.6-3.2,3.9c-1.6,0.3-3.2,0.7-4.7,1
					C-34.1,210.7-33,209.5-31.9,208.3z M-26.2,206.8c1.6-0.4,3.2-0.7,4.8-1.1c-1.1,1.4-2.1,2.7-3.2,4.1c-1.6,0.3-3.3,0.6-4.9,0.9
					C-28.3,209.5-27.3,208.1-26.2,206.8z M-14.8,204.4c0.2,0,0.5-0.1,0.7-0.1c1.5-0.3,2.9-0.5,4.4-0.8c-1.1,1.5-2.1,3-3.1,4.5
					c-1.7,0.2-3.4,0.5-5.2,0.7C-16.9,207.3-15.8,205.8-14.8,204.4z M-9,203.4c1.7-0.3,3.5-0.5,5.2-0.8c-1,1.6-2.1,3.1-3.1,4.7
					c-1.8,0.2-3.6,0.4-5.3,0.7C-11.1,206.4-10.1,204.9-9,203.4z M-3.2,202.5c1.8-0.2,3.6-0.5,5.4-0.7c-1,1.6-2,3.2-3,4.8
					c-1.8,0.2-3.6,0.4-5.4,0.6C-5.3,205.6-4.3,204.1-3.2,202.5z M2.5,201.8c21.4-2.5,43.3-2.7,64.5-2.8c13-0.1,26.4-0.2,39.4-0.8
					c15.8-0.7,30.6-2.2,44.5-4.4c-1.1,0.4-2.1,0.8-3.2,1.2c-17.2,3.6-36,6.1-56.5,7.4c-12.7,0.8-25.8,1.2-38.4,1.5
					c-17.6,0.5-35.6,1-53.4,2.7C0.5,205,1.5,203.4,2.5,201.8z M157.2,192.8c0.4-0.1,0.9-0.2,1.3-0.2c-0.6,0.1-1.2,0.3-1.7,0.4
					C156.9,192.9,157.1,192.8,157.2,192.8z M165.7,189c1.5-0.2,3-0.4,4.5-0.7c-1.3,0.5-2.6,1-3.9,1.5c-1.4,0.3-2.8,0.6-4.2,0.9
					C163.3,190.1,164.5,189.6,165.7,189z M180.5,185.4c1.1-0.5,2.3-1,3.4-1.6c1.3-0.2,2.7-0.4,4-0.6c-1.2,0.5-2.5,1-3.8,1.4
					C182.9,184.9,181.7,185.2,180.5,185.4z M176.9,187.2c-0.8,0.3-1.5,0.5-2.3,0.7c0.5-0.2,0.9-0.4,1.4-0.6
					C176.3,187.3,176.6,187.3,176.9,187.2z M187,182.3c1.6-0.8,3.1-1.6,4.7-2.4c1.9-0.2,3.8-0.4,5.7-0.6c-1.7,0.8-3.4,1.5-5.1,2.2
					C190.5,181.8,188.8,182,187,182.3z M201.4,178.8c1.7-0.2,3.3-0.5,4.9-0.7c-1.3,0.5-2.7,1-4.1,1.6c-1.6,0.3-3.1,0.6-4.7,0.9
					C198.9,179.9,200.2,179.4,201.4,178.8z M204.4,177.4c1.7-0.8,3.4-1.7,5-2.6c2.1-0.2,4.3-0.4,6.4-0.7c-1.8,0.8-3.6,1.6-5.4,2.3
					C208.4,176.8,206.4,177.1,204.4,177.4z M219.6,173.6c1.6-0.2,3.1-0.4,4.7-0.6c-1.6,0.6-3.2,1.2-4.9,1.8
					c-1.4,0.3-2.7,0.5-4.1,0.8C216.7,174.9,218.1,174.3,219.6,173.6z M222.2,172.4c1.7-0.9,3.5-1.7,5.1-2.6c2.1-0.2,4.2-0.4,6.2-0.6
					c-1.9,0.8-3.7,1.6-5.7,2.4C226,171.8,224.1,172.1,222.2,172.4z M237.2,168.6c1.8-0.2,3.6-0.5,5.4-0.7c-1.6,0.6-3.3,1.3-5,1.9
					c-1.7,0.3-3.4,0.6-5,0.9C234.1,170,235.6,169.4,237.2,168.6z M239.7,167.5c1.9-0.9,3.7-1.8,5.5-2.8c2.3-0.2,4.6-0.4,6.8-0.7
					c-1.9,0.9-3.9,1.7-5.9,2.5C244,166.9,241.8,167.2,239.7,167.5z M255.3,163.6c2-0.2,3.9-0.5,5.8-0.7c-1.7,0.7-3.5,1.3-5.3,2
					c-1.8,0.3-3.6,0.7-5.4,1C252.1,165.1,253.7,164.4,255.3,163.6z M257.6,162.5c1.9-0.9,3.8-1.9,5.7-2.9c2.4-0.2,4.8-0.4,7.1-0.7
					c-2,0.9-4,1.8-6.1,2.6C262.1,161.9,259.9,162.2,257.6,162.5z M273.5,158.7c2.1-0.2,4.1-0.5,6.2-0.8c-1.9,0.7-3.7,1.4-5.6,2.1
					c-1.9,0.3-3.8,0.7-5.7,1C270.1,160.2,271.8,159.4,273.5,158.7z M275.7,157.6c2-1,4-2,5.9-3c2.5-0.2,4.9-0.4,7.4-0.6
					c-2.1,0.9-4.2,1.8-6.3,2.7C280.3,157.1,278,157.4,275.7,157.6z M291.8,153.7c2.2-0.2,4.4-0.5,6.6-0.8c-2,0.8-3.9,1.5-5.9,2.2
					c-2,0.4-4.1,0.7-6.2,1C288.2,155.4,290,154.6,291.8,153.7z M293.8,152.8c2.1-1,4.1-2,6.1-3.1c2.6-0.2,5.2-0.4,7.7-0.6
					c-2.2,1-4.3,1.9-6.6,2.8C298.7,152.2,296.3,152.5,293.8,152.8z M301.4,149c2.2-1.2,4.3-2.4,6.4-3.6c2.9-0.1,5.7-0.2,8.6-0.4
					c-2.3,1.1-4.5,2.2-6.9,3.3C306.8,148.6,304.1,148.8,301.4,149z M318.6,144.9c2.7-0.2,5.3-0.4,8-0.6c-2.2,1-4.5,1.9-6.8,2.8
					c-2.5,0.3-5,0.6-7.6,0.9C314.3,147,316.5,146,318.6,144.9z M319.9,144.2c2.2-1.2,4.5-2.4,6.6-3.7c3-0.1,5.9-0.2,8.8-0.4
					c-2.3,1.2-4.7,2.3-7.1,3.3C325.5,143.8,322.7,144,319.9,144.2z M337.3,140.1c2.8-0.2,5.6-0.4,8.3-0.6c-2.3,1-4.7,2-7.1,2.9
					c-2.6,0.3-5.2,0.6-7.9,0.9C333,142.3,335.2,141.2,337.3,140.1z M342.4,136.5c-1.9,1.1-3.9,2.1-5.9,3.1c-3,0.2-6,0.3-9,0.4
					c0.2-0.1,0.4-0.2,0.6-0.3c2.1-1.2,4.1-2.5,6.1-3.8c3.2,0,6.4,0,9.5-0.1C343.2,136.1,342.8,136.3,342.4,136.5z M327.6,138.9
					c-0.7,0.4-1.3,0.8-2,1.1c-3.1,0.1-6.2,0.1-9.4,0.1c2.2-1.5,4.4-3,6.5-4.5c3.3,0.1,6.6,0.2,9.8,0.2
					C330.9,136.9,329.2,138,327.6,138.9z M314.5,140.2c-3.2,0-6.4,0-9.7-0.1c2.1-1.6,4.2-3.2,6.3-4.9c3.4,0.2,6.8,0.4,10.1,0.5
					C319,137.2,316.8,138.8,314.5,140.2z M303.2,140.1c-3.3-0.1-6.6-0.2-10-0.4c2.1-1.7,4.1-3.5,6-5.3c3.5,0.3,7,0.5,10.4,0.8
					C307.5,136.8,305.4,138.5,303.2,140.1z M291.7,139.6c-3.4-0.2-6.8-0.4-10.3-0.7c1.7-1.6,3.4-3.3,5.1-5c0.2-0.2,0.5-0.5,0.7-0.7
					c0.4,0,0.7,0.1,1.1,0.1c3.2,0.3,6.4,0.6,9.6,0.9C295.8,136,293.8,137.8,291.7,139.6z M285.7,133.1c-1.9,1.9-3.8,3.8-5.8,5.6
					c-2.2-0.2-4.5-0.4-6.8-0.6c-1.3-0.1-2.5-0.3-3.8-0.4c0.7-0.7,1.4-1.5,2.1-2.2c1.2-1.3,2.3-2.6,3.4-3.9c3.7,0.5,7.3,0.9,11,1.3
					C285.8,133,285.7,133.1,285.7,133.1z M270.6,134.8c-0.9,1-1.8,1.9-2.7,2.9c-3.6-0.4-7.2-0.8-10.8-1.2c1.7-2.1,3.4-4.2,5.1-6.4
					c3.8,0.5,7.5,1,11.3,1.5C272.5,132.6,271.6,133.7,270.6,134.8z M255.7,136.2c-3.7-0.5-7.4-0.9-11.1-1.4c1.6-2.2,3.2-4.4,4.7-6.7
					c3.8,0.6,7.7,1.1,11.6,1.7C259.2,132,257.4,134.1,255.7,136.2z M243.1,134.6c-3.9-0.5-7.7-1.1-11.5-1.6c1.5-2.3,2.9-4.6,4.3-6.9
					c1.7,0.3,3.4,0.5,5.2,0.8c2.3,0.3,4.5,0.7,6.8,1C246.3,130.2,244.7,132.4,243.1,134.6z M230.1,132.8c-1.4-0.2-2.8-0.4-4.2-0.6
					c-45.1-6.4-91.7-13-136.1-1.7c-13.6,3.5-26.9,8.6-39.3,15.2c0.8-0.6,1.6-1.3,2.4-1.9c14.5-8.6,30.2-15.2,46.5-19.4
					c44-11.3,90.1-5.2,135,1.5C233.1,128.2,231.6,130.5,230.1,132.8z M99.4,123.9c-15.2,3.9-29.9,9.9-43.6,17.7
					c0.6-0.5,1.3-1,1.9-1.4c15.8-10.1,33.1-17.7,51.2-22.4c42.2-11,86.4-6.1,129.7,0.5c-1.3,2.4-2.6,4.9-3.9,7.2
					C189.7,118.7,143.5,112.5,99.4,123.9z M50.9,145c-0.6,0.5-1.2,1-1.8,1.5c-0.8,0.4-1.5,0.8-2.3,1.3c0.5-0.4,1-0.7,1.5-1.1
					C49.1,146.1,50,145.5,50.9,145z M41.1,151.6c-0.5,0.4-1,0.8-1.5,1.2c-0.7,0.4-1.4,0.7-2,1.1c0.4-0.3,0.9-0.6,1.3-0.9
					C39.6,152.6,40.3,152.1,41.1,151.6z M31.4,158.3c-0.4,0.3-0.9,0.7-1.3,1c-0.6,0.3-1.1,0.6-1.7,0.9c0.3-0.2,0.6-0.5,1-0.7
					C30,159.1,30.7,158.7,31.4,158.3z M21.5,164.8c-0.3,0.3-0.6,0.5-0.9,0.8c-0.5,0.3-1,0.5-1.5,0.8c0.3-0.2,0.5-0.4,0.8-0.6
					C20.4,165.5,21,165.2,21.5,164.8z M1.8,178c-0.2,0.2-0.4,0.3-0.6,0.5c-0.3,0.2-0.6,0.3-1,0.5c0.1-0.1,0.2-0.1,0.3-0.2
					C1,178.5,1.4,178.2,1.8,178z M-70.8,224.2c0.4-0.2,0.9-0.4,1.3-0.6c0.5-0.2,1-0.4,1.5-0.6c-0.7,0.6-1.5,1.2-2.2,1.8
					c-0.9,0.3-1.9,0.6-2.8,0.9C-72.2,225.2-71.5,224.7-70.8,224.2z M-65.1,222c1.1-0.4,2.2-0.8,3.4-1.2c-0.9,0.8-1.7,1.6-2.6,2.4
					c-1.2,0.3-2.3,0.7-3.4,1C-66.9,223.4-66,222.7-65.1,222z M-59.4,220c1.2-0.4,2.5-0.8,3.8-1.2c-1,1-2,1.9-3,2.9
					c-1.3,0.3-2.5,0.7-3.8,1C-61.4,221.7-60.4,220.9-59.4,220z M-53.8,218.2c1.4-0.4,2.8-0.8,4.3-1.3c-1,1.1-2.1,2.2-3.1,3.3
					c-1.4,0.3-2.9,0.7-4.3,1C-55.8,220.2-54.8,219.2-53.8,218.2z M-47.9,216.5c1.5-0.4,2.9-0.8,4.4-1.2c-1.1,1.2-2.1,2.4-3.1,3.6
					c-1.5,0.3-3,0.6-4.5,1C-50.1,218.7-49,217.6-47.9,216.5z M-42.2,214.9c1.5-0.4,3.1-0.8,4.7-1.1c-1.1,1.3-2.1,2.6-3.2,3.9
					c-1.6,0.3-3.1,0.6-4.7,0.9C-44.4,217.4-43.3,216.1-42.2,214.9z M-36.4,213.5c1.6-0.4,3.2-0.7,4.8-1c-1.1,1.4-2.1,2.7-3.2,4.1
					c-1.6,0.3-3.3,0.6-4.9,0.9C-38.6,216.1-37.5,214.8-36.4,213.5z M-24.8,211.2c0.4-0.1,0.9-0.2,1.3-0.2c1.3-0.2,2.6-0.4,3.8-0.6
					c-1.1,1.5-2.1,3-3.1,4.5c-1.7,0.2-3.5,0.5-5.2,0.8C-27,214.1-25.9,212.6-24.8,211.2z M-18.9,210.2c1.7-0.3,3.5-0.5,5.3-0.8
					c-1,1.5-2.1,3.1-3.1,4.6c-1.8,0.2-3.6,0.4-5.3,0.7C-21.1,213.2-20,211.7-18.9,210.2z M-13.1,209.3c1.8-0.2,3.6-0.5,5.4-0.7
					c-1,1.6-2,3.2-3,4.8c-1.8,0.2-3.7,0.4-5.5,0.6C-15.2,212.4-14.1,210.8-13.1,209.3z M-7.2,208.6c1.8-0.2,3.7-0.4,5.5-0.6
					c-1,1.6-1.9,3.2-2.9,4.8c-1.9,0.2-3.7,0.4-5.6,0.5C-9.2,211.7-8.2,210.1-7.2,208.6z M-1.3,207.9c18.1-1.8,36.4-2.3,54.3-2.8
					c12.6-0.3,25.7-0.7,38.4-1.5c17.1-1.1,32.9-3,47.7-5.7c-0.5,0.1-0.9,0.3-1.3,0.4c-18.3,4.4-38.8,7.5-61.6,9.4
					c-12.4,1-25.2,1.6-37.5,2.3c-14.1,0.7-28.5,1.4-42.8,2.7C-3.2,211.1-2.3,209.5-1.3,207.9z M192,182.9c0.5-0.2,0.9-0.4,1.4-0.6
					c0.8-0.1,1.5-0.3,2.3-0.4c-0.3,0.1-0.7,0.2-1,0.3C193.8,182.5,192.9,182.7,192,182.9z M209.6,178c0.6-0.3,1.2-0.5,1.8-0.8
					c0.6-0.1,1.2-0.2,1.7-0.3c-0.9,0.3-1.7,0.6-2.6,0.9C210.2,177.9,209.9,177.9,209.6,178z M226.3,173.4c0.9-0.4,1.8-0.7,2.8-1.1
					c1-0.2,2-0.3,3-0.5c-1.1,0.4-2.1,0.7-3.2,1C228,173,227.1,173.2,226.3,173.4z M243.9,168.5c1-0.4,2.1-0.8,3.1-1.3
					c1.1-0.2,2.3-0.4,3.4-0.6c-1.1,0.4-2.3,0.7-3.4,1.1C246,168,245,168.3,243.9,168.5z M261.8,163.7c1.2-0.5,2.3-0.9,3.5-1.4
					c1.3-0.2,2.6-0.4,3.9-0.6c-1.3,0.4-2.6,0.8-3.9,1.2C264.1,163.2,263,163.4,261.8,163.7z M279.5,158.9c1.3-0.5,2.6-1,3.9-1.6
					c1.5-0.2,3-0.5,4.6-0.7c-1.4,0.5-2.9,0.9-4.3,1.4C282.3,158.4,280.9,158.6,279.5,158.9z M297.7,154.1c1.4-0.5,2.9-1.1,4.3-1.7
					c1.6-0.2,3.3-0.5,4.9-0.7c-1.6,0.5-3.2,1-4.8,1.5C300.7,153.6,299.2,153.9,297.7,154.1z M304.6,151.4c1.9-0.8,3.9-1.7,5.8-2.5
					c2.3-0.2,4.6-0.5,6.9-0.8c-2.1,0.8-4.1,1.5-6.3,2.3C308.9,150.7,306.8,151.1,304.6,151.4z M320.6,147.7c1.8-0.2,3.6-0.5,5.4-0.8
					c-1.7,0.6-3.5,1.1-5.3,1.6c-1.6,0.3-3.2,0.7-4.8,1C317.5,148.9,319.1,148.3,320.6,147.7z M323,146.7c2.1-0.9,4.1-1.7,6.1-2.6
					c2.4-0.2,4.8-0.5,7.2-0.8c-2.2,0.8-4.4,1.6-6.6,2.4C327.5,146,325.3,146.4,323,146.7z M339.5,142.9c2-0.3,3.9-0.5,5.8-0.8
					c-1.9,0.6-3.8,1.2-5.8,1.7c-1.8,0.4-3.5,0.7-5.3,1C336,144.2,337.7,143.5,339.5,142.9z M341.6,142c2.1-0.9,4.2-1.8,6.3-2.7
					c2.6-0.2,5.1-0.5,7.6-0.8c-2.2,0.8-4.5,1.6-6.8,2.4C346.5,141.3,344.1,141.7,341.6,142z M358.4,138.2c2.2-0.3,4.3-0.6,6.5-0.9
					c-2,0.6-4,1.2-6,1.8c-2,0.4-4,0.8-6.1,1.2C354.7,139.6,356.5,138.9,358.4,138.2z M360.4,137.5c2.3-0.9,4.5-1.8,6.7-2.8
					c2.7-0.2,5.3-0.5,8-0.7c-2.4,0.9-4.8,1.7-7.3,2.5C365.3,136.8,362.9,137.1,360.4,137.5z M377.7,133.6c2.3-0.3,4.5-0.5,6.7-0.8
					c-2.1,0.6-4.2,1.3-6.3,1.9c-2.1,0.4-4.2,0.8-6.3,1.1C373.8,135.1,375.7,134.4,377.7,133.6z M376.8,133.3
					c-2.8,0.3-5.6,0.6-8.4,0.8c1.3-0.6,2.6-1.2,3.9-1.8c1.1-0.5,2.1-1,3.2-1.5c3-0.1,6-0.3,9-0.5
					C381.9,131.3,379.4,132.3,376.8,133.3z M372,131.7c-1.9,0.9-3.8,1.8-5.8,2.6c-2.9,0.2-5.9,0.4-8.9,0.6c0.1,0,0.1-0.1,0.2-0.1
					c2.3-1.2,4.6-2.4,6.8-3.7c3.2-0.1,6.3-0.1,9.4-0.3C373.2,131.1,372.6,131.4,372,131.7z M357.2,134.1c-0.6,0.3-1.2,0.6-1.8,0.9
					c-3.1,0.2-6.2,0.3-9.3,0.3c2.3-1.3,4.7-2.7,6.9-4.2c3.3,0,6.5,0,9.7,0C360.9,132.2,359.1,133.2,357.2,134.1z M344.4,135.4
					c-3.2,0.1-6.4,0.1-9.6,0.1c2.3-1.5,4.5-3,6.7-4.6c3.4,0.1,6.7,0.2,10,0.3C349.2,132.6,346.8,134,344.4,135.4z M333.2,135.4
					c-3.3,0-6.6-0.1-9.9-0.2c2.2-1.6,4.3-3.3,6.4-5c3.5,0.2,6.9,0.4,10.3,0.6C337.8,132.4,335.5,134,333.2,135.4z M321.8,135.2
					c-3.4-0.1-6.8-0.3-10.2-0.5c1.7-1.4,3.3-2.8,4.9-4.3c0.4-0.4,0.8-0.8,1.2-1.1c3.6,0.3,7.1,0.6,10.6,0.8
					C326.2,131.9,324,133.6,321.8,135.2z M315.9,129.7c-1.9,1.7-3.8,3.3-5.8,4.9c-3.5-0.2-7-0.5-10.5-0.8c0.6-0.6,1.2-1.1,1.9-1.7
					c1.4-1.3,2.7-2.7,4.1-4.1c3.7,0.4,7.3,0.8,10.9,1.1C316.3,129.4,316.1,129.6,315.9,129.7z M300.8,131.4
					c-0.8,0.8-1.7,1.6-2.5,2.4c-3.3-0.3-6.6-0.6-9.9-1c-0.2,0-0.5-0.1-0.8-0.1c1.9-2,3.8-4.1,5.6-6.2c3.4,0.5,6.9,0.9,10.3,1.3
					c0.3,0,0.6,0.1,0.9,0.1C303.1,129.1,302,130.3,300.8,131.4z M286.2,132.6c-3.7-0.4-7.3-0.8-11-1.3c1.8-2.1,3.5-4.3,5.2-6.5
					c3.8,0.6,7.6,1.1,11.4,1.6C290,128.5,288.1,130.6,286.2,132.6z M273.8,131.1c-3.8-0.5-7.5-1-11.3-1.5c1.6-2.2,3.2-4.5,4.7-6.8
					c3.9,0.6,7.8,1.2,11.8,1.8C277.3,126.8,275.6,129,273.8,131.1z M261.1,129.3c-3.9-0.6-7.8-1.1-11.6-1.7c1.5-2.3,2.9-4.7,4.3-7.1
					c0.8,0.1,1.6,0.3,2.5,0.4c3.2,0.5,6.4,1,9.6,1.5C264.4,124.8,262.8,127.1,261.1,129.3z M248.1,127.4c-2.3-0.4-4.7-0.7-7-1.1
					c-1.7-0.2-3.3-0.5-5-0.8c1.4-2.4,2.7-4.8,3.9-7.2c4.2,0.6,8.3,1.3,12.5,2C251.1,122.8,249.6,125.1,248.1,127.4z M118.4,111
					c40.4-10.7,82.5-7,124-0.6c-1.1,2.5-2.3,5-3.6,7.4c-43.4-6.7-87.6-11.6-130-0.5c-16.2,4.2-31.8,10.8-46.2,19.3
					C79.6,125,98.5,116.3,118.4,111z M-88.8,233.3c0.4-0.3,0.8-0.5,1.3-0.8c0.6-0.2,1.1-0.5,1.7-0.7c-0.4,0.3-0.9,0.7-1.3,1
					C-87.7,232.9-88.2,233.1-88.8,233.3z M-84,231.8c0.7-0.5,1.4-1,2.2-1.6c0.9-0.3,1.9-0.7,2.8-1c-0.7,0.6-1.5,1.2-2.2,1.8
					C-82.1,231.3-83.1,231.5-84,231.8z M-78.8,230.4c0.9-0.7,1.8-1.5,2.8-2.2c1.1-0.4,2.3-0.8,3.4-1.1c-0.9,0.8-1.8,1.6-2.7,2.4
					C-76.4,229.7-77.6,230.1-78.8,230.4z M-73.3,229c1-0.9,2-1.8,3.1-2.7c1.3-0.4,2.5-0.8,3.8-1.2c-1,1-2,1.9-3,2.9
					C-70.7,228.3-72,228.6-73.3,229z M-67.6,227.6c1.1-1,2.1-2,3.2-3c1.4-0.4,2.7-0.8,4.1-1.1c-1.1,1.1-2.1,2.2-3.2,3.3
					C-64.8,227-66.2,227.3-67.6,227.6z M-61.9,226.4c1.1-1.1,2.2-2.3,3.3-3.4c1.5-0.4,3-0.8,4.5-1.1c-1.1,1.2-2.2,2.4-3.2,3.6
					C-58.9,225.8-60.4,226.1-61.9,226.4z M-56.1,225.2c1.1-1.3,2.2-2.5,3.4-3.7c1.5-0.4,3.1-0.7,4.6-1.1c-1.1,1.3-2.2,2.6-3.2,3.9
					C-52.9,224.6-54.5,224.9-56.1,225.2z M-50.2,224.2c1.1-1.3,2.2-2.7,3.3-4c1.6-0.3,3.2-0.7,4.9-1c-1.1,1.4-2.2,2.7-3.2,4.1
					C-46.9,223.6-48.5,223.9-50.2,224.2z M-44.2,223.2c1.1-1.4,2.2-2.8,3.3-4.2c1.7-0.3,3.3-0.6,5-0.9c-1.1,1.4-2.1,2.9-3.2,4.3
					C-40.8,222.7-42.5,222.9-44.2,223.2z M-38.3,222.3c1.1-1.5,2.1-2.9,3.2-4.3c0.7-0.1,1.4-0.2,2.1-0.4c1-0.2,2.1-0.3,3.1-0.5
					c-1.1,1.5-2.1,3-3.1,4.5C-34.7,221.8-36.5,222-38.3,222.3z M-32.2,221.5c1-1.5,2.1-3,3.2-4.5c1.8-0.3,3.5-0.5,5.3-0.8
					c-1,1.5-2,3.1-3.1,4.6C-28.6,221-30.4,221.2-32.2,221.5z M-26.2,220.7c1-1.5,2-3.1,3.1-4.6c1.8-0.2,3.6-0.5,5.4-0.7
					c-1,1.5-2,3.1-3,4.6C-22.5,220.3-24.3,220.5-26.2,220.7z M-20,220c1-1.6,2-3.1,3-4.6c1.8-0.2,3.7-0.4,5.5-0.6
					c-1,1.5-1.9,3.1-2.8,4.7C-16.3,219.6-18.2,219.8-20,220z M-13.9,219.4c0.9-1.6,1.9-3.1,2.8-4.7c1.9-0.2,3.8-0.4,5.7-0.6
					c-0.9,1.6-1.8,3.1-2.7,4.7C-10.1,219-12,219.2-13.9,219.4z M61,213.1c-12.3,1.2-24.9,2.2-37.1,3.1c-10.5,0.8-21,1.6-31.6,2.6
					c0.9-1.6,1.8-3.1,2.7-4.7c14.6-1.3,29.3-2.1,43.7-2.8c12.3-0.6,25.1-1.2,37.6-2.3c15-1.2,29-3,42-5.3
					C102,207.7,83.1,210.9,61,213.1z M311.7,151c0.1,0,0.2-0.1,0.3-0.1c0.1,0,0.2,0,0.3-0.1C312.1,150.9,311.9,150.9,311.7,151z
					 M329.5,146.5c0.4-0.1,0.8-0.2,1.1-0.4c0.4-0.1,0.9-0.2,1.3-0.2C331.1,146.1,330.3,146.3,329.5,146.5z M347.6,142.1
					c0.7-0.2,1.4-0.4,2.1-0.7c0.7-0.1,1.4-0.2,2.1-0.3C350.4,141.4,349,141.7,347.6,142.1z M366.3,137.6c0.8-0.3,1.6-0.5,2.4-0.8
					c1-0.2,2-0.3,3-0.5C369.9,136.7,368.1,137.2,366.3,137.6z M384.3,133.4c1.2-0.4,2.4-0.7,3.6-1.1c1.3-0.2,2.5-0.4,3.8-0.6
					C389.3,132.3,386.8,132.9,384.3,133.4z M403.5,129.1c1.4-0.4,2.8-0.8,4.1-1.2c1.5-0.2,3-0.4,4.5-0.7
					C409.2,127.9,406.4,128.6,403.5,129.1z M432.6,123c-3.4,0.8-6.8,1.5-10.2,2.1c1.6-0.4,3.2-0.9,4.8-1.4
					C429,123.5,430.8,123.3,432.6,123z M424.5,124.1c-2.4,0.7-4.9,1.3-7.3,2c-2.4,0.4-4.8,0.8-7.2,1.1c2.2-0.7,4.5-1.4,6.7-2.2h0.1
					C419.3,124.7,421.9,124.4,424.5,124.1z M414.5,125.1c-2.6,0.9-5.2,1.7-7.8,2.5c-2.7,0.4-5.4,0.7-8.2,1c1.1-0.4,2.2-0.8,3.3-1.2
					c1.3-0.5,2.7-1.1,4-1.6C408.7,125.6,411.6,125.4,414.5,125.1z M401.1,126.1c1-0.1,1.9-0.1,2.9-0.2c-0.8,0.3-1.6,0.7-2.4,1
					c-1.8,0.7-3.6,1.4-5.5,2c-2.9,0.3-5.8,0.6-8.7,0.8c2.4-1.1,4.9-2.2,7.3-3.3C396.9,126.3,399,126.2,401.1,126.1z M393.2,126.4
					c-2.1,1-4.2,2-6.4,2.9c-0.4,0.2-0.8,0.3-1.2,0.5c-3,0.2-6.1,0.4-9.2,0.5c2.4-1.2,4.8-2.5,7.2-3.7
					C386.8,126.6,390,126.5,393.2,126.4z M382.1,126.6c-2.5,1.3-5,2.6-7.5,3.8c-3.2,0.1-6.3,0.2-9.6,0.3c2.4-1.3,4.8-2.7,7.1-4.2
					C375.5,126.6,378.8,126.6,382.1,126.6z M370.7,126.5c-2.4,1.5-4.8,2.9-7.3,4.2c-3.3,0-6.6,0.1-9.9,0c2.3-1.5,4.6-3,6.8-4.6
					C363.9,126.3,367.4,126.4,370.7,126.5z M359.1,126.1c-2.3,1.6-4.6,3.2-7,4.7c-3.4,0-6.7-0.1-10.1-0.3c1.6-1.1,3.1-2.3,4.6-3.5
					c0.7-0.5,1.3-1,2-1.6C352.1,125.7,355.7,125.9,359.1,126.1z M347.3,125.4c-0.4,0.3-0.8,0.7-1.2,1c-1.8,1.4-3.6,2.8-5.5,4.1
					c-3.4-0.1-6.9-0.3-10.4-0.5c0.5-0.4,0.9-0.8,1.4-1.1c1.7-1.4,3.3-2.8,4.9-4.3C340.1,124.8,343.7,125.1,347.3,125.4z
					 M335.3,124.3c-1.4,1.3-2.8,2.5-4.3,3.7c-0.7,0.6-1.4,1.2-2.2,1.8c-3.5-0.2-7.1-0.5-10.7-0.8c2-1.9,4.1-3.8,6-5.8
					C327.9,123.6,331.6,124,335.3,124.3z M318.5,122.4c1.5,0.2,2.9,0.4,4.4,0.5c-2,2-4,4-6.1,5.9c-3.6-0.3-7.3-0.7-10.9-1.1
					c1.9-2,3.9-4.1,5.7-6.2C313.9,121.8,316.2,122.2,318.5,122.4z M310.4,121.3c-1.9,2.1-3.8,4.2-5.8,6.3c-0.4,0-0.8-0.1-1.2-0.1
					c-3.3-0.4-6.7-0.8-10-1.3c1.8-2.1,3.6-4.3,5.3-6.6C302.6,120.2,306.5,120.8,310.4,121.3z M297.4,119.4c-1.7,2.3-3.5,4.5-5.3,6.6
					c-3.8-0.5-7.7-1.1-11.5-1.6c1.7-2.2,3.3-4.6,4.9-6.9C289.4,118.1,293.4,118.8,297.4,119.4z M284.2,117.3
					c-1.6,2.4-3.2,4.7-4.9,6.9c-3.9-0.6-7.9-1.2-11.8-1.8c1.5-2.3,3-4.7,4.4-7.2C276,115.9,280.1,116.6,284.2,117.3z M270.6,115
					c-1.4,2.4-2.9,4.8-4.5,7.2c-3.3-0.5-6.6-1-9.8-1.6c-0.8-0.1-1.5-0.2-2.3-0.4c1.4-2.4,2.7-4.8,4-7.3
					C262.3,113.6,266.5,114.3,270.6,115z"/>
			</g>
		</g>
		<g>
			<g>
				<defs>
					<rect id="SVGID_6_" width="750" height="500"/>
				</defs>
				<clipPath id="SVGID_7_">
					<use xlink:href="#SVGID_6_"  style="overflow:visible;"/>
				</clipPath>
				<g class="st8">
					<g>
						
							<linearGradient id="SVGID_8_" gradientUnits="userSpaceOnUse" x1="506.89" y1="637.4337" x2="670.4339" y2="637.4337" gradientTransform="matrix(-0.7488 -0.6628 0.841 -0.95 382.2035 1374.7104)">
							<stop  offset="0" style="stop-color:#7A99ED"/>
							<stop  offset="1" style="stop-color:#FEFCFF"/>
						</linearGradient>
						<path class="st9" d="M739.9-22.3v0.3c-15.4,4.6-30.3,15.4-43,31.2c-11.2,13.9-20.6,31.4-26.4,49.3c-6,18.4-9.1,37.2-12.2,55.4
							c-2.6,15.6-5.4,31.8-9.8,47.6c-25.3,89.6-113.3,170.6-200.3,184.4c-4.1,0.6-8.2,1.2-12.3,1.7c-15.8,2-32.2,4.1-47,13.2
							c-13.6,8.3-24.7,21.8-31.9,38.9c-6.4,15.2-9.6,32.5-8.9,48.8c0.7,16.8,4.5,32.9,8.1,48.4c3.1,13.1,6.3,26.7,7.6,40.8
							c2.1,22.4-0.7,47-8.1,71.2c-7.4,24.2-19.4,48-34.8,68.7c-15.3,20.8-34.8,39.6-56.3,54.6c-21.5,14.9-45,25.9-68,31.7v-0.3
							c22.9-5.8,46.4-16.7,67.8-31.6s40.9-33.7,56.2-54.4c15.3-20.7,27.3-44.5,34.7-68.6c7.4-24.1,10.2-48.7,8-71.1
							c-1.3-14-4.5-27.6-7.6-40.8c-3.6-15.5-7.4-31.6-8.1-48.5c-0.7-16.3,2.5-33.7,8.9-49c7.3-17.2,18.4-30.8,32.1-39.1
							c14.9-9.1,31.3-11.2,47.2-13.3c4-0.5,8.2-1.1,12.3-1.7c86.8-13.7,174.6-94.6,199.9-184.1c4.5-15.8,7.2-32,9.8-47.6
							c3.1-18.2,6.3-37.1,12.2-55.5c5.8-18,15.2-35.6,26.5-49.5C709.5-6.8,724.5-17.6,739.9-22.3z"/>
					</g>
					<g>
						
							<linearGradient id="SVGID_9_" gradientUnits="userSpaceOnUse" x1="532.1282" y1="638.776" x2="664.9276" y2="638.776" gradientTransform="matrix(-0.7488 -0.6628 0.841 -0.95 382.2035 1374.7104)">
							<stop  offset="0" style="stop-color:#7A99ED"/>
							<stop  offset="1" style="stop-color:#FEFCFF"/>
						</linearGradient>
						<path class="st10" d="M741.9-21.1l0.1,0.5c-13.9,5.2-27.8,16.4-40.3,32.5c-10.8,13.9-20.4,31.4-27,49.1
							c-0.8,2.2-1.6,4.4-2.4,6.7c-5.2,15-8.6,29.8-12,44.2c-3.5,15.1-7.2,30.8-12.8,46.1c-8.5,23.3-22.7,46.3-35.6,65.7
							c-16.3,24.6-30.8,43.2-45.6,58.5c-22.5,23.2-48.1,41.9-74.1,53.9c-11.6,5.4-22.6,9.3-33.7,12.1c-6,1.5-12.2,2.6-18.8,3.8
							c-5.9,1.1-12,2.2-18,3.6c-9.4,2.2-16.9,5-23.7,8.6c-13.6,7.4-24.6,18.7-32.7,33.6c-7.5,13.8-12,29.9-12.6,45.4
							c-0.6,15,1.5,29.4,3.5,43.3c1.8,12.2,3.6,24.9,3.7,38.1c0,20.3-4.5,42.6-13,64.7c-9.1,23.4-22.8,46.6-39.7,67.1
							c-16.5,20-36.9,38.6-59.2,53.7c-22.2,15-46.2,26.7-69.5,33.8v-0.5c23.3-7,47.2-18.7,69.4-33.7c22.2-15,42.6-33.6,59-53.5
							c16.8-20.4,30.5-43.6,39.5-66.9c8.6-22,13-44.3,13-64.5c0-13.2-1.9-25.8-3.7-38c-2-13.9-4.1-28.3-3.5-43.4
							c0.7-15.5,5.2-31.7,12.7-45.6c8-14.8,19.4-26.6,33-33.9c6.8-3.7,14.4-6.4,23.8-8.7c6-1.4,12.1-2.5,18-3.6
							c6.6-1.2,12.7-2.3,18.8-3.8c11.1-2.8,22-6.7,33.6-12.1c25.9-12,51.4-30.6,73.9-53.8c14.8-15.3,29.3-33.9,45.5-58.4
							c12.8-19.4,27.1-42.3,35.5-65.6c5.6-15.3,9.2-30.9,12.8-46c3.4-14.4,6.8-29.3,12-44.3c0.8-2.3,1.6-4.6,2.4-6.7
							c6.7-17.8,16.3-35.3,27.1-49.3C713.8-4.6,727.9-15.9,741.9-21.1z"/>
					</g>
					<g>
						
							<linearGradient id="SVGID_10_" gradientUnits="userSpaceOnUse" x1="556.7877" y1="640.0991" x2="660.1475" y2="640.0991" gradientTransform="matrix(-0.7488 -0.6628 0.841 -0.95 382.2035 1374.7104)">
							<stop  offset="0" style="stop-color:#7A99ED"/>
							<stop  offset="1" style="stop-color:#FEFCFF"/>
						</linearGradient>
						<path class="st11" d="M743.8-19.9l0.2,0.6c-27.6,12.6-51.8,51-65.3,82.7c-0.9,2.1-1.8,4.3-2.7,6.5
							c-5.5,13.6-9.6,26.8-13.5,39.5c-4.8,15.5-9.3,30.1-16.1,45c-7.3,15.9-18.2,32-29.7,49.1c-3.2,4.7-6.5,9.6-9.7,14.5
							c-2.6,4-5.2,8-7.8,11.9c-11.5,17.6-22.4,34.3-34.3,48.8c-19.6,23.9-42.2,43.7-65.3,57.3c-11.1,6.6-20.6,11.1-30.7,14.6
							c-8.2,2.8-17.5,4.8-26.6,6.8c-3.5,0.8-7.2,1.6-10.8,2.4c-10,2.3-17.5,4.8-24.3,8c-13.8,6.6-25.3,16.6-34.1,29.8
							c-8.1,12.1-13.6,26.5-15.7,40.4c-1.9,13.3-1.5,26-1,38.4c0.4,11.2,0.9,22.9-0.5,35.1c-2,18.7-8.4,39.4-18.6,59.9
							c-10.8,22-26.1,44-44,63.7c-35.9,39.3-84.5,71.6-133.1,88.6l-0.1-0.6c48.5-17,96.9-49.2,132.7-88.4
							c17.9-19.6,33.1-41.5,43.9-63.5c10.1-20.4,16.5-41.1,18.5-59.7c1.3-12.2,0.9-23.8,0.5-35c-0.5-12.4-0.9-25.2,1-38.5
							c2.1-14.1,7.7-28.6,15.9-40.8c8.9-13.3,20.5-23.5,34.4-30.1c6.8-3.2,14.4-5.7,24.4-8.1c3.6-0.8,7.2-1.6,10.8-2.4
							c9-1.9,18.4-3.9,26.5-6.8c10.1-3.5,19.5-8,30.6-14.5c23-13.5,45.5-33.3,65-57.1c11.9-14.5,22.8-31.2,34.3-48.8
							c2.6-3.9,5.2-7.9,7.8-11.9c3.2-4.9,6.5-9.8,9.7-14.5c11.5-17.1,22.4-33.2,29.7-49c6.8-14.9,11.3-29.5,16.1-44.9
							c3.9-12.7,8-25.9,13.5-39.6c0.9-2.2,1.8-4.4,2.7-6.5C691.6,31.4,716-7.2,743.8-19.9z"/>
					</g>
					<g>
						
							<linearGradient id="SVGID_11_" gradientUnits="userSpaceOnUse" x1="580.576" y1="641.3893" x2="655.4529" y2="641.3893" gradientTransform="matrix(-0.7488 -0.6628 0.841 -0.95 382.2035 1374.7104)">
							<stop  offset="0" style="stop-color:#7A99ED"/>
							<stop  offset="1" style="stop-color:#FEFCFF"/>
						</linearGradient>
						<path class="st12" d="M745.8-18.7L746-18c-29.3,16.5-55.9,68.3-63.3,83.8c-1,2.1-2,4.2-3,6.3c-5.6,12-10,23.2-14.3,34.1
							c-6.1,15.4-11.8,30-20.1,44.6c-6,10.5-14,21.3-22.6,32.7c-6.8,9.1-13.9,18.6-20.7,28.8c-7.2,11-13.6,21.8-19.7,32.2
							c-6.4,10.9-12.5,21.2-18.9,30.6c-16.6,24.3-36.2,45.3-56.5,60.6c-7.6,5.8-16.1,11.8-27.8,17.1c-10.4,4.6-23.1,7.6-35.5,10.4
							l-2.5,0.6c-8.1,1.9-16.8,4-24.9,7.4c-14.1,5.8-26,14.6-35.5,26.1c-8.6,10.5-15.3,23.1-18.8,35.5c-3.3,11.7-4.3,22.5-5.4,34
							c-1,10.1-2,20.5-4.6,31.7c-4.1,17.1-12.4,36.2-24.1,55.2c-12.6,20.6-29.3,41.4-48.4,60.2c-38,37.4-88.1,70.2-137.5,89.8
							l-0.1-0.8c49.3-19.6,99.3-52.3,137.1-89.6c19-18.7,35.6-39.5,48.2-60c11.6-18.9,19.9-37.9,24-54.9c2.6-11.1,3.6-21.5,4.6-31.6
							c1.1-11.5,2.1-22.4,5.4-34.1c3.5-12.6,10.3-25.3,19-35.9c9.6-11.6,21.7-20.5,35.9-26.4c8.2-3.4,16.9-5.6,25.1-7.5l2.5-0.6
							c12.3-2.8,25-5.7,35.3-10.3c11.7-5.2,20-11.2,27.6-17c20.2-15.2,39.6-36.1,56.2-60.3c6.4-9.4,12.5-19.7,18.9-30.6
							c6.1-10.4,12.5-21.3,19.8-32.3c6.8-10.3,13.8-19.7,20.7-28.9c8.5-11.4,16.6-22.1,22.5-32.6c8.3-14.6,14-29.1,20-44.5
							c4.3-10.9,8.7-22.2,14.3-34.2c1-2.1,2-4.2,3-6.3C689.5,50,716.2-2,745.8-18.7z"/>
					</g>
					<g>
						
							<linearGradient id="SVGID_12_" gradientUnits="userSpaceOnUse" x1="589.3599" y1="642.794" x2="652.507" y2="642.794" gradientTransform="matrix(-0.7488 -0.6628 0.841 -0.95 382.2035 1374.7104)">
							<stop  offset="0" style="stop-color:#7A99ED"/>
							<stop  offset="1" style="stop-color:#FEFCFF"/>
						</linearGradient>
						<path class="st13" d="M747.7-17.5l0.4,0.8C731.5-5,710.8,23.5,686.8,68.2l-3.3,6.1c-5.2,9.7-9.6,18.7-13.9,27.4
							c-7.7,15.8-15.1,30.8-25.4,45.5c-5.2,7.4-11.7,15-18.7,23.1c-9.1,10.6-19.4,22.6-28.4,36.2c-9.9,15-17.1,29.6-24.2,43.7
							c-3.7,7.5-7.3,14.6-11,21.3c-13.8,24.8-30.2,46.9-47.6,63.9c-6.4,6.2-13.6,13.3-24.9,19.6c-10.7,6-24.9,9.6-38.5,12.7
							c-8.5,1.9-17.2,3.9-25.6,6.8c-14.4,5.1-26.8,12.6-36.9,22.3c-9.1,8.8-16.9,19.7-21.9,30.6c-4.6,10.2-7.2,19.8-9.9,29.9
							c-2.4,8.8-4.8,18-8.7,27.9c-6.2,15.5-16.5,33-29.6,50.4c-14.4,19.2-32.6,38.8-52.7,56.8c-39.8,35.5-91.5,68.7-141.8,91
							l-0.2-0.9c50.2-22.3,101.8-55.4,141.5-90.8c20-17.9,38.2-37.4,52.5-56.6c13.1-17.3,23.3-34.7,29.5-50.1
							c3.9-9.9,6.4-19,8.7-27.8c2.7-10.2,5.3-19.8,10-30.1c5-11.1,12.9-22.1,22.1-31c10.2-9.9,22.8-17.5,37.4-22.6
							c8.4-3,17.2-4.9,25.7-6.8c13.6-3.1,27.6-6.7,38.3-12.6c11.2-6.2,18.4-13.2,24.7-19.4c17.3-17,33.7-39,47.4-63.6
							c3.7-6.6,7.2-13.7,10.9-21.2c7-14.1,14.3-28.8,24.3-43.9c9-13.7,19.4-25.7,28.5-36.4c6.9-8,13.4-15.7,18.6-23
							c10.2-14.6,17.5-29.5,25.3-45.3c4.3-8.7,8.7-17.7,13.9-27.5l3.3-6.1C710.1,23,730.9-5.7,747.7-17.5z"/>
					</g>
					<g>
						
							<linearGradient id="SVGID_13_" gradientUnits="userSpaceOnUse" x1="583.9971" y1="643.9241" x2="679.6827" y2="643.9241" gradientTransform="matrix(-0.7488 -0.6628 0.841 -0.95 382.2035 1374.7104)">
							<stop  offset="0" style="stop-color:#7A99ED"/>
							<stop  offset="1" style="stop-color:#FEFCFF"/>
						</linearGradient>
						<path class="st14" d="M749.5-16.2l0.6,0.8c-16.7,14.8-38,50.4-55.1,79l-4.2,7c-1.2,2-2.4,4-3.6,6c-3.9,6.3-7.4,12.2-10.7,17.9
							c-10.8,18.2-20.1,33.9-33.4,49.2c-4.6,5.3-10,10.7-15.8,16.5c-11.4,11.5-24.4,24.4-35.1,40.7c-11.7,17.9-19,36-25.4,51.9
							c-2.1,5.3-4.2,10.4-6.3,15.2c-10.9,25-24.3,48.3-38.8,67.2l-0.4,0.5c-5.5,7.2-11.2,14.7-21.7,21.7
							c-8.7,5.9-21.5,10.6-39.2,14.5c-1.8,0.4-3.6,0.8-5.4,1.2c-7.3,1.6-14.1,3.1-20.9,5c-14.8,4.4-27.7,10.6-38.4,18.6
							c-12.2,9.1-20.3,19-24.9,25.7c-6.2,9-10.5,17.6-14.9,26.7c-3.6,7.3-7.3,14.9-12.3,23.2c-8.4,14-20.6,29.7-35.1,45.6
							c-16.3,17.8-36,36.2-57.1,53.3c-41.3,33.3-94.6,66.9-146.2,92.2l-0.3-1c51.6-25.2,104.7-58.7,145.9-92
							c21-17,40.7-35.4,56.9-53.1c14.5-15.8,26.6-31.4,35-45.3c5-8.3,8.7-15.8,12.3-23.1c4.5-9.2,8.7-17.8,15-26.9
							c4.7-6.8,12.9-16.8,25.3-26.1c10.8-8.1,23.8-14.4,38.8-18.8c6.8-2,13.6-3.5,20.9-5.1c1.8-0.4,3.6-0.8,5.4-1.2
							c17.5-3.9,30.1-8.5,38.7-14.3c10.3-6.9,15.9-14.2,21.3-21.3l0.4-0.5c14.4-18.8,27.8-42,38.6-66.9c2.1-4.8,4.1-9.8,6.2-15.2
							c6.4-16,13.7-34.2,25.5-52.2c10.7-16.4,23.8-29.4,35.3-40.9c5.7-5.8,11.2-11.2,15.7-16.4c13.1-15.2,22.4-30.9,33.2-49
							c3.4-5.7,6.9-11.6,10.7-17.9c1.2-1.9,2.4-3.9,3.6-5.9l4.2-7C711.2,34.5,732.6-1.2,749.5-16.2z"/>
					</g>
					<g>
						
							<linearGradient id="SVGID_14_" gradientUnits="userSpaceOnUse" x1="576.18" y1="645.2732" x2="706.866" y2="645.2732" gradientTransform="matrix(-0.7488 -0.6628 0.841 -0.95 382.2035 1374.7104)">
							<stop  offset="0" style="stop-color:#7A99ED"/>
							<stop  offset="1" style="stop-color:#FEFCFF"/>
						</linearGradient>
						<path class="st15" d="M752.2-14.2C742.4-3,729.6,17.7,716,39.5c-7.1,11.4-14.4,23.3-21.2,33.5c-1.3,2-2.6,3.9-3.9,5.8
							l-0.1,0.2c-18.2,26.3-30.3,43.7-48.9,61.2c-3.9,3.7-8.4,7.5-13.1,11.5c-13.8,11.7-29.4,25-41.5,43.5
							c-13.2,20.2-19.4,40.6-24.8,58.5c-1.1,3.7-2.2,7.2-3.3,10.7c-8.1,25.1-18.4,49.5-30,70.5l-0.6,1c-4.2,7.8-8.6,15.8-18.6,23.7
							c-11,8.7-27.7,13.6-39.8,16.3c-3.9,0.8-7.7,1.6-11.4,2.3c-5.4,1.1-10.5,2.1-15.5,3.3c-15.7,3.7-28.7,8.6-39.9,14.9
							c-10.2,5.7-19.6,12.7-28,20.9c-8.6,8.3-15,16.5-21.9,25.1c-4.2,5.4-8.6,10.9-13.9,17c-10.8,12.5-24.8,26.6-40.6,40.7
							c-18.6,16.8-39.2,33.5-61.4,49.8C195.1,581,141.7,614.2,87,643.2l-0.3-1.1c54.6-29,108-62.1,150.4-93.2
							c22.1-16.3,42.7-33,61.2-49.7c15.7-14.1,29.7-28.1,40.5-40.6c5.3-6.1,9.6-11.6,13.9-17c6.9-8.7,13.4-16.9,22-25.3
							c8.6-8.3,18.1-15.4,28.4-21.2c11.3-6.3,24.4-11.2,40.2-15c5.1-1.2,10.1-2.2,15.5-3.3c3.7-0.7,7.5-1.5,11.4-2.3
							c11.9-2.6,28.4-7.5,39.2-16c9.7-7.7,14-15.5,18.2-23.2l0.6-1c11.5-20.9,21.8-45.2,29.8-70.2c1.1-3.4,2.2-6.9,3.3-10.6
							c5.5-18.1,11.7-38.6,25-59c12.3-18.8,28-32.1,41.8-43.9c4.7-4,9.2-7.8,13.1-11.5c18.5-17.3,30.5-34.7,48.6-60.9l0.1-0.2
							c1.3-1.9,2.6-3.8,3.9-5.7c6.8-10,14.1-21.8,21.2-33.3c13.6-21.9,26.5-42.7,36.4-54L752.2-14.2z"/>
					</g>
					<g>
						
							<linearGradient id="SVGID_15_" gradientUnits="userSpaceOnUse" x1="567.5793" y1="646.6146" x2="733.8913" y2="646.6146" gradientTransform="matrix(-0.7488 -0.6628 0.841 -0.95 382.2035 1374.7104)">
							<stop  offset="0" style="stop-color:#7A99ED"/>
							<stop  offset="1" style="stop-color:#FEFCFF"/>
						</linearGradient>
						<path class="st16" d="M754.4-13c-4.3,6.5-9.8,15.9-16.3,26.7c-11.5,19.4-25.8,43.4-39.3,61.9c-1.4,1.9-2.8,3.8-4.2,5.6
							c-20.5,26.3-35,41.3-53.8,55.5c-3.2,2.4-6.7,4.9-10.3,7.5c-15.4,11-34.5,24.6-48.1,45.4c-14.5,22.2-19.1,44.5-23.2,64.3
							c-0.5,2.4-1,4.7-1.5,7c-5.4,25-12.5,49.8-21.1,73.7l-0.4,1.2c-3,8.5-6.2,17.2-15.8,26.1c-11.6,10.7-30.3,15.9-40.4,18.1
							c-6,1.3-11.9,2.3-17.6,3.3c-3.4,0.6-6.7,1.1-9.9,1.7c-16.8,3.1-30.3,6.8-41.4,11.1c-10.5,4.2-20.7,9.4-31.2,16.1
							c-13.5,8.6-23.6,17-36.4,27.7c-2.5,2.1-5.2,4.3-8,6.6c-14.3,11.8-29.8,23.9-46.1,35.9c-21.2,15.8-43.3,31.4-65.7,46.3
							c-40.7,27.1-91.3,58-154.9,94.5l-0.4-1.2c63.5-36.5,114.1-67.4,154.8-94.4c22.3-15,44.4-30.6,65.6-46.4
							c16.2-12,31.7-24.1,46-35.9c2.8-2.3,5.4-4.5,8-6.6c12.8-10.7,23-19.1,36.6-27.8c10.5-6.7,20.8-12,31.5-16.2
							c11.2-4.4,24.8-8.1,41.6-11.2c3.3-0.6,6.6-1.2,9.9-1.7c5.7-1,11.6-2,17.6-3.2c9.9-2.1,28.3-7.2,39.6-17.6
							c9.3-8.6,12.4-17.1,15.3-25.3l0.4-1.2c8.6-23.9,15.7-48.6,21.1-73.5c0.5-2.3,1-4.6,1.5-7c4.1-19.9,8.8-42.4,23.4-64.9
							c13.8-21.1,33.1-34.8,48.6-45.9c3.7-2.6,7.1-5.1,10.3-7.5c18.6-14.1,33.1-29.1,53.5-55.2c1.4-1.7,2.8-3.6,4.2-5.5
							c13.4-18.3,27.7-42.4,39.2-61.7c6.4-10.8,12-20.2,16.3-26.8L754.4-13z"/>
					</g>
					<g>
						
							<linearGradient id="SVGID_16_" gradientUnits="userSpaceOnUse" x1="558.7246" y1="648.016" x2="760.983" y2="648.016" gradientTransform="matrix(-0.7488 -0.6628 0.841 -0.95 382.2035 1374.7104)">
							<stop  offset="0" style="stop-color:#7A99ED"/>
							<stop  offset="1" style="stop-color:#FEFCFF"/>
						</linearGradient>
						<path class="st17" d="M756.5-11.9c-9.4,20.4-31.4,62.2-53.7,89.9c-1.5,1.9-3,3.7-4.5,5.4c-22,25.3-38.8,37.8-58.7,49.7
							c-2.2,1.3-4.6,2.7-7,4.1c-17.9,10.5-40.1,23.5-55.1,46.5c-15.6,24-18.4,49.2-20.7,69.5l-0.4,3.8c-2.8,24-6.7,48.5-12.3,77
							l-0.2,1.1c-1.7,8.8-3.7,18.8-13.1,28.8c-8.4,8.9-23.4,16.2-41,19.9c-8.3,1.8-16.4,2.8-24.1,3.9l-4.1,0.5
							c-17.3,2.3-31.1,4.5-42.9,7.4c-14,3.5-25.7,7.8-34.3,11.2c-17.5,6.9-31.9,14.1-52.9,26.5c-14.1,8.2-30.8,18.4-50.1,30.3
							l-15.3,9.4c-17.1,10.4-36.3,22.2-56.3,34.4c-19.3,11.7-39.2,23.5-60.3,36.1c-32.9,19.6-67,39.9-98.9,59.6l-0.5-1.3
							c31.9-19.7,66-40,98.9-59.6c21.1-12.6,41-24.4,60.3-36.1c20-12.1,39.2-23.9,56.1-34.3l15.3-9.4c19.4-11.8,36.1-22,50.2-30.3
							c21.1-12.5,35.5-19.7,53.1-26.7c8.7-3.4,20.4-7.8,34.5-11.3c11.8-2.9,25.7-5.1,43-7.4l4.1-0.5c7.7-1,15.7-2.1,24-3.8
							c17.3-3.6,31.9-10.7,40-19.3c9-9.6,10.8-18.8,12.6-27.8l0.2-1.1c5.6-28.5,9.5-52.9,12.3-76.9l0.4-3.8c2.3-20.5,5.1-46,21-70.3
							c15.3-23.5,37.8-36.7,55.8-47.2c2.4-1.4,4.7-2.8,7-4.1c19.8-11.9,36.4-24.3,58.2-49.3c1.5-1.7,3-3.5,4.5-5.3
							c22.1-27.5,44-69.1,53.4-89.4L756.5-11.9z"/>
					</g>
					<g>
						
							<linearGradient id="SVGID_17_" gradientUnits="userSpaceOnUse" x1="549.4075" y1="649.5582" x2="788.1986" y2="649.5582" gradientTransform="matrix(-0.7488 -0.6628 0.841 -0.95 382.2035 1374.7104)">
							<stop  offset="0" style="stop-color:#7A99ED"/>
							<stop  offset="1" style="stop-color:#FEFCFF"/>
						</linearGradient>
						<path class="st18" d="M758.6-10.8c-6,20.4-27.3,63.5-51.7,91.2c-1.6,1.8-3.2,3.6-4.8,5.2c-23.4,24-43.5,34.5-63.6,43.9
							l-2.8,1.3c-19.6,9.1-46.4,21.6-63,47.2c-16.7,25.7-17.2,52.7-17.6,74.4v1c-0.5,26.1-1.9,50.4-3,71.8l-0.5,9.3
							c-0.5,9.6-1.1,20.4-10.3,31.6c-8.2,9.9-23.8,18-41.7,21.7c-9.9,2-19.3,3-28.9,3.8c-7,0.6-13.4,1.1-19.7,1.5
							c-8.8,0.6-17.2,1.2-24.7,2.1c-14.1,1.6-26.8,4.1-37.4,6.4c-19.6,4.1-37.6,8.9-61.5,18.6c-15.6,6.3-34.2,14.9-57,26.3
							c-20.6,10.3-44.9,23.2-74.3,39.4c-65.7,36-119.2,67.7-163.5,96.8l-0.7-1.4c44.1-28.9,97.6-60.6,163.4-96.7
							c29.4-16.2,53.8-29.1,74.4-39.4c22.8-11.4,41.5-20,57.2-26.4C351,409,369,404.2,388.7,400c10.6-2.2,23.4-4.7,37.6-6.4
							c7.5-0.9,15.9-1.5,24.7-2.1c6.2-0.5,12.7-0.9,19.7-1.5c9.5-0.8,18.9-1.7,28.7-3.8c17.5-3.6,32.6-11.4,40.5-20.9
							c8.8-10.6,9.3-20.7,9.8-30.4l0.5-9.3c1.2-21.4,2.5-45.7,3-71.8v-1c0.4-22,0.9-49.3,18-75.5c17-26.1,44.2-38.8,64-48l2.8-1.3
							c20-9.4,39.8-19.7,63-43.5c1.6-1.6,3.2-3.3,4.8-5.1C729.9,51.9,751,9.3,757-10.9L758.6-10.8z"/>
					</g>
					<g>
						
							<linearGradient id="SVGID_18_" gradientUnits="userSpaceOnUse" x1="540.0989" y1="650.7961" x2="815.4572" y2="650.7961" gradientTransform="matrix(-0.7488 -0.6628 0.841 -0.95 382.2035 1374.7104)">
							<stop  offset="0" style="stop-color:#7A99ED"/>
							<stop  offset="1" style="stop-color:#FEFCFF"/>
						</linearGradient>
						<path class="st19" d="M760.7-9.7c-3.2,22.6-24.5,66.2-49.8,92.5c-1.7,1.8-3.4,3.5-5.2,5.1c-24.6,22.7-46.9,30.5-68.5,38.1
							c-19.1,6.7-51.1,18-69.5,46.3c-17.7,27.3-15.7,56.3-14.2,77.5c1,14.6,1.9,28.5,2.7,42.1c0.9,14.6,1.7,28.4,2.7,41.5v0.5
							c0.8,10.4,1.6,22.2-7.5,34.6c-8,11-23.8,19.8-42.3,23.5c-10.8,2.2-21,2.8-29.6,3.2c-12.1,0.5-23.1,0.3-32.9,0.1
							c-4.5-0.1-8.8-0.2-13-0.2c-14.7,0-28.2,0.7-40.6,1.5c-23.6,1.5-44.5,3.9-70.1,10.8c-18,4.8-39,12.1-62.5,21.5
							c-23.3,9.5-49.8,21.6-78.6,35.9c-43.4,21.6-107.7,56.1-167.8,98l-0.8-1.5c60.3-42,124.7-76.5,168.2-98.1
							c28.9-14.4,55.4-26.5,78.8-36c23.5-9.5,44.6-16.8,62.7-21.6c25.7-6.9,46.8-9.4,70.4-10.9c12.4-0.8,25.9-1.5,40.7-1.5
							c4.1,0,8.4,0.1,13,0.2c9.7,0.2,20.8,0.4,32.8-0.1c8.5-0.3,18.6-1,29.3-3.2c17.9-3.7,33.2-12.1,40.9-22.6
							c8.6-11.7,7.7-23.1,7-33.1v-0.5c-1-13-1.8-26.8-2.7-41.5c-0.8-13.5-1.7-27.5-2.7-42c-1.5-21.5-3.6-50.9,14.5-78.8
							c18.9-29.1,51.4-40.5,70.8-47.3c21.4-7.5,43.4-15.3,67.7-37.6c1.7-1.5,3.4-3.2,5-4.9c24.3-25.3,46-69,49.2-91.2L760.7-9.7z"/>
					</g>
					<g>
						
							<linearGradient id="SVGID_19_" gradientUnits="userSpaceOnUse" x1="530.59" y1="652.1418" x2="842.4825" y2="652.1418" gradientTransform="matrix(-0.7488 -0.6628 0.841 -0.95 382.2035 1374.7104)">
							<stop  offset="0" style="stop-color:#7A99ED"/>
							<stop  offset="1" style="stop-color:#FEFCFF"/>
						</linearGradient>
						<path class="st20" d="M762.7-8.6c-0.1,22.9-20.6,67.9-47.9,93.9c-1.8,1.7-3.7,3.4-5.5,4.9c-24.3,20.1-46.5,25.6-69.9,31.5
							l-3.5,0.9c-24.7,6.2-55.4,16.8-73.2,44.2c-17.2,26.5-14.5,54.9-10.7,79.5l1.6,10.2c4.2,27.3,8.2,53.1,12.6,76.6
							c2.1,11.2,4.5,23.9-4.4,37.6c-9.2,14.2-28.2,22.4-43,25.4c-9.1,1.8-18.7,2.6-30.3,2.6c-14.7-0.1-28-1.6-39.8-3
							c-2.6-0.3-5.1-0.6-7.6-0.9c-16.3-1.8-31.2-2.7-43.7-3.4c-23.1-1.2-48.7-1.7-78.7,3c-20.4,3.2-43.2,8.9-67.9,16.8
							c-25.5,8.2-53.4,19.1-82.9,32.5c-44,19.8-109.6,53.1-172.1,99.1l-0.9-1.6c62.8-46.3,128.5-79.7,172.6-99.5
							c29.6-13.4,57.6-24.3,83.2-32.6c24.8-7.9,47.8-13.6,68.3-16.8c30.2-4.8,55.8-4.3,79.1-3c12.5,0.7,27.4,1.6,43.8,3.4
							c2.5,0.3,5,0.6,7.6,0.9c11.7,1.4,25,2.9,39.6,3c11.5,0.1,21-0.8,29.9-2.6c14.2-2.9,32.5-10.7,41.3-24.2
							c8.4-12.9,6.1-25.1,4.1-36c-4.4-23.6-8.4-49.4-12.6-76.7l-1.6-10.2c-3.9-25-6.6-53.9,11.1-81.1c18.3-28.2,49.6-39,74.8-45.3
							l3.5-0.9c23.2-5.7,45.1-11.2,68.9-30.9c1.8-1.5,3.6-3.1,5.3-4.7c26.8-25.5,47-69.7,47.1-92.1L762.7-8.6z"/>
					</g>
					<g>
						
							<linearGradient id="SVGID_20_" gradientUnits="userSpaceOnUse" x1="521.0963" y1="653.5466" x2="869.7154" y2="653.5466" gradientTransform="matrix(-0.7488 -0.6628 0.841 -0.95 382.2035 1374.7104)">
							<stop  offset="0" style="stop-color:#7A99ED"/>
							<stop  offset="1" style="stop-color:#FEFCFF"/>
						</linearGradient>
						<path class="st21" d="M764.8-7.5c3.1,26.1-18.8,71.5-46,95.3c-1.9,1.7-3.8,3.2-5.8,4.7c-24.5,18.3-47.2,21.7-71.1,25.4
							c-2.4,0.4-4.8,0.7-7.2,1.1c-37.3,5.9-62.4,19.6-76.9,42c-17.1,26.3-13.6,54.8-7.2,81.6c6.5,27.5,14.3,59.8,23,90.1
							c3.2,11.2,7.3,25.1-1.5,40.2c-5.9,10.2-20.4,22.7-43.6,27.2c-9.6,1.9-19.4,2.5-31,2c-16.3-0.8-31-3.9-44.1-6.7l-4.8-1
							c-14-2.9-28.5-5.5-46.8-8.3c-24.4-3.6-53.8-7.1-87.3-4.8c-22.7,1.5-47.4,5.6-73.4,12c-27.4,6.8-56.7,16.6-87.2,29
							c-64.7,26.4-125.7,61-176.4,100.3l-1-1.7c51-39.4,112.2-74.2,177.1-100.6c30.6-12.5,60-22.3,87.5-29.1
							c26.2-6.5,51-10.5,73.8-12.1c33.6-2.3,63.2,1.2,87.7,4.8c18.4,2.8,32.8,5.4,46.9,8.3l4.8,1c13,2.7,27.7,5.8,43.8,6.6
							c11.4,0.5,21-0.1,30.5-1.9c13.9-2.8,33.2-11.2,41.7-25.8c8.2-14.1,4.3-27.6,1.2-38.3c-8.7-30.3-16.5-62.6-23-90.2
							c-6.4-27.3-10-56.3,7.6-83.4c15-23.1,40.7-37.3,78.8-43.3c2.4-0.4,4.8-0.7,7.2-1.1c23.6-3.6,46-7,70-24.9
							c1.9-1.4,3.8-2.9,5.6-4.5c26.5-23.2,48-67.5,45-93L764.8-7.5z"/>
					</g>
					<g>
						
							<linearGradient id="SVGID_21_" gradientUnits="userSpaceOnUse" x1="511.5869" y1="654.9514" x2="896.807" y2="654.9514" gradientTransform="matrix(-0.7488 -0.6628 0.841 -0.95 382.2035 1374.7104)">
							<stop  offset="0" style="stop-color:#7A99ED"/>
							<stop  offset="1" style="stop-color:#FEFCFF"/>
						</linearGradient>
						<path class="st22" d="M766.8-6.4c6.2,27-14.8,73.1-44,96.6c-2,1.6-4.1,3.1-6.1,4.5c-25,16.8-49.5,18.4-73.2,19.9
							c-3.3,0.2-6.7,0.4-10,0.7c-26.3,2-61.7,10.6-80.6,39.9c-17.8,27.5-11.9,57.7-3.8,83.6c11.3,36.3,21.7,66.8,31.8,93.4
							c4.2,11.1,10,26.3,1.5,42.7c-8.7,16.8-29.3,26.2-44.2,29.1c-10,2-20.4,2.4-31.7,1.4c-17.1-1.5-32.8-6.2-46.7-10.3l-3.7-1.1
							c-15.7-4.7-32.1-9-49.9-13.2c-36.6-8.5-66.2-12.4-95.8-12.6c-25-0.2-51.5,2.2-78.9,7.2c-29.3,5.4-60,14-91.5,25.6
							C73.5,425.4,11,460.5-40.7,502.4l-1.1-1.7c52-42.1,114.7-77.3,181.6-101.9c31.6-11.6,62.5-20.3,91.9-25.7
							c27.5-5,54.2-7.5,79.3-7.3c29.8,0.2,59.5,4.1,96.3,12.7c17.9,4.2,34.2,8.5,50,13.2l3.7,1.1c14.4,4.3,29.4,8.8,46.3,10.3
							c11.1,1,21.3,0.6,31-1.3c14.3-2.8,33.9-11.7,42.2-27.5c8-15.3,2.4-30-1.7-40.7c-10.1-26.6-20.5-57.2-31.8-93.5
							c-8.3-26.4-14.2-57.3,4.1-85.7c19.6-30.3,55.8-39.2,82.8-41.3c3.4-0.3,6.7-0.5,10.1-0.7c23.3-1.5,47.4-3.1,71.9-19.5
							c2-1.3,4-2.8,5.9-4.3c27.8-22.6,48.7-68.2,42.8-93.9L766.8-6.4z"/>
					</g>
					<g>
						
							<linearGradient id="SVGID_22_" gradientUnits="userSpaceOnUse" x1="502.0907" y1="656.3301" x2="924.181" y2="656.3301" gradientTransform="matrix(-0.7488 -0.6628 0.841 -0.95 382.2035 1374.7104)">
							<stop  offset="0" style="stop-color:#7A99ED"/>
							<stop  offset="1" style="stop-color:#FEFCFF"/>
						</linearGradient>
						<path class="st23" d="M768.8-5.2c9.1,27.6-11.4,75.2-42.1,97.9c-2.1,1.6-4.3,3-6.4,4.3c-25.7,15.6-51.1,15.2-75.7,14.9
							c-4.1-0.1-8.3-0.1-12.4-0.1c-22.4,0.1-63.2,5.1-84.3,37.7c-18.4,28.5-10.5,59.3-0.3,85.7c13.8,35.8,27.1,67.4,40.6,96.6
							c5.1,11,12.8,27.5,4.5,45.2c-5.3,11.3-20.2,26.2-44.9,30.9c-10.4,2-21,2.3-32.3,0.8c-17.8-2.3-33.6-8.3-48.9-14.1l-3-1.1
							c-17.3-6.5-35.1-12.6-53-18.1c-38.3-11.6-71.5-18.1-104.4-20.4c-27.3-2-55.7-1.1-84.4,2.5c-31.1,3.9-63.3,11.4-95.8,22.1
							C57.5,402.3-6.5,437.7-59,482.1l-1.3-1.8C-7.5,435.6,56.8,400,125.8,377.2c32.7-10.8,65.1-18.3,96.3-22.2
							c28.9-3.6,57.4-4.4,84.8-2.5c33.1,2.4,66.4,8.9,104.9,20.5c17.9,5.4,35.8,11.5,53.1,18.1l3,1.1c15.2,5.8,30.9,11.7,48.4,14
							c11.2,1.5,21.5,1.2,31.6-0.7c23.5-4.5,37.6-18.5,42.6-29.1c7.1-15.3,1.9-29.1-4.6-43.1c-13.5-29.2-26.8-60.9-40.6-96.8
							c-4.3-11.3-9.5-26.2-10.6-42.1c-1.2-17.3,2.5-32.3,11.3-45.9c21.9-33.9,63.8-39.1,86.8-39.2c4.1,0,8.4,0,12.4,0.1
							c24.2,0.3,49.2,0.7,74.2-14.5c2.1-1.3,4.2-2.7,6.2-4.2c29.8-22.1,49.6-68.1,40.8-94.8L768.8-5.2z"/>
					</g>
					<g>
						
							<linearGradient id="SVGID_23_" gradientUnits="userSpaceOnUse" x1="492.1015" y1="657.6952" x2="950.8577" y2="657.6952" gradientTransform="matrix(-0.7488 -0.6628 0.841 -0.95 382.2035 1374.7104)">
							<stop  offset="0" style="stop-color:#7A99ED"/>
							<stop  offset="1" style="stop-color:#FEFCFF"/>
						</linearGradient>
						<path class="st24" d="M770.9-4.1c12.1,28.6-7.4,76.9-40.1,99.3c-2.2,1.5-4.5,2.9-6.8,4.1c-26.5,14.5-53,12.2-78.5,10.1
							c-4.7-0.4-9.7-0.8-14.4-1.1c-58-3.6-82,26.4-88,35.6c-19.1,29.6-8.3,62.4,3.2,87.7c16,35.1,32.6,68.7,49.4,99.9
							c7.8,14.5,14.9,30.2,7.5,47.8c-7.6,18.1-28.4,29.5-45.5,32.8c-10.7,2-21.5,2.1-33,0.2c-18.1-3-34.4-10.4-50.2-17.6l-3.1-1.4
							c-18.4-8.4-37.2-16.1-56.1-22.9c-39.7-14.4-76.7-23.6-113-28.2c-29.5-3.7-59.8-4.5-89.9-2.3c-32.9,2.4-66.5,8.7-100.1,18.7
							C41.7,379.6-23.8,415.4-77,462.3l-1.4-1.8C-25,413,40.9,376.9,112,355.9c33.8-10,67.6-16.3,100.7-18.8
							c30.3-2.2,60.7-1.4,90.4,2.3c36.5,4.6,73.6,13.9,113.5,28.4c18.9,6.9,37.8,14.6,56.2,23l3.1,1.4c15.7,7.1,31.9,14.5,49.7,17.5
							c11.2,1.9,21.8,1.8,32.2-0.1c16.3-3.1,35.9-13.8,43-30.7c6.9-16.4,0.1-31.5-7.5-45.6c-16.8-31.2-33.4-64.9-49.4-100.1
							c-11.8-25.8-22.7-59.5-2.8-90.3c9.3-14.5,23.4-25,41.8-31.2c18.5-6.3,36.9-6.7,49-6c4.8,0.3,9.7,0.7,14.5,1.1
							c25.2,2.1,51.2,4.3,76.9-9.7c2.2-1.2,4.3-2.5,6.5-4c31.6-21.6,50.4-68.1,38.8-95.7L770.9-4.1z"/>
					</g>
					<g>
						
							<linearGradient id="SVGID_24_" gradientUnits="userSpaceOnUse" x1="482.468" y1="659.0511" x2="978.3729" y2="659.0511" gradientTransform="matrix(-0.7488 -0.6628 0.841 -0.95 382.2035 1374.7104)">
							<stop  offset="0" style="stop-color:#7A99ED"/>
							<stop  offset="1" style="stop-color:#FEFCFF"/>
						</linearGradient>
						<path class="st25" d="M772.9-3c7.8,15.3,7,36.2-2.1,57.3c-9.1,21.1-24.9,38.3-43.2,47.3c-27.4,13.4-54.9,9.3-81.5,5.4
							c-5.4-0.8-10.9-1.6-16.3-2.3c-47.9-5.8-78.8,13.5-91.7,33.5c-19.9,30.9-5.8,66,6.6,89.8c18.3,35,37.8,69.8,58.2,103.2
							c4.1,6.7,8.6,14.5,11.1,23.2c2.8,9.6,2.6,18.5-0.7,27.1c-7.3,19.3-28.5,31.3-46.1,34.7c-32.5,6.1-59.6-8.1-85.8-21.8l-2.7-1.4
							c-95.9-50.2-186.2-73.4-276.2-71c-109.3,3-217.9,46.7-298,120l-1.5-2c80.7-73.9,190.1-118,300.1-121
							c90.4-2.4,181.1,20.8,277.3,71.2l2.7,1.4c25.9,13.6,52.6,27.6,84.3,21.6c16.7-3.1,36.6-14.4,43.5-32.3
							c6.7-17.6-1.5-33.3-10.4-48c-20.4-33.5-40-68.3-58.2-103.3c-26.5-50.7-16.3-77.2-6.3-92.7c20.5-31.9,62.4-39,94.8-35.1
							c5.4,0.7,11,1.5,16.4,2.3c26.2,3.9,53.3,7.9,79.8-5.1c17.5-8.5,32.6-25,41.3-45.3c8.8-20.3,9.5-40.3,2.1-55L772.9-3z"/>
					</g>
				</g>
			</g>
		</g>
		<g>
			<g>
				<defs>
					<rect id="SVGID_25_" width="750" height="500"/>
				</defs>
				<clipPath id="SVGID_26_">
					<use xlink:href="#SVGID_25_"  style="overflow:visible;"/>
				</clipPath>
				<g class="st26">
					
						<linearGradient id="SVGID_27_" gradientUnits="userSpaceOnUse" x1="-69.8745" y1="615.8" x2="200.8" y2="615.8" gradientTransform="matrix(-1 0 0 -1 750 1006)">
						<stop  offset="0" style="stop-color:#7A99ED"/>
						<stop  offset="1" style="stop-color:#FEFCFF"/>
					</linearGradient>
					<path class="st27" d="M813.5,123.8c17.2,41.3-3.2,87.7-28,117.4c-16.1,19.2-35.6,35.5-54.4,51.3
						c-12.7,10.7-25.9,21.7-37.9,33.5c-35.3,34.8-62,78.1-77.3,125.2c-7.6,23.6-12.7,48.7-17.5,73c-9.2,46.2-18.8,94-46.8,132.4
						l-2.4-1.8c27.6-37.9,37.1-85.3,46.3-131.2c4.9-24.4,9.9-49.6,17.6-73.3c15.2-47.6,42.2-91.3,77.9-126.4
						c12.1-11.9,25.3-23,38.1-33.7c18.8-15.7,38.2-31.9,54-50.9c24.3-29,44.3-74.3,27.6-114.3L813.5,123.8z"/>
					
						<linearGradient id="SVGID_28_" gradientUnits="userSpaceOnUse" x1="-35.3" y1="632.45" x2="239.9" y2="632.45" gradientTransform="matrix(-1 0 0 -1 750 1006)">
						<stop  offset="0" style="stop-color:#7A99ED"/>
						<stop  offset="1" style="stop-color:#FEFCFF"/>
					</linearGradient>
					<path class="st28" d="M784.6,120.8l0.7,0.3c-23.3,49.8-25.6,106.2-27.9,160.8c-1.7,42.2-3.5,85.8-14.9,126.6
						c-21.3,76.8-77.3,142.3-149.8,175.3c-7.3,3.3-14.9,6.4-22.2,9.4c-21.2,8.6-43.1,17.5-59.9,33.1l-0.5-0.6
						c17-15.7,38.9-24.6,60.2-33.2c7.3-3,14.9-6.1,22.2-9.4c72.2-32.9,128-98.3,149.3-174.8c11.3-40.7,13.1-84.3,14.9-126.5
						C758.9,227.2,761.3,170.7,784.6,120.8z"/>
					
						<linearGradient id="SVGID_29_" gradientUnits="userSpaceOnUse" x1="-21.8" y1="626.95" x2="280.2127" y2="626.95" gradientTransform="matrix(-1 0 0 -1 750 1006)">
						<stop  offset="0" style="stop-color:#7A99ED"/>
						<stop  offset="1" style="stop-color:#FEFCFF"/>
					</linearGradient>
					<path class="st29" d="M771,96.9l0.8,0.6c-28.5,34.1-47.1,79.7-58.6,143.5c-3.5,19.5-6.2,39.6-8.9,59
						c-4.3,31.7-8.8,64.4-16.8,95.9c-15.2,60.1-41.5,104.9-78,133.4c-15.1,11.7-32.3,20.9-48.9,29.7c-12.6,6.7-25.6,13.6-37.7,21.6
						c-15.9,10.6-52.9,39.7-52.1,80.6h-1c-0.8-41.4,36.4-70.8,52.5-81.5c12.1-8,25.1-15,37.8-21.7c16.6-8.8,33.7-17.9,48.7-29.6
						c36.4-28.3,62.5-73,77.7-132.8c8-31.4,12.4-64.2,16.8-95.8c2.6-19.4,5.4-39.4,8.9-59C723.7,176.9,742.4,131.2,771,96.9z"/>
					
						<linearGradient id="SVGID_30_" gradientUnits="userSpaceOnUse" x1="-49.5" y1="585.95" x2="189.6" y2="585.95" gradientTransform="matrix(-1 0 0 -1 750 1006)">
						<stop  offset="0" style="stop-color:#7A99ED"/>
						<stop  offset="1" style="stop-color:#FEFCFF"/>
					</linearGradient>
					<path class="st30" d="M798.8,144.9l0.7,0.1c-4.4,48.8-28.1,95.4-64.9,127.8c-10.6,9.3-22.5,17.7-33.9,25.7
						c-16.6,11.7-33.9,23.8-47.5,39.2c-23.9,27-38.2,66-42.7,116c-1.8,20.4-2.1,41.3-2.4,61.5c-0.3,21.1-0.6,43-2.6,64.3
						c-4.9,50-19.8,89-44.5,115.7l-0.6-0.5c24.6-26.6,39.6-65.4,44.4-115.3c2.1-21.3,2.4-43.2,2.6-64.3c0.3-20.2,0.5-41.1,2.4-61.6
						c4.5-50.1,18.9-89.3,42.9-116.4c13.7-15.5,30.9-27.6,47.6-39.3c11.4-8,23.2-16.3,33.8-25.6
						C770.8,239.9,794.4,193.5,798.8,144.9z"/>
				</g>
			</g>
		</g>
		<g>
			<g>
				<defs>
					<rect id="SVGID_31_" width="750" height="500"/>
				</defs>
				<clipPath id="SVGID_32_">
					<use xlink:href="#SVGID_31_"  style="overflow:visible;"/>
				</clipPath>
				<g class="st31">
					
						<linearGradient id="SVGID_33_" gradientUnits="userSpaceOnUse" x1="412.3" y1="981.7499" x2="904.9" y2="981.7499" gradientTransform="matrix(-1 0 0 -1 750 1006)">
						<stop  offset="0" style="stop-color:#7A99ED"/>
						<stop  offset="1" style="stop-color:#FEFCFF"/>
					</linearGradient>
					<path class="st32" d="M334.7-142.6l3,0.4c-5.5,44.4-46.2,74.6-82.5,88.1c-23.5,8.7-48.5,13.3-72.7,17.7
						c-16.4,3-33.3,6-49.5,10.4C85.1-13.2,40.5,11.1,3.8,44.5c-18.3,16.7-35.1,36-51.3,54.7c-30.9,35.6-62.9,72.3-106.2,91.9
						l-1.2-2.7c42.8-19.3,74.5-55.8,105.2-91.1c16.3-18.8,33.2-38.2,51.6-55C38.9,8.6,84-16,132.3-28.9c16.4-4.4,33.3-7.4,49.8-10.4
						c24.1-4.4,49-8.9,72.2-17.5C289.6-70.1,329.4-99.5,334.7-142.6z"/>
					
						<linearGradient id="SVGID_34_" gradientUnits="userSpaceOnUse" x1="435.5" y1="1010.8626" x2="924.5" y2="1010.8626" gradientTransform="matrix(-1 0 0 -1 750 1006)">
						<stop  offset="0" style="stop-color:#7A99ED"/>
						<stop  offset="1" style="stop-color:#FEFCFF"/>
					</linearGradient>
					<path class="st33" d="M314.1-159.1l0.4,0.6c-44.9,31.8-74.8,79.6-103.8,125.9c-22.4,35.8-45.5,72.8-75.6,102.7
						c-56.5,56.1-137.6,85.4-217,78.2c-8-0.7-16.1-1.8-24-2.9c-22.6-3-46.1-6.2-68.4-0.9l-0.2-0.7c22.5-5.2,46-2.1,68.7,0.9
						c7.9,1,16,2.1,23.9,2.9c79.1,7.1,160-22,216.4-78c30-29.8,53.1-66.8,75.5-102.5C239.1-79.3,269.1-127.3,314.1-159.1z"/>
					
						<linearGradient id="SVGID_35_" gradientUnits="userSpaceOnUse" x1="435.6" y1="1021.75" x2="977" y2="1021.75" gradientTransform="matrix(-1 0 0 -1 750 1006)">
						<stop  offset="0" style="stop-color:#7A99ED"/>
						<stop  offset="1" style="stop-color:#FEFCFF"/>
					</linearGradient>
					<path class="st34" d="M314.1-186.6l0.3,0.9C272.8-170.2,234-139.8,192.5-90c-12.7,15.2-25,31.3-36.9,46.8
						c-19.4,25.4-39.5,51.6-62.1,75.1c-43,44.6-88,70.6-133.8,77.2c-18.9,2.7-38.4,2.2-57.2,1.6c-14.3-0.4-29-0.9-43.5,0.1
						c-19.1,1.3-65.6,8.3-85.1,44.3l-0.9-0.5c19.8-36.4,66.7-43.5,86-44.8c14.5-1,29.3-0.6,43.6-0.1c18.8,0.6,38.2,1.1,57-1.6
						C5.2,101.5,50,75.6,92.8,31.2c22.5-23.4,42.6-49.6,62-75c11.9-15.5,24.2-31.6,36.9-46.9C233.4-140.5,272.3-171,314.1-186.6z"/>
					
						<linearGradient id="SVGID_36_" gradientUnits="userSpaceOnUse" x1="434.9" y1="957" x2="914.8" y2="957" gradientTransform="matrix(-1 0 0 -1 750 1006)">
						<stop  offset="0" style="stop-color:#7A99ED"/>
						<stop  offset="1" style="stop-color:#FEFCFF"/>
					</linearGradient>
					<path class="st35" d="M314.5-131.2l0.6,0.4c-28,40.2-71.6,69-119.7,78.9c-13.9,2.9-28.2,4.2-42.2,5.5
						C133-44.5,112-42.5,92.5-35.8C58.4-24.2,26.6,2.6-2,43.8c-11.7,16.8-22.3,34.9-32.5,52.3c-10.7,18.2-21.7,37.1-34.1,54.6
						c-29,41.1-61.3,67.5-96,78.5l-0.2-0.7c34.5-11,66.7-37.3,95.6-78.2c12.4-17.5,23.4-36.4,34.1-54.6
						c10.2-17.4,20.8-35.4,32.5-52.3C26.1,2.1,58.1-24.8,92.3-36.5c19.6-6.7,40.6-8.7,60.8-10.6c13.9-1.3,28.3-2.7,42.1-5.5
						C243.1-62.4,286.6-91.1,314.5-131.2z"/>
				</g>
			</g>
		</g>
		<g>
			<g>
				<defs>
					<rect id="SVGID_37_" width="750" height="500"/>
				</defs>
				<clipPath id="SVGID_38_">
					<use xlink:href="#SVGID_37_"  style="overflow:visible;"/>
				</clipPath>
				<g class="st36">
					<g>
						<g>
							
								<image style="overflow:visible;opacity:0.75;enable-background:new    ;" width="9" height="10" xlink:href="67E89EFE65816E3.png"  transform="matrix(-1 0 0 -1 645 452)">
							</image>
							<g>
								<path class="st37" d="M639,447.3c0-0.8,0.7-1.5,1.5-1.5s1.5,0.7,1.5,1.5c0,0.8-0.7,1.5-1.5,1.5S639,448.1,639,447.3z"/>
							</g>
						</g>
						<g>
							
								<image style="overflow:visible;opacity:0.75;enable-background:new    ;" width="10" height="10" xlink:href="67E89EFE65816E1.png"  transform="matrix(-1 0 0 -1 462 442)">
							</image>
							<g>
								<path class="st37" d="M456,436.6c0-0.8,0.7-1.5,1.5-1.5s1.5,0.7,1.5,1.5c0,0.8-0.7,1.5-1.5,1.5
									C456.6,438,456,437.4,456,436.6z"/>
							</g>
						</g>
					</g>
					<g>
						<g>
							
								<image style="overflow:visible;opacity:0.75;enable-background:new    ;" width="10" height="10" xlink:href="67E89EFE65816E7.png"  transform="matrix(-1 0 0 -1 263 463)">
							</image>
							<g>
								<path class="st37" d="M256.9,458.1c0-0.8,0.7-1.5,1.5-1.5s1.5,0.7,1.5,1.5c0,0.8-0.7,1.5-1.5,1.5S256.9,458.9,256.9,458.1z"
									/>
							</g>
						</g>
						<g>
							
								<image style="overflow:visible;opacity:0.75;enable-background:new    ;" width="10" height="10" xlink:href="67E89EFE65816E0.png"  transform="matrix(-1 0 0 -1 80 452)">
							</image>
							<g>
								<path class="st37" d="M73.8,447.3c0-0.8,0.7-1.5,1.5-1.5s1.5,0.7,1.5,1.5c0,0.8-0.7,1.5-1.5,1.5S73.8,448.1,73.8,447.3z"/>
							</g>
						</g>
					</g>
					<g>
						
							<image style="overflow:visible;opacity:0.75;enable-background:new    ;" width="10" height="10" xlink:href="67E89EFE65816EE.png"  transform="matrix(-1 0 0 -1 699 149)">
						</image>
						<g>
							<path class="st37" d="M692.4,144c0-0.8,0.7-1.5,1.5-1.5c0.8,0,1.5,0.7,1.5,1.5s-0.7,1.5-1.5,1.5
								C693.1,145.5,692.4,144.8,692.4,144z"/>
						</g>
					</g>
					<g>
						
							<image style="overflow:visible;opacity:0.75;enable-background:new    ;" width="10" height="10" xlink:href="67E89EFE65816EF.png"  transform="matrix(-1 0 0 -1 623 61)">
						</image>
						<g>
							<path class="st37" d="M616.7,56.2c0-0.8,0.7-1.5,1.5-1.5s1.5,0.7,1.5,1.5s-0.7,1.5-1.5,1.5C617.4,57.6,616.7,57,616.7,56.2z"
								/>
						</g>
					</g>
					<g>
						
							<image style="overflow:visible;opacity:0.75;enable-background:new    ;" width="10" height="9" xlink:href="67E89EFE65816E2.png"  transform="matrix(-1 0 0 -1 473 176)">
						</image>
						<g>
							<path class="st37" d="M466.9,171.5c0-0.8,0.7-1.5,1.5-1.5s1.5,0.7,1.5,1.5s-0.7,1.5-1.5,1.5
								C467.5,172.9,466.9,172.3,466.9,171.5z"/>
						</g>
					</g>
					<g>
						
							<image style="overflow:visible;opacity:0.75;enable-background:new    ;" width="10" height="10" xlink:href="67E89EFE65816E5.png"  transform="matrix(-1 0 0 -1 304 313)">
						</image>
						<g>
							<path class="st37" d="M297.9,307.7c0-0.8,0.7-1.5,1.5-1.5s1.5,0.7,1.5,1.5c0,0.8-0.7,1.5-1.5,1.5S297.9,308.5,297.9,307.7z"
								/>
						</g>
					</g>
					<g>
						
							<image style="overflow:visible;opacity:0.75;enable-background:new    ;" width="10" height="10" xlink:href="67E89EFE65816E6.png"  transform="matrix(-1 0 0 -1 190 83)">
						</image>
						<g>
							<path class="st37" d="M183.5,78c0-0.8,0.7-1.5,1.5-1.5s1.5,0.7,1.5,1.5s-0.7,1.5-1.5,1.5S183.5,78.8,183.5,78z"/>
						</g>
					</g>
					<g>
						
							<image style="overflow:visible;opacity:0.75;enable-background:new    ;" width="10" height="10" xlink:href="F049EFAC4ABB4ED0.png"  transform="matrix(-1 0 0 -1 92 313)">
						</image>
						<g>
							<path class="st37" d="M85.2,307.7c0-0.8,0.7-1.5,1.5-1.5s1.5,0.7,1.5,1.5c0,0.8-0.7,1.5-1.5,1.5S85.2,308.5,85.2,307.7z"/>
						</g>
					</g>
					<g>
						
							<image style="overflow:visible;opacity:0.75;enable-background:new    ;" width="10" height="9" xlink:href="F049EFAC4ABB4ED7.png"  transform="matrix(-1 0 0 -1 37 243)">
						</image>
						<g>
							<path class="st37" d="M30.2,238.5c0-0.8,0.7-1.5,1.5-1.5s1.5,0.7,1.5,1.5s-0.7,1.5-1.5,1.5C30.8,240,30.2,239.3,30.2,238.5z"
								/>
						</g>
					</g>
					<g>
						
							<image style="overflow:visible;opacity:0.75;enable-background:new    ;" width="10" height="10" xlink:href="F049EFAC4ABB4ED1.png"  transform="matrix(-1 0 0 -1 232 234)">
						</image>
						<g>
							<path class="st37" d="M225.5,229c0-0.8,0.7-1.5,1.5-1.5s1.5,0.7,1.5,1.5s-0.7,1.5-1.5,1.5S225.5,229.8,225.5,229z"/>
						</g>
					</g>
					<g>
						
							<image style="overflow:visible;opacity:0.75;enable-background:new    ;" width="10" height="10" xlink:href="F049EFAC4ABB4ED3.png"  transform="matrix(-1 0 0 -1 622 301)">
						</image>
						<g>
							<path class="st37" d="M615.3,296.2c0-0.8,0.7-1.5,1.5-1.5s1.5,0.7,1.5,1.5c0,0.8-0.7,1.5-1.5,1.5
								C615.9,297.6,615.3,297,615.3,296.2z"/>
						</g>
					</g>
				</g>
			</g>
		</g>
		<g>
			<g>
				<defs>
					<rect id="SVGID_39_" width="750" height="500"/>
				</defs>
				<clipPath id="SVGID_40_">
					<use xlink:href="#SVGID_39_"  style="overflow:visible;"/>
				</clipPath>
				
					<pattern  id="SVGID_41_" xlink:href="#SVGID_43_" patternTransform="matrix(-0.4566 -0.4566 0.4566 -0.4566 345.209 -23600.3789)">
				</pattern>
				<circle class="st38" cx="50" cy="390.2" r="131.5"/>
			</g>
		</g>
		<g>
			<g>
				<defs>
					<rect id="SVGID_42_" width="750" height="500"/>
				</defs>
				<clipPath id="SVGID_44_">
					<use xlink:href="#SVGID_42_"  style="overflow:visible;"/>
				</clipPath>
				
					<pattern  id="SVGID_45_" xlink:href="#SVGID_46_" patternTransform="matrix(-0.4566 -0.4566 0.4566 -0.4566 345.209 -23600.3789)">
				</pattern>
				<circle class="st39" cx="760.7" cy="270.8" r="131.5"/>
			</g>
		</g>
		<g>
			<g>
				<defs>
					<rect id="SVGID_47_" width="750" height="500"/>
				</defs>
				<clipPath id="SVGID_48_">
					<use xlink:href="#SVGID_47_"  style="overflow:visible;"/>
				</clipPath>
				
					<pattern  id="SVGID_50_" xlink:href="#SVGID_49_" patternTransform="matrix(-0.4566 -0.4566 0.4566 -0.4566 345.209 -23600.3789)">
				</pattern>
				<circle class="st40" cx="76.8" cy="-30.2" r="131.5"/>
			</g>
		</g>
		<g>
			<g>
				<defs>
					<rect id="SVGID_51_" width="750" height="500"/>
				</defs>
				<clipPath id="SVGID_52_">
					<use xlink:href="#SVGID_51_"  style="overflow:visible;"/>
				</clipPath>
				<path class="st41" d="M191.1,233.1c9.9,0,17.9,8,17.9,17.9s-8,17.9-17.9,17.9s-17.9-8-17.9-17.9S181.3,233.1,191.1,233.1z
					 M191.1,266.9c8.8,0,15.9-7.1,15.9-15.9s-7.1-15.9-15.9-15.9s-15.9,7.1-15.9,15.9S182.4,266.9,191.1,266.9z"/>
			</g>
		</g>
		<g>
			<g>
				<defs>
					<rect id="SVGID_53_" width="750" height="500"/>
				</defs>
				<clipPath id="SVGID_54_">
					<use xlink:href="#SVGID_53_"  style="overflow:visible;"/>
				</clipPath>
				<path class="st42" d="M484.5,273.5c9.9,0,17.9,8,17.9,17.9s-8,17.9-17.9,17.9s-17.9-8-17.9-17.9S474.6,273.5,484.5,273.5z
					 M484.5,307.3c8.8,0,15.9-7.1,15.9-15.9s-7.1-15.9-15.9-15.9s-15.9,7.1-15.9,15.9S475.7,307.3,484.5,307.3z"/>
			</g>
		</g>
		<g>
			<g>
				<defs>
					<rect id="SVGID_55_" width="750" height="500"/>
				</defs>
				<clipPath id="SVGID_56_">
					<use xlink:href="#SVGID_55_"  style="overflow:visible;"/>
				</clipPath>
				<path class="st43" d="M228.5,31.2c9.9,0,17.9,8,17.9,17.9s-8,17.9-17.9,17.9c-9.9,0-17.9-8-17.9-17.9S218.6,31.2,228.5,31.2z
					 M228.5,65c8.8,0,15.9-7.1,15.9-15.9s-7.1-15.9-15.9-15.9s-15.9,7.1-15.9,15.9S219.7,65,228.5,65z"/>
			</g>
		</g>
		<g>
			<g>
				<defs>
					<rect id="SVGID_57_" width="750" height="500"/>
				</defs>
				<clipPath id="SVGID_58_">
					<use xlink:href="#SVGID_57_"  style="overflow:visible;"/>
				</clipPath>
				<path class="st44" d="M483.6,92.6c9.9,0,17.9,8,17.9,17.9s-8,17.9-17.9,17.9s-17.9-8-17.9-17.9S473.8,92.6,483.6,92.6z
					 M483.6,126.3c8.8,0,15.9-7.1,15.9-15.9s-7.1-15.9-15.9-15.9s-15.9,7.1-15.9,15.9S474.9,126.3,483.6,126.3z"/>
			</g>
		</g>
		<g>
			<g>
				<defs>
					<rect id="SVGID_59_" width="750" height="500"/>
				</defs>
				<clipPath id="SVGID_60_">
					<use xlink:href="#SVGID_59_"  style="overflow:visible;"/>
				</clipPath>
				<path class="st45" d="M150.4,210.9c5.3,0,9.7,4.3,9.7,9.7c0,5.3-4.3,9.7-9.7,9.7c-5.3,0-9.7-4.3-9.7-9.7
					C140.7,215.2,145.1,210.9,150.4,210.9z M150.4,229.1c4.7,0,8.6-3.9,8.6-8.6s-3.9-8.6-8.6-8.6c-4.7,0-8.6,3.9-8.6,8.6
					C141.8,225.3,145.7,229.1,150.4,229.1z"/>
			</g>
		</g>
		<g>
			<g>
				<defs>
					<rect id="SVGID_61_" width="750" height="500"/>
				</defs>
				<clipPath id="SVGID_62_">
					<use xlink:href="#SVGID_61_"  style="overflow:visible;"/>
				</clipPath>
				<path class="st46" d="M282,198.9c5.3,0,9.7,4.3,9.7,9.7s-4.3,9.7-9.7,9.7s-9.7-4.3-9.7-9.7S276.7,198.9,282,198.9z M282,217.2
					c4.7,0,8.6-3.9,8.6-8.6s-3.9-8.6-8.6-8.6s-8.6,3.9-8.6,8.6S277.3,217.2,282,217.2z"/>
			</g>
		</g>
		<g>
			<g>
				<defs>
					<rect id="SVGID_63_" width="750" height="500"/>
				</defs>
				<clipPath id="SVGID_64_">
					<use xlink:href="#SVGID_63_"  style="overflow:visible;"/>
				</clipPath>
				<path class="st47" d="M586,66.9c5.3,0,9.7,4.3,9.7,9.7c0,5.3-4.3,9.7-9.7,9.7s-9.7-4.3-9.7-9.7C576.3,71.2,580.7,66.9,586,66.9z
					 M586,85.2c4.7,0,8.6-3.9,8.6-8.6S590.7,68,586,68s-8.6,3.9-8.6,8.6C577.4,81.3,581.3,85.2,586,85.2z"/>
			</g>
		</g>
		<g>
			<g>
				<defs>
					<rect id="SVGID_65_" width="750" height="500"/>
				</defs>
				<clipPath id="SVGID_66_">
					<use xlink:href="#SVGID_65_"  style="overflow:visible;"/>
				</clipPath>
				<path class="st48" d="M570.1,436.2c5.3,0,9.7,4.3,9.7,9.7s-4.3,9.7-9.7,9.7c-5.4,0-9.7-4.3-9.7-9.7S564.8,436.2,570.1,436.2z
					 M570.1,454.4c4.7,0,8.6-3.9,8.6-8.6c0-4.7-3.9-8.6-8.6-8.6c-4.7,0-8.6,3.9-8.6,8.6C561.5,450.5,565.4,454.4,570.1,454.4z"/>
			</g>
		</g>
		<g>
			<g>
				<defs>
					<rect id="SVGID_67_" width="750" height="500"/>
				</defs>
				<clipPath id="SVGID_68_">
					<use xlink:href="#SVGID_67_"  style="overflow:visible;"/>
				</clipPath>
				<path class="st49" d="M435.7,477.8c-8.7,0-15.8-7.1-15.9-15.8h-2c0.1,9.8,8.1,17.8,17.9,17.8s17.8-8,17.9-17.8h-2
					C451.6,470.7,444.5,477.8,435.7,477.8z"/>
			</g>
		</g>
		<g>
			<g>
				<defs>
					<rect id="SVGID_69_" width="750" height="500"/>
				</defs>
				<clipPath id="SVGID_70_">
					<use xlink:href="#SVGID_69_"  style="overflow:visible;"/>
				</clipPath>
				<path class="st50" d="M754.4,117.3c-8.7,0-15.8-7.1-15.9-15.8h-2c0.1,9.8,8.1,17.8,17.9,17.8c9.8,0,17.8-8,17.9-17.8h-2
					C770.2,110.3,763.1,117.3,754.4,117.3z"/>
			</g>
		</g>
		<g>
			<g>
				<defs>
					<rect id="SVGID_71_" width="750" height="500"/>
				</defs>
				<clipPath id="SVGID_72_">
					<use xlink:href="#SVGID_71_"  style="overflow:visible;"/>
				</clipPath>
				<path class="st51" d="M68.4,245.4c-8.7,0-15.8-7.1-15.9-15.8h-2c0.1,9.8,8.1,17.8,17.9,17.8s17.8-8,17.9-17.8h-2
					C84.2,238.3,77.1,245.4,68.4,245.4z"/>
			</g>
		</g>
	</g>
</g>
</svg>
