<?xml version="1.0" encoding="utf-8"?>
<!-- Generator: Adobe Illustrator 24.2.3, SVG Export Plug-In . SVG Version: 6.00 Build 0)  -->
<svg version="1.1" id="Layer_1" xmlns="http://www.w3.org/2000/svg" xmlns:xlink="http://www.w3.org/1999/xlink" x="0px" y="0px"
	 viewBox="0 0 750 500" style="enable-background:new 0 0 750 500;" xml:space="preserve">
<style type="text/css">
	.st0{fill:none;}
	.st1{fill:#FFFFFF;}
	.st2{fill:url(#SVGID_1_);}
	.st3{opacity:0.5;}
	.st4{opacity:0.7;clip-path:url(#SVGID_3_);fill:url(#SVGID_4_);enable-background:new    ;}
	.st5{opacity:0.7;clip-path:url(#SVGID_6_);}
	.st6{fill:url(#SVGID_7_);}
	.st7{fill:url(#SVGID_8_);}
	.st8{fill:url(#SVGID_9_);}
	.st9{fill:url(#SVGID_10_);}
	.st10{fill:url(#SVGID_11_);}
	.st11{fill:url(#SVGID_12_);}
	.st12{fill:url(#SVGID_13_);}
	.st13{fill:url(#SVGID_14_);}
	.st14{fill:url(#SVGID_15_);}
	.st15{fill:url(#SVGID_16_);}
	.st16{fill:url(#SVGID_17_);}
	.st17{fill:url(#SVGID_18_);}
	.st18{fill:url(#SVGID_19_);}
	.st19{fill:url(#SVGID_20_);}
	.st20{fill:url(#SVGID_21_);}
	.st21{fill:url(#SVGID_22_);}
	.st22{fill:url(#SVGID_23_);}
	.st23{opacity:0.7;clip-path:url(#SVGID_25_);}
	.st24{fill:url(#SVGID_26_);}
	.st25{fill:url(#SVGID_27_);}
	.st26{fill:url(#SVGID_28_);}
	.st27{fill:url(#SVGID_29_);}
	.st28{opacity:0.7;clip-path:url(#SVGID_34_);}
	.st29{fill:url(#SVGID_35_);}
	.st30{fill:url(#SVGID_36_);}
	.st31{fill:url(#SVGID_37_);}
	.st32{fill:url(#SVGID_38_);}
	.st33{clip-path:url(#SVGID_40_);}
	.st34{fill:#55CBFF;}
	.st35{clip-path:url(#SVGID_42_);fill:url(#SVGID_43_);}
	.st36{clip-path:url(#SVGID_45_);fill:url(#SVGID_46_);}
	.st37{clip-path:url(#SVGID_48_);fill:url(#SVGID_49_);}
	.st38{opacity:0.5;clip-path:url(#SVGID_51_);fill:#FFFFFF;enable-background:new    ;}
	.st39{opacity:0.5;clip-path:url(#SVGID_53_);fill:#FFFFFF;enable-background:new    ;}
	.st40{opacity:0.5;clip-path:url(#SVGID_55_);fill:#FFFFFF;enable-background:new    ;}
	.st41{opacity:0.5;clip-path:url(#SVGID_57_);fill:#FFFFFF;enable-background:new    ;}
	.st42{opacity:0.5;clip-path:url(#SVGID_59_);fill:#FFFFFF;enable-background:new    ;}
	.st43{opacity:0.5;clip-path:url(#SVGID_61_);fill:#FFFFFF;enable-background:new    ;}
	.st44{opacity:0.5;clip-path:url(#SVGID_63_);fill:#FFFFFF;enable-background:new    ;}
	.st45{opacity:0.5;clip-path:url(#SVGID_65_);fill:#FFFFFF;enable-background:new    ;}
	.st46{opacity:0.5;clip-path:url(#SVGID_67_);fill:#FFFFFF;enable-background:new    ;}
	.st47{opacity:0.5;clip-path:url(#SVGID_69_);fill:#FFFFFF;enable-background:new    ;}
	.st48{opacity:0.5;clip-path:url(#SVGID_71_);fill:#FFFFFF;enable-background:new    ;}
</style>
<pattern  y="500" width="9.5" height="9.5" patternUnits="userSpaceOnUse" id="SVGID_30_" viewBox="0 -9.5 9.5 9.5" style="overflow:visible;">
	<g>
		<rect y="-9.5" class="st0" width="9.5" height="9.5"/>
		<g>
			<rect y="-9.5" class="st0" width="9.5" height="9.5"/>
			<circle class="st1" cx="4.7" cy="-4.8" r="1.2"/>
		</g>
	</g>
</pattern>
<pattern  y="500" width="9.5" height="9.5" patternUnits="userSpaceOnUse" id="SVGID_31_" viewBox="0 -9.5 9.5 9.5" style="overflow:visible;">
	<g>
		<rect y="-9.5" class="st0" width="9.5" height="9.5"/>
		<g>
			<rect y="-9.5" class="st0" width="9.5" height="9.5"/>
			<circle class="st1" cx="4.7" cy="-4.8" r="1.2"/>
		</g>
	</g>
</pattern>
<pattern  y="500" width="9.5" height="9.5" patternUnits="userSpaceOnUse" id="SVGID_32_" viewBox="0 -9.5 9.5 9.5" style="overflow:visible;">
	<g>
		<rect y="-9.5" class="st0" width="9.5" height="9.5"/>
		<g>
			<rect y="-9.5" class="st0" width="9.5" height="9.5"/>
			<circle class="st1" cx="4.7" cy="-4.8" r="1.2"/>
		</g>
	</g>
</pattern>
<g id="BACKGROUND">
	
		<linearGradient id="SVGID_1_" gradientUnits="userSpaceOnUse" x1="449.4919" y1="-69.2017" x2="299.8033" y2="576.2408" gradientTransform="matrix(1 0 0 -1 0 502)">
		<stop  offset="5.208302e-04" style="stop-color:#032656"/>
		<stop  offset="0.5" style="stop-color:#08EDE9"/>
		<stop  offset="1" style="stop-color:#07DFAF"/>
	</linearGradient>
	<rect class="st2" width="750" height="500"/>
</g>
<g id="OBJECTS">
	<g class="st3">
		<g>
			<defs>
				<rect id="SVGID_2_" width="750" height="500"/>
			</defs>
			<clipPath id="SVGID_3_">
				<use xlink:href="#SVGID_2_"  style="overflow:visible;"/>
			</clipPath>
			
				<linearGradient id="SVGID_4_" gradientUnits="userSpaceOnUse" x1="807.9485" y1="137.0028" x2="1349.0627" y2="137.0028" gradientTransform="matrix(0.55 0.8352 0.8352 -0.55 -125.8159 -330.2852)">
				<stop  offset="0" style="stop-color:#7A99ED"/>
				<stop  offset="1" style="stop-color:#FEFCFF"/>
			</linearGradient>
			<path class="st4" d="M474.3,535.4c8,46.5,26,92.5,52.1,133.3c0.8,1.3,1.7,2.6,2.6,3.9c25.5,38.7,58.7,73.3,96.2,100.3l0.7-1
				c-38.6-27.8-72.6-63.6-98.4-103.8c-26-40.6-44-86.5-51.9-132.8c-9.5-55.3-3.1-107.3,17.6-147.5c4.3,0.7,8.6,1.4,13,2.1
				c-18.4,41.2-22.7,93.3-11,148.6c9.6,45.8,28.1,89.3,53.7,128.1c27.3,41.5,62.8,77.6,104.4,105.4l0.7-1.1
				C573.6,717.2,516.2,632.4,496.4,538c-11.6-55.1-7.3-107.1,11.1-148.1c41.6,6.4,83.8,10.1,124.2-0.6c21.6-5.7,42-15.5,60.1-28.6
				c3.2-2.1,6.4-4.2,9.5-6.5c3.2-2,6.3-4.1,9.4-6.4c3.3-2,6.4-4.2,9.5-6.4c3.3-2,6.4-4.1,9.5-6.4c3.3-2,6.6-4.2,9.7-6.4
				c3.3-2,6.5-4.1,9.6-6.3c3.3-2,6.6-4.1,9.8-6.3l0.1-0.1c2.6-1.5,5.1-3.1,7.5-4.7c0.7-0.5,1.4-1,2.2-1.5c1.8-1.1,3.7-2.2,5.5-3.3
				c1.5-1,3.1-2,4.6-3c1-0.6,2-1.2,3.1-1.8c2.4-1.5,4.8-3,7.2-4.6c0.1-0.1,0.3-0.1,0.4-0.2c3.4-1.9,6.7-4,10.1-6.1
				c3.6-2,7.2-4.1,10.7-6.3c3-1.6,6.1-3.3,9-5c0.6-0.4,1.2-0.7,1.8-1.1c1.8-0.9,3.7-1.9,5.5-2.8c1.9-1,3.8-2.1,5.6-3.2
				c0.5-0.3,1.1-0.5,1.6-0.8c3.1-1.5,6.2-3.1,9.3-4.8c3.8-1.6,7.6-3.4,11.3-5.3c23.9-9.5,45.9-24.1,62.5-41.4
				c20-21,31.6-45.4,33.4-70.6l-1.3-0.1c-1.9,24.9-13.3,49-33.1,69.8c-13.4,14.1-30.5,26.4-49.3,35.5c13.7-8.3,26.5-18.4,37.8-29.9
				c23.4-23.5,39-51.3,44.1-78.3l-1.3-0.2c-5,26.7-20.5,54.2-43.7,77.6c-14.2,14.4-30.8,26.6-48.5,35.9c15.2-9.8,29.7-22,42.7-36
				c22.9-24.5,40.7-53.7,48.9-80.2l-1.2-0.4c-8.2,26.3-25.9,55.4-48.6,79.7c-14.7,15.7-31.1,29.1-48.3,39.4
				c-0.2,0.1-0.4,0.2-0.6,0.2c-0.3,0.1-0.6,0.2-0.9,0.3c15.2-10.8,30-24.2,44-40.2c22.2-25,41.8-54.9,53.8-82.1l-1.1-0.5
				c-12,27.1-31.5,56.9-53.6,81.8c-15.1,17-30.9,31.2-47.2,42.3c-0.9,0.3-1.9,0.6-2.8,0.9c14.8-11.5,29.4-25.9,44.1-43.5
				c26.9-31.8,48.3-66.3,58.6-84l-1-0.6c-10.3,17.7-31.7,52.1-58.5,83.9c-15.5,18.4-30.8,33.3-46.3,45.1c-1.2,0.4-2.3,0.7-3.5,1
				c14.3-12.2,28.6-27.4,43.9-46.5c15.7-19.5,31.1-41,44.6-59.9c6.7-9.3,13-18.2,18.8-26.1l-0.8-0.6c-5.9,7.9-12.2,16.7-18.9,26.1
				c-13.5,18.9-28.9,40.4-44.6,59.9c-15.9,19.8-30.7,35.4-45.5,47.8c-1.3,0.4-2.6,0.7-3.9,1.1c16.8-15.6,31.1-33.2,43.5-49.2
				c7.6-9.8,15.2-20.1,22.6-30.1c16.2-21.7,31.4-42.2,45.7-57.9l-0.7-0.7c-14.3,15.7-29.6,36.2-45.7,57.9
				c-7.4,10-15.1,20.2-22.6,30.1c-12.7,16.5-27.5,34.6-44.8,50.4c-1.4,0.4-2.8,0.7-4.1,1c16.4-16.5,30.5-35,43-51.8
				c3.1-4.1,6.1-8.3,9.2-12.5c21.1-28.7,42.9-58.3,64-77.4l-0.6-0.7c-21.1,19.2-43,48.9-64.1,77.6c-3.1,4.2-6.2,8.4-9.2,12.5
				c-12.7,17.2-27.2,36.1-44,52.8c-1.5,0.3-2.9,0.7-4.4,1c14.9-16.1,28.4-34.4,42.5-54.3c23.8-33.3,50.7-70.9,78-91.9l-0.5-0.7
				c-27.4,21-54.4,58.8-78.2,92.1c-14.4,20.2-28,38.8-43.3,55.1c-1.6,0.3-3.2,0.7-4.8,1c15.1-17.5,28.5-36.9,41.6-55.9l0.5-0.7
				c46.1-66.8,67-83.5,82.9-93.9l-0.4-0.7c-13.8,9-28.1,22.4-43.7,41.1c-14,16.7-27.2,35.3-39.4,53l-0.5,0.7
				c-13.2,19.3-26.8,39-42.2,56.6c-1.6,0.3-3.3,0.6-4.9,0.9c13.5-16.7,25.6-34.8,37.4-52.6l4.1-6.2c44-65.8,69-85.4,87.8-95.9
				l-0.4-0.7c-15.3,8.6-30.8,22-47.2,41c-15.7,18.2-30.1,39-40.8,55.1l-4.1,6.2c-12,18-24.2,36.4-37.9,53.2
				c-1.7,0.3-3.4,0.6-5.1,0.9c12.2-16,23.2-33.1,34-49.9c2.4-3.7,4.7-7.3,7.1-11c23.3-36,54.9-79.7,92.7-97.9l-0.3-0.6
				c-16.9,8.1-33.5,21.5-50.7,41c-13.1,14.8-26.5,32.9-42.2,57.1c-2.4,3.7-4.7,7.3-7.1,11c-10.9,17-22,34.4-34.4,50.5
				c-1.7,0.3-3.5,0.5-5.2,0.8c11.1-15.3,21.2-31.6,31-47.6c3.1-5,6.3-10.2,9.5-15.3c45.2-72,77.3-91.5,97.6-99.9l-0.2-0.6
				c-18.4,7.6-36.1,21-54.2,40.9c-14.1,15.4-27.9,34.2-43.6,59.2c-3.2,5.1-6.4,10.3-9.5,15.3c-10,16.1-20.1,32.6-31.4,48.1
				c-1.8,0.3-3.6,0.5-5.4,0.7c10.1-14.8,19.4-30.3,28.5-45.6c3.8-6.3,7.7-12.9,11.5-19.2c21.9-35.8,56.3-85.2,102.4-101.9l-0.2-0.5
				C880,126.4,845.5,176,823.6,211.8c-3.9,6.4-7.8,12.9-11.5,19.2c-9.2,15.4-18.5,31.1-28.8,46c-1.8,0.2-3.6,0.5-5.5,0.7
				c9.3-14.3,17.9-29.1,26.3-43.8c4.3-7.5,8.8-15.3,13.3-22.9c15.6-26.2,30.8-46.9,46.3-63.2c19.5-20.5,40-34.2,61-40.7l-0.2-0.5
				c-21,6.6-41.6,20.3-61.2,40.8c-15.6,16.3-30.8,37-46.4,63.3c-4.5,7.6-9,15.3-13.3,22.9c-8.5,14.7-17.1,29.7-26.5,44.1
				c-1.9,0.2-3.7,0.5-5.6,0.7c8.6-13.8,16.5-28.1,24.3-42.1c4.8-8.7,9.8-17.6,14.8-26.3c35-60.3,71.7-94.9,112.2-105.9l-0.1-0.4
				c-40.6,11-77.4,45.7-112.5,106.1c-5,8.7-10,17.6-14.8,26.3c-7.9,14.1-15.8,28.5-24.5,42.4c-1.9,0.2-3.8,0.4-5.7,0.6
				c7.9-13.3,15.3-27,22.5-40.5c5.2-9.8,10.6-19.8,16.2-29.6c15.9-28,32-50,49.1-67.3c21.2-21.4,44.1-35,68-40.6l-0.1-0.4
				c-24,5.6-46.9,19.3-68.2,40.7c-17.2,17.3-33.3,39.3-49.2,67.4c-5.5,9.7-10.9,19.8-16.2,29.6c-7.3,13.6-14.7,27.4-22.7,40.8
				c-1.9,0.2-3.9,0.4-5.8,0.6c7.3-12.9,14.2-26,21-39.1c5.6-10.8,11.4-21.9,17.4-32.7c16-28.9,32.6-51.6,50.5-69.3
				c22.1-21.8,46.2-35.5,71.5-40.6l-0.1-0.3c-25.4,5.1-49.5,18.8-71.7,40.7c-18,17.8-34.5,40.5-50.6,69.4
				c-6,10.7-11.8,21.9-17.4,32.7c-6.8,13.1-13.7,26.3-21.1,39.3c-10.9,1-21.8,1.8-32.5,2.7c-12.2,0.9-24.8,1.9-37.1,3.1
				c-22.8,2.3-50.8,6.2-78.4,15.2c-7,1.7-13.7,3.7-20.2,5.8c-5.5,1.4-10.8,2.9-15.9,4.6c-7,1.7-13.7,3.6-20.1,5.8
				c-5.5,1.4-10.8,2.9-15.9,4.5c-6.2,1.5-12.3,3.2-18.1,5c-6.4,1.5-12.6,3.2-18.6,5.1c-6,1.4-11.8,3-17.4,4.7
				c-6.5,1.5-12.8,3.1-18.9,5c-6.3,1.4-12.5,3-18.5,4.9c-6.4,1.4-12.6,3-18.6,4.8c-6.4,1.4-12.7,2.9-18.8,4.7
				c-6.6,1.4-13,2.9-19.2,4.7c-6.5,1.3-12.9,2.8-19.2,4.5c-6.5,1.2-12.9,2.7-19.1,4.4c-6.8,1.2-13.5,2.7-20,4.4
				c-6.8,1.2-13.4,2.5-19.9,4.1c-15.5,2.5-30.3,6-44.3,10.6c-26.6,8.7-51.9,22-73,38.5c-22.7,17.8-40.5,38.7-52.8,62.3
				c-11.5,22-18.5,47.2-21,74.7c-2.3,24.8-0.8,51.2,4.4,78.4C135.1,694,156.4,742.8,177,790l0.3-0.1c-20.6-47.2-41.9-96-51.8-147.6
				c-5.2-27.1-6.7-53.5-4.4-78.3c2.5-27.5,9.6-52.6,21-74.5c12.3-23.5,30-44.5,52.7-62.2c21.1-16.5,46.3-29.8,72.9-38.5
				c12.8-4.2,26.3-7.5,40.3-10c-1.5,0.4-3,0.8-4.5,1.2c-7.1,2-14.1,4.2-20.8,6.7c-54.1,20-97.8,58.4-120,105.4
				c-10.5,22.2-16.7,47.2-18.5,74.4c-1.6,24.8,0.4,50.8,6.1,77.5c10.5,49.1,31,94.7,54.7,144.9l0.4-0.2
				c-23.7-50.2-44.2-95.8-54.7-144.8c-5.7-26.6-7.7-52.6-6.1-77.4c1.8-27.1,8-52.1,18.4-74.2c22.2-46.9,65.8-85.3,119.8-105.2
				c6.7-2.5,13.7-4.8,20.8-6.7c3-0.8,6-1.6,9.1-2.3c2.5-0.4,5.1-0.8,7.7-1.1c-0.7,0.2-1.4,0.4-2.1,0.6c-7,2.2-13.9,4.7-20.6,7.5
				c-52.1,21.6-93.8,61.7-114.3,110c-9.5,22.3-14.8,47.2-15.9,74c-1,24.7,1.7,50.4,7.8,76.6c11.9,50.2,35,97.8,57.6,142.2l0.4-0.2
				c-22.6-44.4-45.7-91.9-57.6-142.1c-6.2-26.1-8.8-51.8-7.8-76.4c1.1-26.8,6.4-51.6,15.9-73.9c20.5-48.3,62.1-88.3,114.1-109.8
				c6.6-2.7,13.5-5.3,20.5-7.5c1.6-0.5,3.2-1,4.8-1.4c2.8-0.4,5.6-0.7,8.4-1c-6.4,2.3-12.8,4.9-18.9,7.7
				c-50.2,23.1-89.8,64.8-108.6,114.6c-8.5,22.4-13,47.2-13.3,73.7c-0.3,24.6,2.9,50,9.6,75.7c13.4,51.4,38.3,99,60.6,139.5l0.5-0.2
				c-22.3-40.5-47.2-88-60.5-139.4c-6.7-25.6-9.9-51-9.6-75.5c0.3-26.4,4.8-51.1,13.3-73.5c18.8-49.7,58.3-91.3,108.4-114.3
				c6.5-3,13.3-5.8,20.2-8.2c0.2-0.1,0.4-0.1,0.6-0.2c3-0.3,6-0.5,9.1-0.7c-5.1,2.1-10.2,4.5-15,6.9c-48.4,24.5-85.9,68-102.9,119.2
				c-7.5,22.6-11.1,47.2-10.8,73.4c0.3,24.5,4.1,49.6,11.3,74.8c14.3,50.1,40.1,97.3,63.5,136.8l0.5-0.3
				c-23.4-39.5-49.2-86.6-63.4-136.6c-7.1-25.1-10.9-50.2-11.3-74.6c-0.4-26.1,3.2-50.7,10.7-73.2c17-51.1,54.4-94.4,102.6-118.9
				c5.4-2.7,10.9-5.3,16.6-7.6c1.3-0.1,2.6-0.2,3.9-0.2c1.9-0.1,3.7-0.2,5.6-0.2c-3.8,1.8-7.6,3.8-11.3,5.8
				c-23.5,13.1-44,30.7-60.9,52.3c-16.6,21.3-28.8,45.4-36.4,71.5c-12.6,43.9-10.9,96.1,4.8,146.9c15.9,51.3,43.8,98.6,66.4,134.1
				l0.5-0.3c-22.6-35.4-50.5-82.7-66.4-133.9c-15.7-50.7-17.4-102.7-4.8-146.5c7.5-26.1,19.7-50.1,36.2-71.3
				c16.8-21.5,37.2-39.1,60.7-52.1c4.1-2.3,8.3-4.4,12.5-6.4c3.2-0.1,6.5-0.2,9.8-0.2c-2.6,1.4-5.1,2.9-7.6,4.4
				c-22.9,13.9-42.6,32.4-58.5,55c-15.4,21.9-26.6,46.6-33,73.4c-10.7,44.3-7.5,96.1,9.1,145.7c7.9,23.5,22.6,60.6,60.3,117.9
				c2.9,4.4,5.9,8.8,9,13.4l0.6-0.4c-21.3-31.1-51.6-78.5-69.3-131.2c-16.6-49.5-19.8-101.1-9.1-145.3c6.5-26.7,17.5-51.3,32.9-73.2
				c15.8-22.5,35.4-40.9,58.3-54.8c2.8-1.7,5.7-3.4,8.7-5c3.3,0,6.7,0,10.1,0.1c-1.4,0.9-2.7,1.7-4,2.6
				c-22.3,14.7-41.2,34.1-56.1,57.7c-14.3,22.6-24.3,47.9-29.7,75.3c-8.9,44.7-4.1,96,13.4,144.4c11.3,31.1,27.3,62.3,49.7,96.3
				c6.9,10.5,14.4,21.2,22.6,32.3l0.6-0.4c-34.6-47-57.5-87.8-72.2-128.4c-17.5-48.3-22.2-99.5-13.4-144c5.4-27.2,15.4-52.5,29.6-75
				c14.9-23.5,33.6-42.8,55.9-57.5c1.6-1.1,3.3-2.2,5-3.2c3.4,0.1,6.9,0.2,10.4,0.3c-0.2,0.2-0.5,0.3-0.7,0.5
				c-42.6,30.5-71.1,79.4-80.1,137.6c-7,45-0.7,95.9,17.7,143.2c10.3,26.5,24.4,53.3,42.7,81c9.7,14.7,20.5,29.6,32.6,44.9l0.6-0.5
				c-34.8-44.1-59.3-85.2-75.1-125.7c-18.4-47.2-24.6-97.9-17.7-142.8c9-58,37.3-106.6,79.8-137c0.5-0.4,1.1-0.7,1.6-1.1
				c3.5,0.2,7,0.4,10.6,0.6c-39.9,32-65.4,81.7-72,140.3c-5.2,46,2.5,95.1,22,142c9.5,22.8,21.6,45.3,36.6,68.1
				c12,18.2,25.8,36.5,41.6,55.1l0.7-0.6c-35.4-41.9-61-82.1-78-123c-19.5-46.8-27.1-95.7-22-141.5c6.6-58.7,32.3-108.4,72.4-140.3
				c3.6,0.3,7.2,0.6,10.9,0.9c-36.9,33.5-59.3,83.6-63.4,142.2c-3.2,46.2,5.9,94.9,26.3,140.7c8.5,19,19,38.1,31.4,56.9
				c14.1,21.4,30.7,42.7,49.6,63.5l0.7-0.6c-35.6-39.2-62.8-79.7-80.9-120.2c-20.4-45.7-29.5-94.2-26.2-140.3
				c4.1-58.6,26.7-108.8,63.7-142.1c3.7,0.4,7.4,0.8,11.1,1.2c-33.9,34.8-53.4,85.4-55,143.8c-1.3,46.4,9.3,94.7,30.6,139.5
				c7.5,15.8,16.4,31.5,26.5,46.9c16,24.3,35.2,48.1,57.5,70.9l0.7-0.7c-36.2-37.2-64.4-76.7-83.8-117.5
				c-21.3-44.7-31.8-92.8-30.5-139c1.7-58.4,21.2-109,55.3-143.6c1.5,0.2,3.1,0.4,4.6,0.6c2.2,0.3,4.5,0.6,6.7,0.9
				c-31,36.1-47.6,86.9-46.9,145c0.6,46.5,12.7,94.4,34.9,138.3c6.5,12.8,13.8,25.4,21.9,37.7c17.9,27.2,39.7,53.1,65.1,77.4
				l0.7-0.8c-36.8-35.3-66-73.9-86.7-114.8c-22.2-43.8-34.2-91.4-34.8-137.8c-0.7-58.1,15.9-108.9,47.1-144.8
				c3.9,0.6,7.8,1.1,11.7,1.7c-28,37.2-42.1,89.2-39.1,146c2.5,46.6,16,94,39.2,137c5.3,9.8,11.1,19.5,17.3,29
				c19.7,30,44.1,57.9,72.6,83.4l0.7-0.8c-37.4-33.4-67.6-71.1-89.7-112c-23.1-42.9-36.6-90.1-39.1-136.6
				c-3-56.8,11.2-108.7,39.2-145.7c4,0.6,8,1.3,12,1.9c-25.4,38.3-36.8,90.4-31.6,146.8c4.3,46.6,19.4,93.6,43.5,135.8
				c3.8,6.7,7.9,13.4,12.3,19.9c21.7,33,49.2,63.6,80.6,89.7l0.7-0.9c-37.5-31.1-69.5-68.9-92.6-109.3c-24-42-39-88.8-43.4-135.3
				c-5.2-56.3,6.2-108.3,31.7-146.4c4.1,0.7,8.2,1.4,12.3,2.1c-22.9,39.4-31.8,91.5-24.4,147.4c6.2,46.6,22.7,93.1,47.8,134.5
				c2.4,4,4.9,7.9,7.5,11.9c23.6,35.8,53.9,68.5,88.3,95.1l0.8-1c-38.1-29.4-71.1-66.3-95.5-106.6c-25-41.3-41.5-87.6-47.6-134.1
				c-7.4-55.8,1.5-107.8,24.4-147c4.2,0.7,8.4,1.4,12.6,2.1C471.2,427.8,464.8,480,474.3,535.4z M493.3,387.3c1.3-2.5,2.6-4.9,4-7.3
				c4.2,0.7,8.3,1.3,12.5,2c-1.2,2.4-2.4,4.9-3.6,7.4C501.9,388.7,497.6,388,493.3,387.3z M355.3,370.6c2.5-0.9,5-1.7,7.5-2.5
				c2.6-0.4,5.2-0.7,7.8-1c-2.4,0.9-4.7,1.8-7,2.8C360.8,370.1,358,370.3,355.3,370.6z M353.1,370.8c-2.5,0.3-4.9,0.6-7.3,0.9
				c2.3-0.7,4.7-1.3,7.1-2c2.2-0.4,4.5-0.8,6.8-1.1C357.4,369.2,355.2,370,353.1,370.8z M783.9,283.6c-1.1,1.4-2.1,2.8-3.2,4.2
				c-1.7,0.3-3.3,0.7-5,1c1.1-1.4,2.1-2.9,3.2-4.3c1.5-0.2,2.9-0.4,4.4-0.7C783.4,283.7,783.6,283.6,783.9,283.6z M827.6,272.6
				c-0.4,0.3-0.8,0.5-1.2,0.8c-0.6,0.2-1.1,0.5-1.7,0.7c0.4-0.3,0.8-0.6,1.2-1c0.5-0.2,1.1-0.3,1.6-0.5
				C827.6,272.7,827.6,272.7,827.6,272.6z M402.9,361.1c2.9-0.2,5.7-0.5,8.6-0.6c-1.4,0.7-2.9,1.5-4.3,2.3c-0.8,0.5-1.7,0.9-2.5,1.4
				c-3.1,0.1-6.1,0.2-9.1,0.3C398,363.3,400.4,362.2,402.9,361.1z M393.7,364.6c-2.9,0.2-5.8,0.3-8.6,0.5c2.4-1,4.8-2,7.3-2.9
				c2.7-0.3,5.4-0.6,8.2-0.9C398.3,362.4,396,363.5,393.7,364.6z M773.7,290.3c-1.1,1.4-2.1,2.8-3.2,4.2c-1.6,0.4-3.3,0.7-5,1
				c1.1-1.4,2.1-2.9,3.1-4.3C770.3,290.9,772,290.6,773.7,290.3L773.7,290.3z M738.2,328.6c0.3-0.2,0.6-0.4,0.8-0.7
				c0.4-0.2,0.8-0.4,1.3-0.6c-0.2,0.1-0.3,0.3-0.5,0.4C739.3,328,738.7,328.3,738.2,328.6z M494.7,363.3c1.8-2.1,3.6-4.1,5.5-6.1
				c3.5,0.4,7.1,0.7,10.6,1.1c-0.7,0.9-1.5,1.8-2.2,2.6c-1,1.2-1.9,2.5-2.8,3.7C502.1,364.2,498.4,363.8,494.7,363.3z M434.6,359.3
				c-3.1,0-6.2,0-9.3,0.1c2.3-1.3,4.6-2.5,7-3.8c2.9-0.2,5.8-0.3,8.8-0.4c-1.5,0.9-2.9,1.8-4.4,2.7
				C436,358.3,435.3,358.8,434.6,359.3z M437.2,358.6c1.9-1.2,3.9-2.4,5.8-3.5c3-0.1,6.1-0.2,9.2-0.2c-0.2,0.2-0.5,0.3-0.7,0.5
				c-1.9,1.3-3.8,2.6-5.6,4c-3.2-0.1-6.4-0.1-9.6-0.1C436.6,359,436.9,358.8,437.2,358.6z M792.4,293.1c0.5-0.4,0.9-0.8,1.4-1.1
				c0.6-0.3,1.3-0.5,1.9-0.8c-0.4,0.3-0.9,0.6-1.3,1C793.7,292.4,793,292.8,792.4,293.1z M466.3,352.9c-0.7,0.5-1.3,1-2,1.5
				c-3.2-0.1-6.3-0.1-9.4-0.1c2.2-1.4,4.4-2.8,6.7-4.1c2.9-0.1,5.9-0.2,8.9-0.2C469.1,351,467.7,352,466.3,352.9z M466.9,353.8
				c1.8-1.3,3.7-2.6,5.5-3.8c3.1,0,6.1,0,9.3,0c-0.2,0.2-0.4,0.3-0.7,0.5c-1.8,1.4-3.6,2.9-5.4,4.3c-3.3-0.2-6.5-0.3-9.7-0.4
				C466.3,354.3,466.6,354,466.9,353.8z M479.9,345.3c2.9-0.1,5.8-0.2,8.7-0.3c-2.1,1.4-4.1,2.9-6.1,4.3c-3.1,0-6.1-0.1-9.1,0
				C475.5,348,477.7,346.6,479.9,345.3z M498.1,340.4c2.8-0.1,5.6-0.2,8.4-0.3c-2,1.4-4,2.8-5.9,4.3c-3,0-6,0-8.9,0
				C493.8,343,495.9,341.6,498.1,340.4z M516.1,335.3c2.7-0.2,5.5-0.3,8.3-0.4c-2,1.4-3.9,2.7-5.8,4.2c-2.9,0-5.8,0-8.7,0.1
				C511.9,337.9,514,336.6,516.1,335.3z M534.1,330.3c2.6-0.2,5.3-0.3,8-0.4c-1.9,1.3-3.8,2.7-5.7,4.1c-2.8,0-5.7,0-8.5,0.1
				C530,332.8,532,331.5,534.1,330.3z M551.9,325.2c2.7-0.2,5.4-0.3,8.1-0.5c-1.9,1.3-3.8,2.6-5.6,4c-2.8,0-5.6,0.1-8.4,0.1
				C547.9,327.6,549.8,326.4,551.9,325.2z M774.9,302.4c-0.5,0.4-0.9,0.8-1.4,1.2c-1.2,0.5-2.4,1.1-3.6,1.6c0.9-0.9,1.8-1.7,2.7-2.6
				c1.2-0.4,2.4-0.9,3.5-1.3C775.7,301.6,775.3,302,774.9,302.4z M760.3,310.3c-0.7,0.7-1.5,1.4-2.2,2.1c-1.3,0.5-2.6,1.1-4,1.6
				c1-1,1.9-2,2.9-3c1.4-0.5,2.7-0.9,4.1-1.4C760.9,309.8,760.6,310.1,760.3,310.3z M745.8,318.3c-0.9,0.9-1.8,1.8-2.7,2.7
				c-1.4,0.6-2.9,1.1-4.3,1.6l0,0c1-1.1,2-2.2,3-3.4c1.5-0.4,2.9-0.9,4.4-1.4C746.1,318,745.9,318.2,745.8,318.3z M506.9,350.5
				c1.4-1.3,2.9-2.7,4.4-3.9c0.5-0.4,1-0.8,1.5-1.2c3.1,0.1,6.3,0.3,9.5,0.5c0.1,0,0.2,0,0.2,0c-1.9,1.8-3.7,3.6-5.5,5.5
				c-3.3-0.3-6.6-0.6-9.8-0.8C507.1,350.5,507,350.5,506.9,350.5z M496.5,349c1.7-1.4,3.4-2.7,5.1-4c3.1,0,6.2,0.1,9.4,0.2
				c-0.1,0.1-0.3,0.2-0.4,0.4c-1.8,1.5-3.5,3.1-5.2,4.8c-3.3-0.2-6.5-0.4-9.8-0.6C495.9,349.5,496.2,349.2,496.5,349z M525.3,343.2
				c-0.7,0.6-1.4,1.3-2.1,2c-0.3,0-0.6,0-0.9-0.1c-2.9-0.2-5.8-0.3-8.7-0.4c2-1.6,4-3.2,6-4.7c3,0,6.1,0.1,9.2,0.2
				C527.6,341.1,526.4,342.1,525.3,343.2z M524.3,345.9c3.3,0.2,6.6,0.5,10,0.7c-1.8,1.9-3.5,3.9-5.2,5.9c-3.5-0.4-6.9-0.7-10.4-1.1
				C520.5,349.5,522.4,347.7,524.3,345.9z M525,345.3c0.4-0.4,0.8-0.8,1.2-1.1c1.5-1.4,3-2.7,4.6-4c2.2,0.1,4.5,0.2,6.7,0.3
				c0.9,0,1.8,0.1,2.8,0.2c-0.1,0.1-0.1,0.1-0.2,0.1c-1.8,1.7-3.5,3.5-5.2,5.3C531.5,345.7,528.2,345.5,525,345.3z M751.9,311.5
				c-1.5,0.5-3.1,0.9-4.7,1.3c1.1-1.3,2.1-2.6,3.1-3.9c1.6-0.4,3.2-0.7,4.7-1.1C754.1,309.1,753,310.3,751.9,311.5z M756,307.6
				c1.5-0.4,3-0.8,4.5-1.2c-1,1.1-2,2.3-3.1,3.4c-1.5,0.5-3,1-4.5,1.4C753.9,310,755,308.8,756,307.6z M746.5,313.1
				c-1.6,0.4-3.3,0.9-4.9,1.3c1.1-1.4,2.1-2.8,3.2-4.2c0.2,0,0.4-0.1,0.5-0.1c1.5-0.3,2.9-0.6,4.4-1
				C748.6,310.5,747.6,311.8,746.5,313.1z M745.4,314.4c-1.1,1.3-2.1,2.5-3.2,3.8c-1.6,0.5-3.2,1-4.7,1.4c1.1-1.3,2.1-2.6,3.2-4
				C742.3,315.2,743.8,314.8,745.4,314.4z M741,319.5c-0.8,0.9-1.7,1.9-2.5,2.8c-0.2,0.2-0.4,0.4-0.6,0.7c-1.5,0.5-3.1,1.1-4.6,1.5
				c1.1-1.2,2.1-2.5,3.2-3.7C738,320.4,739.5,320,741,319.5z M736.8,319.8c-1.6,0.5-3.3,0.9-4.9,1.3c1.1-1.4,2.1-2.8,3.2-4.2
				c0.2-0.1,0.5-0.1,0.7-0.1c1.4-0.3,2.8-0.6,4.2-1C739,317.1,737.9,318.4,736.8,319.8z M735.8,321c-1.1,1.3-2.1,2.5-3.2,3.8
				c-1.6,0.5-3.2,1-4.8,1.4c1.1-1.3,2.1-2.6,3.2-4C732.6,321.8,734.2,321.4,735.8,321z M731.5,326c-0.1,0.1-0.2,0.2-0.3,0.3
				c-1,1.1-1.9,2.1-2.9,3.2c-1.5,0.6-3.1,1.1-4.6,1.6c1.1-1.2,2.1-2.5,3.1-3.7C728.4,326.9,730,326.5,731.5,326z M723.1,331.3
				c-5.2,1.7-10.5,3.2-15.8,4.4c-35.8,8.2-73.3,4.9-109.6,1.7c-14.8-1.3-30.1-2.6-45.1-3.2c-1.1,0-2.1-0.1-3.2-0.1
				c1.8-1.5,3.7-3,5.8-4.6c4.1,0,8.3,0,12.5,0.1c14.7,0.3,29.7,1.5,44.2,2.6c34.7,2.6,70.6,5.3,104.9-2.4c3.2-0.7,6.3-1.5,9.4-2.4
				C725.2,328.8,724.2,330.1,723.1,331.3z M552.6,335.1c14.9,0.5,30.2,1.9,45,3.2c36.3,3.2,73.9,6.5,109.8-1.8
				c4.9-1.1,9.8-2.5,14.6-4c-1,1.2-2.1,2.4-3.2,3.5c-6.9,2.5-13.9,4.7-21,6.4c-37.4,8.8-76.7,4.9-114.6,1.1
				c-13.3-1.3-26.9-2.7-40.4-3.5c1.8-1.6,3.6-3.3,5.7-5C549.9,335,551.2,335,552.6,335.1z M541,339.9c-1.2-0.1-2.3-0.1-3.5-0.2
				c-2-0.1-3.9-0.2-5.9-0.2c1.9-1.6,3.9-3.1,5.9-4.6c3,0,6,0,9.1,0.1C544.7,336.5,542.8,338.1,541,339.9z M541,341.7
				c0.4-0.3,0.7-0.7,1.1-1c13.7,0.8,27.6,2.2,41.1,3.5c38,3.8,77.3,7.7,114.9-1.1c6.7-1.6,13.3-3.5,19.7-5.9c-1,1.1-2.1,2.2-3.1,3.3
				c-8.5,3.5-17.3,6.4-26.3,8.5c-39.1,9.4-80.1,4.8-119.7,0.4c-10.5-1.2-21.3-2.4-32.1-3.3C538,344.6,539.5,343.1,541,341.7z
				 M718.4,337c1.4-0.5,2.9-1.1,4.3-1.6c-1,1-2,2-3.1,3c-1.4,0.6-2.8,1.3-4.3,1.9C716.4,339.1,717.4,338,718.4,337z M719.6,335.7
				c1-1.1,2.1-2.3,3.1-3.5c1.5-0.5,3-1,4.5-1.5c-1,1.1-2.1,2.2-3.1,3.2C722.5,334.6,721.1,335.2,719.6,335.7z M728,330.5
				c1.4-0.5,2.8-1,4.2-1.6c-1,1-2,2-2.9,2.9c-1.4,0.6-2.8,1.2-4.3,1.8C726,332.6,727,331.5,728,330.5z M729.1,329.2
				c0.8-0.9,1.6-1.7,2.4-2.6c0.2-0.3,0.4-0.5,0.7-0.8c1.5-0.5,2.9-0.9,4.4-1.4c-1,1.1-2,2.1-3,3.1
				C732.1,328.1,730.6,328.6,729.1,329.2z M737.5,324c1.4-0.5,2.8-1,4.2-1.5c-1,1-1.9,1.9-2.9,2.8c-1.4,0.6-2.7,1.2-4.1,1.7
				C735.6,326.1,736.6,325,737.5,324z M743.1,317.9c1.1-1.2,2.1-2.5,3.1-3.7c1.5-0.4,3-0.8,4.5-1.2c-1,1.2-2.1,2.3-3.2,3.5
				C746.1,316.9,744.6,317.4,743.1,317.9z M751.6,312.7c1.4-0.4,2.9-0.9,4.3-1.3c-1,1-1.9,2-2.9,3l-0.1,0.1
				c-1.4,0.5-2.9,1.1-4.3,1.6C749.6,314.9,750.6,313.8,751.6,312.7z M758.5,309.4c1-1.1,2-2.2,3-3.3c1.4-0.4,2.8-0.8,4.2-1.2
				c-1,1-2,2.1-3,3.1C761.3,308.5,759.9,308.9,758.5,309.4z M767,304.4c1.3-0.4,2.7-0.9,4-1.3c-0.9,0.9-1.9,1.8-2.8,2.7
				c-1.3,0.5-2.7,1.1-4,1.6C765.1,306.4,766.1,305.4,767,304.4z M774.3,300.8c1-1,1.9-2,2.9-3c1.3-0.4,2.6-0.8,3.9-1.2
				c-1,0.9-1.9,1.8-2.9,2.7C776.9,299.9,775.6,300.3,774.3,300.8z M772.8,301.4c-1.4,0.5-2.8,1-4.2,1.4c1-1.1,2-2.2,3-3.3
				c1.4-0.4,2.8-0.8,4.3-1.2C774.8,299.3,773.8,300.4,772.8,301.4z M767.3,303.2c-1.5,0.5-3,0.9-4.4,1.4c1-1.2,2.1-2.4,3.1-3.6
				c1.5-0.4,3-0.8,4.5-1.2C769.4,301,768.3,302.1,767.3,303.2z M761.8,304.9c-1.6,0.5-3.1,0.9-4.7,1.3c1.1-1.3,2.1-2.6,3.1-3.9
				c1.6-0.3,3.2-0.7,4.7-1.1C763.9,302.5,762.9,303.7,761.8,304.9z M756.3,306.5c-1.6,0.4-3.2,0.8-4.8,1.2c1.1-1.4,2.1-2.8,3.1-4.1
				c0.1,0,0.1,0,0.2,0c1.6-0.3,3.1-0.6,4.7-1C758.4,303.8,757.3,305.2,756.3,306.5z M750.7,307.8c-1.7,0.4-3.3,0.8-5,1.1
				c1.1-1.5,2.1-2.9,3.2-4.4c1.7-0.3,3.4-0.6,5-0.9C752.9,305.1,751.8,306.4,750.7,307.8z M745.1,309.1L745.1,309.1
				c-1.7,0.3-3.4,0.7-5.1,1c1.1-1.5,2.1-3.1,3.2-4.6c1.7-0.2,3.4-0.5,5.2-0.8C747.3,306.1,746.2,307.6,745.1,309.1z M744.2,310.3
				c-1.1,1.4-2.1,2.8-3.2,4.2c-1.7,0.4-3.3,0.8-5,1.2c1.1-1.5,2.1-2.9,3.2-4.4C740.8,310.9,742.5,310.6,744.2,310.3z M735.5,315.8
				c-31.1,6.5-63.5,5-94.9,3.5c-14-0.6-28.4-1.3-42.5-1.3c-9.1,0-17.9,0.3-26.5,0.9c1.8-1,3.7-2.1,5.7-3.1c11.5-1.2,23.5-2,36-2.2
				c13.8-0.2,27.8,0.2,41.5,0.6c27.7,0.8,56.3,1.7,84-3C737.6,312.8,736.6,314.3,735.5,315.8z M598.1,319c14.1,0,28.5,0.6,42.5,1.3
				c31.1,1.4,63.2,2.9,94.1-3.4c-1.1,1.4-2.1,2.8-3.2,4.2c-1.7,0.4-3.5,0.8-5.2,1.2c-32.7,7.1-66.8,5-99.8,3
				c-14.3-0.9-29-1.8-43.4-1.9c-6.5-0.1-12.9,0-19.2,0.2c1.9-1.2,3.8-2.4,5.8-3.6C578.8,319.4,588.3,319,598.1,319z M582.9,324.4
				c14.4,0.2,29.1,1.1,43.4,1.9c33.1,2,67.3,4.1,100.1-3c1.4-0.3,2.7-0.6,4.1-0.9c-1.1,1.3-2.1,2.7-3.2,4c-3.5,1-7,1.9-10.5,2.7
				c-34.2,7.7-70,5-104.7,2.4c-14.5-1.1-29.6-2.2-44.3-2.6c-3.8-0.1-7.6-0.1-11.4-0.1c1.8-1.4,3.8-2.7,5.8-4.1
				C569,324.4,575.9,324.3,582.9,324.4z M553.1,329.6c-1.9,1.4-3.8,2.9-5.6,4.5c-3-0.1-6-0.1-8.9-0.1c1.9-1.4,3.9-2.8,6-4.2
				C547.4,329.7,550.2,329.7,553.1,329.6z M535.3,334.8c-1.9,1.5-3.8,3-5.7,4.6c-3-0.1-6.1-0.2-9-0.2c2-1.5,4-2.9,6.1-4.3
				C529.6,334.8,532.4,334.8,535.3,334.8z M517.6,339.9c-2,1.5-3.9,3.1-5.8,4.7c-3.1-0.1-6.2-0.2-9.3-0.2c2-1.5,4.1-2.9,6.2-4.3
				C511.6,339.9,514.6,339.9,517.6,339.9z M499.7,345c-1.3,1-2.6,2-3.9,3.1c-0.7,0.5-1.3,1.1-2,1.7c-3.2-0.1-6.3-0.2-9.5-0.3
				c2.1-1.5,4.2-3,6.3-4.4C493.6,345,496.7,345,499.7,345z M481.7,351.4c0.6-0.5,1.2-0.9,1.8-1.3c3.2,0.1,6.4,0.2,9.6,0.3
				c-2,1.7-3.9,3.4-5.9,5.2c-3.4-0.2-6.7-0.5-10-0.6C478.7,353.7,480.2,352.5,481.7,351.4z M494.8,350.4c3.3,0.1,6.6,0.3,9.9,0.6
				c-1.9,1.8-3.7,3.7-5.6,5.6c-2.4-0.2-4.7-0.5-7.1-0.7c-1.1-0.1-2.1-0.2-3.2-0.2C490.8,353.9,492.8,352.1,494.8,350.4z
				 M506.3,351.1c0.3,0,0.5,0,0.8,0.1c3.1,0.2,6.2,0.5,9.3,0.8c-1.8,1.9-3.5,3.9-5.2,6c-3.5-0.4-7-0.8-10.6-1.1
				C502.5,354.8,504.4,352.9,506.3,351.1z M518.1,352c3.5,0.3,7,0.7,10.5,1.1c-1.7,2-3.3,4.1-4.9,6.3c-3.6-0.5-7.3-0.9-10.9-1.3
				C514.5,356,516.3,354,518.1,352z M530.2,353.3c7.9,0.9,15.9,1.8,23.6,2.8c41.4,5,84.3,10.3,125.2,0.2
				c10.2-2.5,20.2-5.9,29.8-10.2c-1,0.9-2,1.8-2.9,2.7c-11.6,5.8-23.9,10.4-36.5,13.5c-42.5,10.6-87.2,4.7-130.4-1
				c-4.6-0.6-9.2-1.2-13.9-1.8C526.8,357.4,528.5,355.3,530.2,353.3z M678.9,355.7c-40.8,10-83.6,4.8-125-0.3
				c-7.6-0.9-15.4-1.9-23.2-2.7c1.7-2,3.4-4,5.3-5.9c10.9,0.9,21.9,2.2,32.6,3.3c39.7,4.4,80.8,9,120-0.4c8.4-2,16.8-4.7,24.8-7.9
				c-1,1-2,2-3.1,3C700.2,349.3,689.7,353,678.9,355.7z M714.2,341.4c1.4-0.6,2.7-1.1,4-1.7c-1,0.9-1.9,1.8-2.9,2.7
				c-1.3,0.7-2.7,1.3-4,1.9C712.2,343.4,713.2,342.4,714.2,341.4z M719.3,339.2c1.2-0.5,2.4-1.1,3.6-1.6c-0.8,0.7-1.6,1.5-2.5,2.2
				l0,0c-1.2,0.7-2.5,1.3-3.8,2C717.5,340.9,718.4,340.1,719.3,339.2z M720.7,337.8c1-0.9,1.9-1.9,2.9-2.9c1.3-0.5,2.6-1.1,3.9-1.6
				c-0.9,0.9-1.9,1.7-2.8,2.6C723.4,336.6,722.1,337.2,720.7,337.8z M728.8,332.8c1.2-0.5,2.4-1,3.5-1.6c-0.9,0.7-1.7,1.4-2.6,2.2
				c-1.2,0.6-2.3,1.2-3.5,1.8C727.1,334.4,728,333.6,728.8,332.8z M730.4,331.3c0.9-0.9,1.9-1.8,2.8-2.8c1.3-0.5,2.6-1,3.9-1.6
				c-0.9,0.9-1.9,1.7-2.8,2.5C733,330.1,731.7,330.7,730.4,331.3z M738.4,326.4c1.1-0.5,2.2-1,3.3-1.5c-0.8,0.7-1.6,1.3-2.3,2
				c-1.1,0.6-2.3,1.2-3.4,1.7C736.8,327.9,737.6,327.1,738.4,326.4z M740.1,324.7c0.9-0.9,1.8-1.7,2.7-2.6c1.2-0.5,2.5-1,3.7-1.5
				c-0.9,0.8-1.7,1.6-2.6,2.4C742.7,323.6,741.4,324.2,740.1,324.7z M744.3,320.6c0.6-0.6,1.2-1.3,1.9-1.9c0.4-0.4,0.7-0.8,1.1-1.2
				c1.4-0.5,2.7-0.9,4-1.4c-1,0.9-1.9,1.9-2.9,2.8C747,319.5,745.7,320,744.3,320.6z M752.6,315.6c1.2-0.5,2.5-0.9,3.7-1.4
				c-0.9,0.8-1.8,1.6-2.8,2.5c-1.2,0.6-2.4,1.1-3.7,1.6C750.8,317.4,751.7,316.5,752.6,315.6z M757.9,313.5c1-0.4,2.1-0.9,3.1-1.3
				c-0.7,0.6-1.5,1.3-2.2,1.9c-1.1,0.5-2.1,1-3.2,1.6C756.4,314.9,757.1,314.2,757.9,313.5z M759.8,311.7c0.3-0.3,0.6-0.6,1-0.9
				c0.6-0.6,1.1-1.1,1.7-1.7c1.2-0.4,2.4-0.9,3.6-1.4c-0.9,0.8-1.8,1.6-2.6,2.4C762.3,310.6,761.1,311.2,759.8,311.7z M768,307
				c1-0.4,2-0.8,3-1.2c-0.8,0.6-1.5,1.3-2.3,1.9c-1,0.5-2,1-3,1.5C766.4,308.4,767.2,307.7,768,307z M775.8,302.6
				c0.7-0.7,1.4-1.3,2.2-2c1-0.4,2-0.8,3-1.2c-0.7,0.6-1.4,1.2-2.1,1.8C777.8,301.6,776.8,302.1,775.8,302.6z M780.1,298.6
				c0.9-0.8,1.7-1.7,2.5-2.5c1.2-0.4,2.3-0.8,3.5-1.2c-0.9,0.8-1.7,1.5-2.6,2.3C782.4,297.6,781.3,298.1,780.1,298.6z M788.3,294.1
				c1-0.4,1.9-0.7,2.9-1.1c-0.6,0.5-1.1,0.9-1.7,1.4c-0.1,0.1-0.3,0.2-0.4,0.3c-1,0.5-2,0.9-3,1.3
				C786.8,295.4,787.5,294.8,788.3,294.1z M804.8,285.8c-0.2,0.1-0.4,0.2-0.6,0.3c-0.4,0.2-0.8,0.4-1.2,0.6c0.4-0.4,0.9-0.7,1.3-1.1
				c0.6-0.2,1.2-0.4,1.7-0.7C805.6,285.2,805.2,285.5,804.8,285.8z M799.3,288.4c-0.9,0.4-1.9,0.8-2.8,1.2c0.7-0.6,1.5-1.3,2.2-1.9
				c0.9-0.3,1.9-0.7,2.8-1C800.8,287.2,800.1,287.8,799.3,288.4z M794,290.7c-1.2,0.5-2.3,0.9-3.5,1.4c0.9-0.8,1.8-1.6,2.6-2.5
				c1.2-0.4,2.3-0.8,3.5-1.1C795.7,289.2,794.8,289.9,794,290.7z M788.4,292.9c-1.3,0.5-2.6,1-3.9,1.4c1-1,1.9-1.9,2.8-2.9
				c1.3-0.4,2.6-0.8,3.9-1.2C790.3,291.1,789.4,292,788.4,292.9z M782.9,294.8c-1.4,0.5-2.8,1-4.2,1.4c1-1.1,2-2.2,3-3.3
				c1.4-0.4,2.8-0.8,4.2-1.2C784.9,292.8,783.9,293.8,782.9,294.8z M777.4,296.6c-1.5,0.5-3,0.9-4.5,1.4c1-1.2,2.1-2.4,3.1-3.6
				c1.5-0.4,3-0.7,4.5-1.1C779.5,294.4,778.4,295.5,777.4,296.6z M771.8,298.3c-1.5,0.4-3.1,0.9-4.7,1.3c1.1-1.3,2.1-2.6,3.2-3.9
				c1.6-0.3,3.1-0.7,4.7-1.1C773.9,295.9,772.8,297.1,771.8,298.3z M766.2,299.8c-1.6,0.4-3.2,0.8-4.9,1.2c1.1-1.4,2.1-2.7,3.2-4.1
				c1.6-0.3,3.3-0.6,4.9-1C768.3,297.2,767.2,298.5,766.2,299.8z M760.5,301.2c-1.6,0.4-3.3,0.7-5,1c1.1-1.4,2.1-2.9,3.2-4.4
				c1.7-0.3,3.3-0.6,5-0.9C762.7,298.4,761.6,299.8,760.5,301.2z M754.9,302.3c-0.1,0-0.2,0-0.3,0.1c-1.6,0.3-3.2,0.6-4.8,0.9
				c1.1-1.5,2.1-3,3.1-4.6c1.7-0.2,3.5-0.5,5.2-0.8C757,299.4,756,300.9,754.9,302.3z M749.2,303.4c-1.7,0.3-3.5,0.6-5.2,0.8
				c1-1.6,2.1-3.2,3.1-4.8c1.8-0.2,3.5-0.4,5.3-0.7C751.3,300.3,750.3,301.9,749.2,303.4z M743.5,304.3c-24.7,3.5-50.1,3.2-74.7,2.9
				c-13.3-0.2-27.1-0.4-40.5,0.1c-13.9,0.4-27.1,1.5-39.6,3.2c1.6-0.7,3.3-1.4,5-2.1c15.4-2.7,32-4.5,49.8-5.3
				c13.1-0.6,26.5-0.7,39.4-0.8c21-0.1,42.5-0.3,63.7-2.7C745.6,301.1,744.6,302.7,743.5,304.3z M628.4,308.3
				c13.4-0.4,27.2-0.2,40.4-0.1c24.4,0.3,49.4,0.6,73.9-2.8c-1,1.6-2.1,3.1-3.2,4.6c-27.9,4.8-56.8,4-84.8,3.1
				c-13.6-0.4-27.7-0.8-41.5-0.6c-11.6,0.2-22.7,0.8-33.3,1.9c1.7-0.9,3.5-1.7,5.3-2.5C598.8,310,613.2,308.8,628.4,308.3z
				 M576.5,314.9c-2,0.2-4.1,0.5-6.1,0.7c1.5-0.7,3.1-1.4,4.7-2c1.9-0.3,3.9-0.7,5.9-1C579.5,313.3,578,314.1,576.5,314.9z
				 M574,316.2c-1.7,0.9-3.5,1.9-5.2,2.9c-2.4,0.2-4.7,0.4-7.1,0.6c1.8-0.9,3.6-1.8,5.4-2.7C569.4,316.8,571.7,316.5,574,316.2z
				 M566.9,320.3c-1.9,1.1-3.7,2.3-5.5,3.5c-2.6,0.1-5.2,0.2-7.8,0.4c1.9-1.1,3.9-2.2,5.8-3.2C561.9,320.7,564.4,320.5,566.9,320.3z
				 M550.7,324.4c-2.3,0.2-4.6,0.3-6.9,0.5c1.9-1,3.8-1.9,5.8-2.8c2.1-0.3,4.2-0.5,6.4-0.8C554.2,322.3,552.5,323.3,550.7,324.4z
				 M549,325.4c-1.9,1.2-3.7,2.4-5.5,3.6c-2.6,0.1-5.2,0.2-7.7,0.3c2-1.1,4-2.2,6-3.3C544.1,325.8,546.6,325.6,549,325.4z
				 M533,329.5c-2.5,0.2-4.9,0.3-7.3,0.5c1.9-1,3.9-1.9,5.8-2.9c2.3-0.3,4.6-0.6,7-0.8C536.7,327.4,534.8,328.4,533,329.5z
				 M531.4,330.5c-2,1.2-3.9,2.4-5.7,3.7c-2.7,0.1-5.4,0.2-8.1,0.3c2-1.2,4-2.3,6.1-3.4C526.3,330.8,528.8,330.6,531.4,330.5z
				 M515.1,334.6c-2.5,0.1-4.9,0.3-7.4,0.5c2-1,4-2,6.1-3c2.3-0.3,4.6-0.5,6.9-0.8C518.8,332.4,516.9,333.5,515.1,334.6z
				 M513.6,335.5c-2,1.2-3.9,2.5-5.9,3.8c-2.8,0.1-5.5,0.2-8.2,0.3c2.1-1.2,4.2-2.4,6.4-3.5C508.4,335.8,511,335.7,513.6,335.5z
				 M497.1,339.7c-2.6,0.1-5.2,0.3-7.8,0.5c2.1-1.1,4.2-2.1,6.3-3.1c2.4-0.3,4.9-0.5,7.3-0.8C501,337.4,499.1,338.5,497.1,339.7z
				 M495.7,340.5c-2.1,1.3-4.1,2.5-6.1,3.9c-2.9,0-5.7,0.1-8.5,0.2c2.1-1.2,4.3-2.4,6.5-3.5C490.3,340.8,493,340.6,495.7,340.5z
				 M478.9,344.7c-2.7,0.1-5.4,0.3-8,0.5c2.1-1.1,4.3-2.1,6.5-3.1c2.5-0.3,5.1-0.5,7.6-0.7C483,342.4,480.9,343.5,478.9,344.7z
				 M477.7,345.4c-2.1,1.3-4.2,2.6-6.2,3.9c-2.9,0-5.9,0.1-8.8,0.2c2.2-1.2,4.4-2.4,6.6-3.6C472.1,345.7,474.9,345.6,477.7,345.4z
				 M460.6,349.7c-2.8,0.1-5.5,0.3-8.3,0.4c2.2-1.1,4.4-2.2,6.6-3.2c2.6-0.3,5.2-0.5,7.9-0.7C464.8,347.3,462.7,348.4,460.6,349.7z
				 M459.5,350.3c-2.2,1.3-4.3,2.6-6.4,4c-3,0-6,0.1-9,0.2c2.2-1.3,4.5-2.5,6.8-3.7C453.8,350.6,456.6,350.5,459.5,350.3z
				 M452.1,356.2c0.6-0.4,1.3-0.9,2-1.3c3.1,0,6.3,0,9.5,0.1c-2.1,1.6-4.1,3.2-6.2,4.9c-3.3-0.2-6.6-0.3-9.9-0.4
				C449,358.3,450.5,357.3,452.1,356.2z M465.2,355c3.2,0.1,6.5,0.2,9.8,0.3c-2,1.7-4,3.5-5.9,5.3c-3.4-0.3-6.8-0.5-10.2-0.7
				C461,358.3,463.1,356.6,465.2,355z M476.6,355.5c3.3,0.2,6.7,0.4,10.1,0.6c-1.9,1.8-3.8,3.7-5.6,5.7c-1.4-0.1-2.8-0.3-4.2-0.4
				c-2.1-0.2-4.2-0.4-6.3-0.5C472.6,359,474.6,357.2,476.6,355.5z M488.3,356.2c1.2,0.1,2.5,0.2,3.7,0.3c2.2,0.2,4.4,0.4,6.6,0.6
				c-1.7,1.8-3.4,3.7-5,5.6c-0.1,0.1-0.2,0.3-0.3,0.4c-3.6-0.4-7.2-0.9-10.7-1.2C484.4,359.9,486.3,358,488.3,356.2z M509.6,361.8
				c0.9-1.1,1.8-2.2,2.7-3.3c3.7,0.4,7.3,0.9,11,1.3c-1.6,2.2-3.1,4.4-4.6,6.6c-3.8-0.5-7.6-1.1-11.5-1.6
				C508,363.9,508.8,362.8,509.6,361.8z M524.8,360.1c4.8,0.6,9.5,1.2,14.2,1.8c43.2,5.7,87.9,11.6,130.6,1
				c11.9-3,23.6-7.2,34.7-12.6c-0.9,0.8-1.8,1.6-2.7,2.4c-13.1,7.1-27.1,12.7-41.5,16.4c-44.3,11.2-90.9,4.7-135.9-1.7
				c-1.3-0.2-2.6-0.4-3.9-0.6C521.7,364.5,523.2,362.2,524.8,360.1z M705.4,349.7L705.4,349.7c1.2-0.6,2.2-1.1,3.3-1.7
				c-0.8,0.6-1.5,1.2-2.3,1.8c-1.1,0.7-2.3,1.3-3.4,2C703.8,351.1,704.6,350.4,705.4,349.7z M707.1,348.2c0.9-0.8,1.8-1.7,2.8-2.6
				c1.2-0.6,2.5-1.1,3.7-1.7c-0.3,0.2-0.5,0.5-0.8,0.7c-0.6,0.5-1.3,1.1-1.9,1.6C709.6,346.9,708.3,347.6,707.1,348.2z M713,344.9
				c0.6-0.5,1.2-1.1,1.8-1.6c1-0.5,2.1-1,3.1-1.5c-0.7,0.6-1.4,1.1-2.1,1.7c-1.1,0.6-2.1,1.2-3.2,1.8
				C712.7,345.2,712.9,345,713,344.9z M722.2,338.7c0.7-0.6,1.4-1.2,2.2-1.9c1-0.5,1.9-1,2.9-1.4c-0.7,0.5-1.4,1.1-2,1.6
				C724.2,337.6,723.2,338.2,722.2,338.7z M733.9,330.5c0.9-0.4,1.8-0.9,2.7-1.3c-0.4,0.3-0.7,0.6-1.1,0.9c-0.3,0.2-0.5,0.4-0.8,0.6
				c-1,0.5-1.9,1.1-2.9,1.6C732.6,331.6,733.3,331.1,733.9,330.5z M741.7,325.7c0.6-0.5,1.3-1.1,1.9-1.6c0.8-0.4,1.7-0.8,2.5-1.2
				c-0.6,0.5-1.2,0.9-1.8,1.4C743.5,324.7,742.6,325.2,741.7,325.7z M745.8,322.1c0.8-0.7,1.6-1.4,2.3-2.2c1.1-0.5,2.2-0.9,3.2-1.4
				c-0.8,0.7-1.5,1.3-2.3,1.9C747.9,321.1,746.8,321.6,745.8,322.1z M753.3,317.7c0.8-0.4,1.6-0.7,2.4-1.1c-0.5,0.4-1,0.8-1.6,1.2
				c-0.8,0.5-1.6,0.9-2.5,1.4C752.2,318.6,752.7,318.2,753.3,317.7z M758.5,315.2c0.2-0.1,0.5-0.2,0.7-0.4c0,0-0.1,0-0.1,0.1
				c-0.3,0.2-0.6,0.4-1,0.6C758.2,315.4,758.4,315.3,758.5,315.2z M761.5,312.7c0.6-0.5,1.1-1,1.7-1.4c0.7-0.3,1.4-0.6,2.2-1
				c-0.5,0.4-1,0.8-1.6,1.2C763,311.9,762.3,312.3,761.5,312.7z M768.4,308.8c0.1-0.1,0.2-0.1,0.3-0.2c-0.2,0.1-0.3,0.2-0.5,0.3
				C768.3,308.9,768.4,308.8,768.4,308.8z M771.7,306.1c0.5-0.5,1.1-0.9,1.6-1.4c0.7-0.3,1.4-0.6,2.1-0.9c-0.5,0.4-1,0.8-1.5,1.1
				C773.1,305.4,772.4,305.7,771.7,306.1z M778.6,302.3c0.1,0,0.1-0.1,0.2-0.1C778.7,302.3,778.6,302.3,778.6,302.3L778.6,302.3z
				 M782,299.6c0.2-0.2,0.5-0.4,0.7-0.6s0.5-0.4,0.7-0.6c0.6-0.3,1.3-0.5,1.9-0.8c-0.5,0.3-0.9,0.7-1.4,1
				C783.3,298.9,782.7,299.2,782,299.6z M815.7,279.4c-0.6,0.3-1.3,0.6-1.9,0.9c0.4-0.3,0.8-0.7,1.2-1c0.6-0.2,1.2-0.4,1.8-0.7
				C816.4,278.9,816.1,279.2,815.7,279.4z M810,282c-0.9,0.4-1.9,0.8-2.8,1.2c0.7-0.6,1.4-1.2,2.1-1.8c1-0.3,1.9-0.7,2.8-1
				C811.4,280.9,810.7,281.5,810,282z M804.4,284.3c-1.1,0.4-2.3,0.9-3.4,1.3c0.9-0.8,1.8-1.6,2.6-2.5c1.2-0.4,2.3-0.7,3.4-1.1
				C806.2,282.8,805.3,283.6,804.4,284.3z M798.9,286.4c-1.3,0.5-2.6,1-4,1.4c1-1,2-1.9,2.9-2.9c1.3-0.4,2.6-0.8,3.9-1.1
				C800.8,284.6,799.8,285.5,798.9,286.4z M793.2,288.3c-1.4,0.5-2.8,0.9-4.2,1.3c1-1.1,2-2.2,3-3.3c1.4-0.4,2.9-0.7,4.3-1.1
				C795.3,286.3,794.2,287.3,793.2,288.3z M787.5,290.1c-1.5,0.4-3,0.9-4.5,1.3c1.1-1.2,2.1-2.4,3.1-3.6c1.5-0.3,3-0.7,4.5-1.1
				C789.7,287.9,788.6,289,787.5,290.1z M781.9,291.7c-1.5,0.4-3.1,0.8-4.7,1.2c1.1-1.3,2.1-2.6,3.2-3.9c1.6-0.3,3.2-0.7,4.7-1
				C784.1,289.3,783,290.5,781.9,291.7z M776.2,293.2c-1.6,0.4-3.2,0.7-4.8,1.1c1.1-1.4,2.1-2.7,3.2-4.1c1.6-0.3,3.3-0.6,4.9-0.9
				C778.3,290.5,777.3,291.9,776.2,293.2z M764.8,295.6c-0.2,0-0.5,0.1-0.7,0.1c-1.5,0.3-2.9,0.5-4.4,0.8c1.1-1.5,2.1-3,3.1-4.5
				c1.7-0.2,3.4-0.5,5.2-0.7C766.9,292.7,765.8,294.2,764.8,295.6z M759,296.6c-1.7,0.3-3.5,0.5-5.2,0.8c1-1.6,2.1-3.1,3.1-4.7
				c1.8-0.2,3.6-0.4,5.3-0.7C761.1,293.6,760.1,295.1,759,296.6z M753.2,297.5c-1.8,0.2-3.6,0.5-5.4,0.7c1-1.6,2-3.2,3-4.8
				c1.8-0.2,3.6-0.4,5.4-0.6C755.3,294.4,754.3,295.9,753.2,297.5z M747.5,298.2c-21.4,2.5-43.3,2.7-64.5,2.8
				c-13,0.1-26.4,0.2-39.4,0.8c-15.8,0.7-30.6,2.2-44.5,4.4c1.1-0.4,2.1-0.8,3.2-1.2c17.2-3.6,36-6.1,56.5-7.4
				c12.7-0.8,25.8-1.2,38.4-1.5c17.6-0.5,35.6-1,53.4-2.7C749.5,295,748.5,296.6,747.5,298.2z M592.8,307.2
				c-0.4,0.1-0.9,0.2-1.3,0.2c0.6-0.1,1.2-0.3,1.7-0.4C593.1,307.1,592.9,307.2,592.8,307.2z M584.3,311c-1.5,0.2-3,0.4-4.5,0.7
				c1.3-0.5,2.6-1,3.9-1.5c1.4-0.3,2.8-0.6,4.2-0.9C586.7,309.9,585.5,310.4,584.3,311z M569.5,314.6c-1.1,0.5-2.3,1-3.4,1.6
				c-1.3,0.2-2.7,0.4-4,0.6c1.2-0.5,2.5-1,3.8-1.4C567.1,315.1,568.3,314.8,569.5,314.6z M573.1,312.8c0.8-0.3,1.5-0.5,2.3-0.7
				c-0.5,0.2-0.9,0.4-1.4,0.6C573.7,312.7,573.4,312.7,573.1,312.8z M563,317.7c-1.6,0.8-3.1,1.6-4.7,2.4c-1.9,0.2-3.8,0.4-5.7,0.6
				c1.7-0.8,3.4-1.5,5.1-2.2C559.5,318.2,561.2,318,563,317.7z M548.6,321.2c-1.7,0.2-3.3,0.5-4.9,0.7c1.3-0.5,2.7-1,4.1-1.6
				c1.6-0.3,3.1-0.6,4.7-0.9C551.1,320.1,549.8,320.6,548.6,321.2z M545.6,322.6c-1.7,0.8-3.4,1.7-5,2.6c-2.1,0.2-4.3,0.4-6.4,0.7
				c1.8-0.8,3.6-1.6,5.4-2.3C541.6,323.2,543.6,322.9,545.6,322.6z M530.4,326.4c-1.6,0.2-3.1,0.4-4.7,0.6c1.6-0.6,3.2-1.2,4.9-1.8
				c1.4-0.3,2.7-0.5,4.1-0.8C533.3,325.1,531.9,325.7,530.4,326.4z M527.8,327.6c-1.7,0.9-3.5,1.7-5.1,2.6c-2.1,0.2-4.2,0.4-6.2,0.6
				c1.9-0.8,3.7-1.6,5.7-2.4C524,328.2,525.9,327.9,527.8,327.6z M512.8,331.4c-1.8,0.2-3.6,0.5-5.4,0.7c1.6-0.6,3.3-1.3,5-1.9
				c1.7-0.3,3.4-0.6,5-0.9C515.9,330,514.4,330.6,512.8,331.4z M510.3,332.5c-1.9,0.9-3.7,1.8-5.5,2.8c-2.3,0.2-4.6,0.4-6.8,0.7
				c1.9-0.9,3.9-1.7,5.9-2.5C506,333.1,508.2,332.8,510.3,332.5z M494.7,336.4c-2,0.2-3.9,0.5-5.8,0.7c1.7-0.7,3.5-1.3,5.3-2
				c1.8-0.3,3.6-0.7,5.4-1C497.9,334.9,496.3,335.6,494.7,336.4z M492.4,337.5c-1.9,0.9-3.8,1.9-5.7,2.9c-2.4,0.2-4.8,0.4-7.1,0.7
				c2-0.9,4-1.8,6.1-2.6C487.9,338.1,490.1,337.8,492.4,337.5z M476.5,341.3c-2.1,0.2-4.1,0.5-6.2,0.8c1.9-0.7,3.7-1.4,5.6-2.1
				c1.9-0.3,3.8-0.7,5.7-1C479.9,339.8,478.2,340.6,476.5,341.3z M474.3,342.4c-2,1-4,2-5.9,3c-2.5,0.2-4.9,0.4-7.4,0.6
				c2.1-0.9,4.2-1.8,6.3-2.7C469.7,342.9,472,342.6,474.3,342.4z M458.2,346.3c-2.2,0.2-4.4,0.5-6.6,0.8c2-0.8,3.9-1.5,5.9-2.2
				c2-0.4,4.1-0.7,6.2-1C461.8,344.6,460,345.4,458.2,346.3z M456.2,347.2c-2.1,1-4.1,2-6.1,3.1c-2.6,0.2-5.2,0.4-7.7,0.6
				c2.2-1,4.3-1.9,6.6-2.8C451.3,347.8,453.7,347.5,456.2,347.2z M448.6,351c-2.2,1.2-4.3,2.4-6.4,3.6c-2.9,0.1-5.7,0.2-8.6,0.4
				c2.3-1.1,4.5-2.2,6.9-3.3C443.2,351.4,445.9,351.2,448.6,351z M431.4,355.1c-2.7,0.2-5.3,0.4-8,0.6c2.2-1,4.5-1.9,6.8-2.8
				c2.5-0.3,5-0.6,7.6-0.9C435.7,353,433.5,354,431.4,355.1z M430.1,355.8c-2.2,1.2-4.5,2.4-6.6,3.7c-3,0.1-5.9,0.2-8.8,0.4
				c2.3-1.2,4.7-2.3,7.1-3.3C424.5,356.2,427.3,356,430.1,355.8z M412.7,359.9c-2.8,0.2-5.6,0.4-8.3,0.6c2.3-1,4.7-2,7.1-2.9
				c2.6-0.3,5.2-0.6,7.9-0.9C417,357.7,414.8,358.8,412.7,359.9z M407.6,363.5c1.9-1.1,3.9-2.1,5.9-3.1c3-0.2,6-0.3,9-0.4
				c-0.2,0.1-0.4,0.2-0.6,0.3c-2.1,1.2-4.1,2.5-6.1,3.8c-3.2,0-6.4,0-9.5,0.1C406.8,363.9,407.2,363.7,407.6,363.5z M422.4,361.1
				c0.7-0.4,1.3-0.8,2-1.1c3.1-0.1,6.2-0.1,9.4-0.1c-2.2,1.5-4.4,3-6.5,4.5c-3.3-0.1-6.6-0.2-9.8-0.2
				C419.1,363.1,420.8,362,422.4,361.1z M435.5,359.8c3.2,0,6.4,0,9.7,0.1c-2.1,1.6-4.2,3.2-6.3,4.9c-3.4-0.2-6.8-0.4-10.1-0.5
				C431,362.8,433.2,361.2,435.5,359.8z M446.8,359.9c3.3,0.1,6.6,0.2,10,0.4c-2.1,1.7-4.1,3.5-6,5.3c-3.5-0.3-7-0.5-10.4-0.8
				C442.5,363.2,444.6,361.5,446.8,359.9z M458.3,360.4c3.4,0.2,6.8,0.4,10.3,0.7c-1.7,1.6-3.4,3.3-5.1,5c-0.2,0.2-0.5,0.5-0.7,0.7
				c-0.4,0-0.7-0.1-1.1-0.1c-3.2-0.3-6.4-0.6-9.6-0.9C454.2,364,456.2,362.2,458.3,360.4z M464.3,366.9c1.9-1.9,3.8-3.8,5.8-5.6
				c2.2,0.2,4.5,0.4,6.8,0.6c1.3,0.1,2.5,0.3,3.8,0.4c-0.7,0.7-1.4,1.5-2.1,2.2c-1.2,1.3-2.3,2.6-3.4,3.9c-3.7-0.5-7.3-0.9-11-1.3
				C464.2,367,464.3,366.9,464.3,366.9z M479.4,365.2c0.9-1,1.8-1.9,2.7-2.9c3.6,0.4,7.2,0.8,10.8,1.2c-1.7,2.1-3.4,4.2-5.1,6.4
				c-3.8-0.5-7.5-1-11.3-1.5C477.5,367.4,478.4,366.3,479.4,365.2z M494.3,363.8c3.7,0.5,7.4,0.9,11.1,1.4c-1.6,2.2-3.2,4.4-4.7,6.7
				c-3.8-0.6-7.7-1.1-11.6-1.7C490.8,368,492.6,365.9,494.3,363.8z M506.9,365.4c3.9,0.5,7.7,1.1,11.5,1.6c-1.5,2.3-2.9,4.6-4.3,6.9
				c-1.7-0.3-3.4-0.5-5.2-0.8c-2.3-0.3-4.5-0.7-6.8-1C503.7,369.8,505.3,367.6,506.9,365.4z M519.9,367.2c1.4,0.2,2.8,0.4,4.2,0.6
				c45.1,6.4,91.7,13,136.1,1.7c13.6-3.5,26.9-8.6,39.3-15.2c-0.8,0.6-1.6,1.3-2.4,1.9c-14.5,8.6-30.2,15.2-46.5,19.4
				c-44,11.3-90.1,5.2-135-1.5C516.9,371.8,518.4,369.5,519.9,367.2z M650.6,376.1c15.2-3.9,29.9-9.9,43.6-17.7
				c-0.6,0.5-1.3,1-1.9,1.4c-15.8,10.1-33.1,17.7-51.2,22.4c-42.2,11-86.4,6.1-129.7-0.5c1.3-2.4,2.6-4.9,3.9-7.2
				C560.3,381.3,606.5,387.5,650.6,376.1z M699.1,355c0.6-0.5,1.2-1,1.8-1.5c0.8-0.4,1.5-0.8,2.3-1.3c-0.5,0.4-1,0.7-1.5,1.1
				C700.9,353.9,700,354.5,699.1,355z M708.9,348.4c0.5-0.4,1-0.8,1.5-1.2c0.7-0.4,1.4-0.7,2-1.1c-0.4,0.3-0.9,0.6-1.3,0.9
				C710.4,347.4,709.7,347.9,708.9,348.4z M718.6,341.7c0.4-0.3,0.9-0.7,1.3-1c0.6-0.3,1.1-0.6,1.7-0.9c-0.3,0.2-0.6,0.5-1,0.7
				C720,340.9,719.3,341.3,718.6,341.7z M728.5,335.2c0.3-0.3,0.6-0.5,0.9-0.8c0.5-0.3,1-0.5,1.5-0.8c-0.3,0.2-0.5,0.4-0.8,0.6
				C729.6,334.5,729,334.8,728.5,335.2z M748.2,322c0.2-0.2,0.4-0.3,0.6-0.5c0.3-0.2,0.6-0.3,1-0.5c-0.1,0.1-0.2,0.1-0.3,0.2
				C749,321.5,748.6,321.8,748.2,322z M820.8,275.8c-0.4,0.2-0.9,0.4-1.3,0.6c-0.5,0.2-1,0.4-1.5,0.6c0.7-0.6,1.5-1.2,2.2-1.8
				c0.9-0.3,1.9-0.6,2.8-0.9C822.2,274.8,821.5,275.3,820.8,275.8z M815.1,278c-1.1,0.4-2.2,0.8-3.4,1.2c0.9-0.8,1.7-1.6,2.6-2.4
				c1.2-0.3,2.3-0.7,3.4-1C816.9,276.6,816,277.3,815.1,278z M809.4,280c-1.2,0.4-2.5,0.8-3.8,1.2c1-1,2-1.9,3-2.9
				c1.3-0.3,2.5-0.7,3.8-1C811.4,278.3,810.4,279.1,809.4,280z M803.8,281.8c-1.4,0.4-2.8,0.8-4.3,1.3c1-1.1,2.1-2.2,3.1-3.3
				c1.4-0.3,2.9-0.7,4.3-1C805.8,279.8,804.8,280.8,803.8,281.8z M797.9,283.5c-1.5,0.4-2.9,0.8-4.4,1.2c1.1-1.2,2.1-2.4,3.1-3.6
				c1.5-0.3,3-0.6,4.5-1C800.1,281.3,799,282.4,797.9,283.5z M792.2,285.1c-1.5,0.4-3.1,0.8-4.7,1.1c1.1-1.3,2.1-2.6,3.2-3.9
				c1.6-0.3,3.1-0.6,4.7-0.9C794.4,282.6,793.3,283.9,792.2,285.1z M786.4,286.5c-1.6,0.4-3.2,0.7-4.8,1c1.1-1.4,2.1-2.7,3.2-4.1
				c1.6-0.3,3.3-0.6,4.9-0.9C788.6,283.9,787.5,285.2,786.4,286.5z M774.8,288.8c-0.4,0.1-0.9,0.2-1.3,0.2c-1.3,0.2-2.6,0.4-3.8,0.6
				c1.1-1.5,2.1-3,3.1-4.5c1.7-0.2,3.5-0.5,5.2-0.8C777,285.9,775.9,287.4,774.8,288.8z M768.9,289.8c-1.7,0.3-3.5,0.5-5.3,0.8
				c1-1.5,2.1-3.1,3.1-4.6c1.8-0.2,3.6-0.4,5.3-0.7C771.1,286.8,770,288.3,768.9,289.8z M763.1,290.7c-1.8,0.2-3.6,0.5-5.4,0.7
				c1-1.6,2-3.2,3-4.8c1.8-0.2,3.7-0.4,5.5-0.6C765.2,287.6,764.1,289.2,763.1,290.7z M757.2,291.4c-1.8,0.2-3.7,0.4-5.5,0.6
				c1-1.6,1.9-3.2,2.9-4.8c1.9-0.2,3.7-0.4,5.6-0.5C759.2,288.3,758.2,289.9,757.2,291.4z M751.3,292.1c-18.1,1.8-36.4,2.3-54.3,2.8
				c-12.6,0.3-25.7,0.7-38.4,1.5c-17.1,1.1-32.9,3-47.7,5.7c0.5-0.1,0.9-0.3,1.3-0.4c18.3-4.4,38.8-7.5,61.6-9.4
				c12.4-1,25.2-1.6,37.5-2.3c14.1-0.7,28.5-1.4,42.8-2.7C753.2,288.9,752.3,290.5,751.3,292.1z M558,317.1
				c-0.5,0.2-0.9,0.4-1.4,0.6c-0.8,0.1-1.5,0.3-2.3,0.4c0.3-0.1,0.7-0.2,1-0.3C556.2,317.5,557.1,317.3,558,317.1z M540.4,322
				c-0.6,0.3-1.2,0.5-1.8,0.8c-0.6,0.1-1.2,0.2-1.7,0.3c0.9-0.3,1.7-0.6,2.6-0.9C539.8,322.1,540.1,322.1,540.4,322z M523.7,326.6
				c-0.9,0.4-1.8,0.7-2.8,1.1c-1,0.2-2,0.3-3,0.5c1.1-0.4,2.1-0.7,3.2-1C522,327,522.9,326.8,523.7,326.6z M506.1,331.5
				c-1,0.4-2.1,0.8-3.1,1.3c-1.1,0.2-2.3,0.4-3.4,0.6c1.1-0.4,2.3-0.7,3.4-1.1C504,332,505,331.7,506.1,331.5z M488.2,336.3
				c-1.2,0.5-2.3,0.9-3.5,1.4c-1.3,0.2-2.6,0.4-3.9,0.6c1.3-0.4,2.6-0.8,3.9-1.2C485.9,336.8,487,336.6,488.2,336.3z M470.5,341.1
				c-1.3,0.5-2.6,1-3.9,1.6c-1.5,0.2-3,0.5-4.6,0.7c1.4-0.5,2.9-0.9,4.3-1.4C467.7,341.6,469.1,341.4,470.5,341.1z M452.3,345.9
				c-1.4,0.5-2.9,1.1-4.3,1.7c-1.6,0.2-3.3,0.5-4.9,0.7c1.6-0.5,3.2-1,4.8-1.5C449.3,346.4,450.8,346.1,452.3,345.9z M445.4,348.6
				c-1.9,0.8-3.9,1.7-5.8,2.5c-2.3,0.2-4.6,0.5-6.9,0.8c2.1-0.8,4.1-1.5,6.3-2.3C441.1,349.3,443.2,348.9,445.4,348.6z M429.4,352.3
				c-1.8,0.2-3.6,0.5-5.4,0.8c1.7-0.6,3.5-1.1,5.3-1.6c1.6-0.3,3.2-0.7,4.8-1C432.5,351.1,430.9,351.7,429.4,352.3z M427,353.3
				c-2.1,0.9-4.1,1.7-6.1,2.6c-2.4,0.2-4.8,0.5-7.2,0.8c2.2-0.8,4.4-1.6,6.6-2.4C422.5,354,424.7,353.6,427,353.3z M410.5,357.1
				c-2,0.3-3.9,0.5-5.8,0.8c1.9-0.6,3.8-1.2,5.8-1.7c1.8-0.4,3.5-0.7,5.3-1C414,355.8,412.3,356.5,410.5,357.1z M408.4,358
				c-2.1,0.9-4.2,1.8-6.3,2.7c-2.6,0.2-5.1,0.5-7.6,0.8c2.2-0.8,4.5-1.6,6.8-2.4C403.5,358.7,405.9,358.3,408.4,358z M391.6,361.8
				c-2.2,0.3-4.3,0.6-6.5,0.9c2-0.6,4-1.2,6-1.8c2-0.4,4-0.8,6.1-1.2C395.3,360.4,393.5,361.1,391.6,361.8z M389.6,362.5
				c-2.3,0.9-4.5,1.8-6.7,2.8c-2.7,0.2-5.3,0.5-8,0.7c2.4-0.9,4.8-1.7,7.3-2.5C384.7,363.2,387.1,362.9,389.6,362.5z M372.3,366.4
				c-2.3,0.3-4.5,0.5-6.7,0.8c2.1-0.6,4.2-1.3,6.3-1.9c2.1-0.4,4.2-0.8,6.3-1.1C376.2,364.9,374.3,365.6,372.3,366.4z M373.2,366.7
				c2.8-0.3,5.6-0.6,8.4-0.8c-1.3,0.6-2.6,1.2-3.9,1.8c-1.1,0.5-2.1,1-3.2,1.5c-3,0.1-6,0.3-9,0.5
				C368.1,368.7,370.6,367.7,373.2,366.7z M378,368.3c1.9-0.9,3.8-1.8,5.8-2.6c2.9-0.2,5.9-0.4,8.9-0.6c-0.1,0-0.1,0.1-0.2,0.1
				c-2.3,1.2-4.6,2.4-6.8,3.7c-3.2,0.1-6.3,0.1-9.4,0.3C376.8,368.9,377.4,368.6,378,368.3z M392.8,365.9c0.6-0.3,1.2-0.6,1.8-0.9
				c3.1-0.2,6.2-0.3,9.3-0.3c-2.3,1.3-4.7,2.7-6.9,4.2c-3.3,0-6.5,0-9.7,0C389.1,367.8,390.9,366.8,392.8,365.9z M405.6,364.6
				c3.2-0.1,6.4-0.1,9.6-0.1c-2.3,1.5-4.5,3-6.7,4.6c-3.4-0.1-6.7-0.2-10-0.3C400.8,367.4,403.2,366,405.6,364.6z M416.8,364.6
				c3.3,0,6.6,0.1,9.9,0.2c-2.2,1.6-4.3,3.3-6.4,5c-3.5-0.2-6.9-0.4-10.3-0.6C412.2,367.6,414.5,366,416.8,364.6z M428.2,364.8
				c3.4,0.1,6.8,0.3,10.2,0.5c-1.7,1.4-3.3,2.8-4.9,4.3c-0.4,0.4-0.8,0.8-1.2,1.1c-3.6-0.3-7.1-0.6-10.6-0.8
				C423.8,368.1,426,366.4,428.2,364.8z M434.1,370.3c1.9-1.7,3.8-3.3,5.8-4.9c3.5,0.2,7,0.5,10.5,0.8c-0.6,0.6-1.2,1.1-1.9,1.7
				c-1.4,1.3-2.7,2.7-4.1,4.1c-3.7-0.4-7.3-0.8-10.9-1.1C433.7,370.6,433.9,370.4,434.1,370.3z M449.2,368.6
				c0.8-0.8,1.7-1.6,2.5-2.4c3.3,0.3,6.6,0.6,9.9,1c0.2,0,0.5,0.1,0.8,0.1c-1.9,2-3.8,4.1-5.6,6.2c-3.4-0.5-6.9-0.9-10.3-1.3
				c-0.3,0-0.6-0.1-0.9-0.1C446.9,370.9,448,369.7,449.2,368.6z M463.8,367.4c3.7,0.4,7.3,0.8,11,1.3c-1.8,2.1-3.5,4.3-5.2,6.5
				c-3.8-0.6-7.6-1.1-11.4-1.6C460,371.5,461.9,369.4,463.8,367.4z M476.2,368.9c3.8,0.5,7.5,1,11.3,1.5c-1.6,2.2-3.2,4.5-4.7,6.8
				c-3.9-0.6-7.8-1.2-11.8-1.8C472.7,373.2,474.4,371,476.2,368.9z M488.9,370.7c3.9,0.6,7.8,1.1,11.6,1.7c-1.5,2.3-2.9,4.7-4.3,7.1
				c-0.8-0.1-1.6-0.3-2.5-0.4c-3.2-0.5-6.4-1-9.6-1.5C485.6,375.2,487.2,372.9,488.9,370.7z M501.9,372.6c2.3,0.4,4.7,0.7,7,1.1
				c1.7,0.2,3.3,0.5,5,0.8c-1.4,2.4-2.7,4.8-3.9,7.2c-4.2-0.6-8.3-1.3-12.5-2C498.9,377.2,500.4,374.9,501.9,372.6z M631.6,389
				c-40.4,10.7-82.5,7-124,0.6c1.1-2.5,2.3-5,3.6-7.4c43.4,6.7,87.6,11.6,130,0.5c16.2-4.2,31.8-10.8,46.2-19.3
				C670.4,375,651.5,383.7,631.6,389z M838.8,266.7c-0.4,0.3-0.8,0.5-1.3,0.8c-0.6,0.2-1.1,0.5-1.7,0.7c0.4-0.3,0.9-0.7,1.3-1
				C837.7,267.1,838.2,266.9,838.8,266.7z M834,268.2c-0.7,0.5-1.4,1-2.2,1.6c-0.9,0.3-1.9,0.7-2.8,1c0.7-0.6,1.5-1.2,2.2-1.8
				C832.1,268.7,833.1,268.5,834,268.2z M828.8,269.6c-0.9,0.7-1.8,1.5-2.8,2.2c-1.1,0.4-2.3,0.8-3.4,1.1c0.9-0.8,1.8-1.6,2.7-2.4
				C826.4,270.3,827.6,269.9,828.8,269.6z M823.3,271c-1,0.9-2,1.8-3.1,2.7c-1.3,0.4-2.5,0.8-3.8,1.2c1-1,2-1.9,3-2.9
				C820.7,271.7,822,271.4,823.3,271z M817.6,272.4c-1.1,1-2.1,2-3.2,3c-1.4,0.4-2.7,0.8-4.1,1.1c1.1-1.1,2.1-2.2,3.2-3.3
				C814.8,273,816.2,272.7,817.6,272.4z M811.9,273.6c-1.1,1.1-2.2,2.3-3.3,3.4c-1.5,0.4-3,0.8-4.5,1.1c1.1-1.2,2.2-2.4,3.2-3.6
				C808.9,274.2,810.4,273.9,811.9,273.6z M806.1,274.8c-1.1,1.3-2.2,2.5-3.4,3.7c-1.5,0.4-3.1,0.7-4.6,1.1c1.1-1.3,2.2-2.6,3.2-3.9
				C802.9,275.4,804.5,275.1,806.1,274.8z M800.2,275.8c-1.1,1.3-2.2,2.7-3.3,4c-1.6,0.3-3.2,0.7-4.9,1c1.1-1.4,2.2-2.7,3.2-4.1
				C796.9,276.4,798.5,276.1,800.2,275.8z M794.2,276.8c-1.1,1.4-2.2,2.8-3.3,4.2c-1.7,0.3-3.3,0.6-5,0.9c1.1-1.4,2.1-2.9,3.2-4.3
				C790.8,277.3,792.5,277.1,794.2,276.8z M788.3,277.7c-1.1,1.5-2.1,2.9-3.2,4.3c-0.7,0.1-1.4,0.2-2.1,0.4c-1,0.2-2.1,0.3-3.1,0.5
				c1.1-1.5,2.1-3,3.1-4.5C784.7,278.2,786.5,278,788.3,277.7z M782.2,278.5c-1,1.5-2.1,3-3.2,4.5c-1.8,0.3-3.5,0.5-5.3,0.8
				c1-1.5,2-3.1,3.1-4.6C778.6,279,780.4,278.8,782.2,278.5z M776.2,279.3c-1,1.5-2,3.1-3.1,4.6c-1.8,0.2-3.6,0.5-5.4,0.7
				c1-1.5,2-3.1,3-4.6C772.5,279.7,774.3,279.5,776.2,279.3z M770,280c-1,1.6-2,3.1-3,4.6c-1.8,0.2-3.7,0.4-5.5,0.6
				c1-1.5,1.9-3.1,2.8-4.7C766.3,280.4,768.2,280.2,770,280z M763.9,280.6c-0.9,1.6-1.9,3.1-2.8,4.7c-1.9,0.2-3.8,0.4-5.7,0.6
				c0.9-1.6,1.8-3.1,2.7-4.7C760.1,281,762,280.8,763.9,280.6z M689,286.9c12.3-1.2,24.9-2.2,37.1-3.1c10.5-0.8,21-1.6,31.6-2.6
				c-0.9,1.6-1.8,3.1-2.7,4.7c-14.6,1.3-29.3,2.1-43.7,2.8c-12.3,0.6-25.1,1.2-37.6,2.3c-15,1.2-29,3-42,5.3
				C648,292.3,666.9,289.1,689,286.9z M438.3,349c-0.1,0-0.2,0.1-0.3,0.1c-0.1,0-0.2,0-0.3,0.1C437.9,349.1,438.1,349.1,438.3,349z
				 M420.5,353.5c-0.4,0.1-0.8,0.2-1.1,0.4c-0.4,0.1-0.9,0.2-1.3,0.2C418.9,353.9,419.7,353.7,420.5,353.5z M402.4,357.9
				c-0.7,0.2-1.4,0.4-2.1,0.7c-0.7,0.1-1.4,0.2-2.1,0.3C399.6,358.6,401,358.3,402.4,357.9z M383.7,362.4c-0.8,0.3-1.6,0.5-2.4,0.8
				c-1,0.2-2,0.3-3,0.5C380.1,363.3,381.9,362.8,383.7,362.4z M365.7,366.6c-1.2,0.4-2.4,0.7-3.6,1.1c-1.3,0.2-2.5,0.4-3.8,0.6
				C360.7,367.7,363.2,367.1,365.7,366.6z M346.5,370.9c-1.4,0.4-2.8,0.8-4.1,1.2c-1.5,0.2-3,0.4-4.5,0.7
				C340.8,372.1,343.6,371.4,346.5,370.9z M317.4,377c3.4-0.8,6.8-1.5,10.2-2.1c-1.6,0.4-3.2,0.9-4.8,1.4
				C321,376.5,319.2,376.7,317.4,377z M325.5,375.9c2.4-0.7,4.9-1.3,7.3-2c2.4-0.4,4.8-0.8,7.2-1.1c-2.2,0.7-4.5,1.4-6.7,2.2h-0.1
				C330.7,375.3,328.1,375.6,325.5,375.9z M335.5,374.9c2.6-0.9,5.2-1.7,7.8-2.5c2.7-0.4,5.4-0.7,8.2-1c-1.1,0.4-2.2,0.8-3.3,1.2
				c-1.3,0.5-2.7,1.1-4,1.6C341.3,374.4,338.4,374.6,335.5,374.9z M348.9,373.9c-1,0.1-1.9,0.1-2.9,0.2c0.8-0.3,1.6-0.7,2.4-1
				c1.8-0.7,3.6-1.4,5.5-2c2.9-0.3,5.8-0.6,8.7-0.8c-2.4,1.1-4.9,2.2-7.3,3.3C353.1,373.7,351,373.8,348.9,373.9z M356.8,373.6
				c2.1-1,4.2-2,6.4-2.9c0.4-0.2,0.8-0.3,1.2-0.5c3-0.2,6.1-0.4,9.2-0.5c-2.4,1.2-4.8,2.5-7.2,3.7
				C363.2,373.4,360,373.5,356.8,373.6z M367.9,373.4c2.5-1.3,5-2.6,7.5-3.8c3.2-0.1,6.3-0.2,9.6-0.3c-2.4,1.3-4.8,2.7-7.1,4.2
				C374.5,373.4,371.2,373.4,367.9,373.4z M379.3,373.5c2.4-1.5,4.8-2.9,7.3-4.2c3.3,0,6.6-0.1,9.9,0c-2.3,1.5-4.6,3-6.8,4.6
				C386.1,373.7,382.6,373.6,379.3,373.5z M390.9,373.9c2.3-1.6,4.6-3.2,7-4.7c3.4,0,6.7,0.1,10.1,0.3c-1.6,1.1-3.1,2.3-4.6,3.5
				c-0.7,0.5-1.3,1-2,1.6C397.9,374.3,394.3,374.1,390.9,373.9z M402.7,374.6c0.4-0.3,0.8-0.7,1.2-1c1.8-1.4,3.6-2.8,5.5-4.1
				c3.4,0.1,6.9,0.3,10.4,0.5c-0.5,0.4-0.9,0.8-1.4,1.1c-1.7,1.4-3.3,2.8-4.9,4.3C409.9,375.2,406.3,374.9,402.7,374.6z
				 M414.7,375.7c1.4-1.3,2.8-2.5,4.3-3.7c0.7-0.6,1.4-1.2,2.2-1.8c3.5,0.2,7.1,0.5,10.7,0.8c-2,1.9-4.1,3.8-6,5.8
				C422.1,376.4,418.4,376,414.7,375.7z M431.5,377.6c-1.5-0.2-2.9-0.4-4.4-0.5c2-2,4-4,6.1-5.9c3.6,0.3,7.3,0.7,10.9,1.1
				c-1.9,2-3.9,4.1-5.7,6.2C436.1,378.2,433.8,377.8,431.5,377.6z M439.6,378.7c1.9-2.1,3.8-4.2,5.8-6.3c0.4,0,0.8,0.1,1.2,0.1
				c3.3,0.4,6.7,0.8,10,1.3c-1.8,2.1-3.6,4.3-5.3,6.6C447.4,379.8,443.5,379.2,439.6,378.7z M452.6,380.6c1.7-2.3,3.5-4.5,5.3-6.6
				c3.8,0.5,7.7,1.1,11.5,1.6c-1.7,2.2-3.3,4.6-4.9,6.9C460.6,381.9,456.6,381.2,452.6,380.6z M465.8,382.7c1.6-2.4,3.2-4.7,4.9-6.9
				c3.9,0.6,7.9,1.2,11.8,1.8c-1.5,2.3-3,4.7-4.4,7.2C474,384.1,469.9,383.4,465.8,382.7z M479.4,385c1.4-2.4,2.9-4.8,4.5-7.2
				c3.3,0.5,6.6,1,9.8,1.6c0.8,0.1,1.5,0.2,2.3,0.4c-1.4,2.4-2.7,4.8-4,7.3C487.7,386.4,483.5,385.7,479.4,385z"/>
		</g>
		<g>
			<defs>
				<rect id="SVGID_5_" width="750" height="500"/>
			</defs>
			<clipPath id="SVGID_6_">
				<use xlink:href="#SVGID_5_"  style="overflow:visible;"/>
			</clipPath>
			<g class="st5">
				<g>
					
						<linearGradient id="SVGID_7_" gradientUnits="userSpaceOnUse" x1="321.8544" y1="302.9259" x2="485.3983" y2="302.9259" gradientTransform="matrix(0.7488 0.6628 0.841 -0.95 -284.4913 141.2727)">
						<stop  offset="0" style="stop-color:#7A99ED"/>
						<stop  offset="1" style="stop-color:#FEFCFF"/>
					</linearGradient>
					<path class="st6" d="M10.1,522.3V522c15.4-4.6,30.3-15.4,43-31.2c11.2-13.9,20.6-31.4,26.4-49.3c6-18.4,9.1-37.2,12.2-55.4
						c2.6-15.6,5.4-31.8,9.8-47.6c25.3-89.6,113.3-170.6,200.3-184.4c4.1-0.6,8.2-1.2,12.3-1.7c15.8-2,32.2-4.1,47-13.2
						c13.6-8.3,24.7-21.8,31.9-38.9c6.4-15.2,9.6-32.5,8.9-48.8c-0.7-16.8-4.5-32.9-8.1-48.4c-3.1-13.1-6.3-26.7-7.6-40.8
						c-2.1-22.4,0.7-47,8.1-71.2s19.4-48,34.8-68.7c15.3-20.8,34.8-39.6,56.3-54.6c21.5-14.9,45-25.9,68-31.7v0.3
						c-22.9,5.8-46.4,16.7-67.8,31.6c-21.4,14.9-40.9,33.7-56.2,54.4c-15.3,20.7-27.3,44.5-34.7,68.6c-7.4,24.1-10.2,48.7-8,71.1
						c1.3,14,4.5,27.6,7.6,40.8c3.6,15.5,7.4,31.6,8.1,48.5c0.7,16.3-2.5,33.7-8.9,49c-7.3,17.2-18.4,30.8-32.1,39.1
						c-14.9,9.1-31.3,11.2-47.2,13.3c-4,0.5-8.2,1.1-12.3,1.7c-86.8,13.7-174.6,94.6-199.9,184.1c-4.5,15.8-7.2,32-9.8,47.6
						c-3.1,18.2-6.3,37.1-12.2,55.5c-5.8,18-15.2,35.6-26.5,49.5C40.5,506.8,25.5,517.6,10.1,522.3z"/>
				</g>
				<g>
					
						<linearGradient id="SVGID_8_" gradientUnits="userSpaceOnUse" x1="347.0926" y1="301.5836" x2="479.8921" y2="301.5836" gradientTransform="matrix(0.7488 0.6628 0.841 -0.95 -284.4913 141.2727)">
						<stop  offset="0" style="stop-color:#7A99ED"/>
						<stop  offset="1" style="stop-color:#FEFCFF"/>
					</linearGradient>
					<path class="st7" d="M8.1,521.1L8,520.6c13.9-5.2,27.8-16.4,40.3-32.5c10.8-13.9,20.4-31.4,27-49.1c0.8-2.2,1.6-4.4,2.4-6.7
						c5.2-15,8.6-29.8,12-44.2c3.5-15.1,7.2-30.8,12.8-46.1c8.5-23.3,22.7-46.3,35.6-65.7c16.3-24.6,30.8-43.2,45.6-58.5
						c22.5-23.2,48.1-41.9,74.1-53.9c11.6-5.4,22.6-9.3,33.7-12.1c6-1.5,12.2-2.6,18.8-3.8c5.9-1.1,12-2.2,18-3.6
						c9.4-2.2,16.9-5,23.7-8.6c13.6-7.4,24.6-18.7,32.7-33.6c7.5-13.8,12-29.9,12.6-45.4c0.6-15-1.5-29.4-3.5-43.3
						c-1.8-12.2-3.6-24.9-3.7-38.1c0-20.3,4.5-42.6,13-64.7c9.1-23.4,22.8-46.6,39.7-67.1c16.5-20,36.9-38.6,59.2-53.7
						c22.2-15,46.2-26.7,69.5-33.8v0.5c-23.3,7-47.2,18.7-69.4,33.7c-22.2,15-42.6,33.6-59,53.5c-16.8,20.4-30.5,43.6-39.5,66.9
						c-8.6,22-13,44.3-13,64.5c0,13.2,1.9,25.8,3.7,38c2,13.9,4.1,28.3,3.5,43.4c-0.7,15.5-5.2,31.7-12.7,45.6
						c-8,14.8-19.4,26.6-33,33.9c-6.8,3.7-14.4,6.4-23.8,8.7c-6,1.4-12.1,2.5-18,3.6c-6.6,1.2-12.7,2.3-18.8,3.8
						c-11.1,2.8-22,6.7-33.6,12.1c-25.9,12-51.4,30.6-73.9,53.8c-14.8,15.3-29.3,33.9-45.5,58.4c-12.8,19.4-27.1,42.3-35.5,65.6
						c-5.6,15.3-9.2,30.9-12.8,46c-3.4,14.4-6.8,29.3-12,44.3c-0.8,2.3-1.6,4.6-2.4,6.7c-6.7,17.8-16.3,35.3-27.1,49.3
						C36.2,504.6,22.1,515.9,8.1,521.1z"/>
				</g>
				<g>
					
						<linearGradient id="SVGID_9_" gradientUnits="userSpaceOnUse" x1="371.7521" y1="300.2605" x2="475.112" y2="300.2605" gradientTransform="matrix(0.7488 0.6628 0.841 -0.95 -284.4913 141.2727)">
						<stop  offset="0" style="stop-color:#7A99ED"/>
						<stop  offset="1" style="stop-color:#FEFCFF"/>
					</linearGradient>
					<path class="st8" d="M6.2,519.9L6,519.3c27.6-12.6,51.8-51,65.3-82.7c0.9-2.1,1.8-4.3,2.7-6.5c5.5-13.6,9.6-26.8,13.5-39.5
						c4.8-15.5,9.3-30.1,16.1-45c7.3-15.9,18.2-32,29.7-49.1c3.2-4.7,6.5-9.6,9.7-14.5c2.6-4,5.2-8,7.8-11.9
						c11.5-17.6,22.4-34.3,34.3-48.8c19.6-23.9,42.2-43.7,65.3-57.3c11.1-6.6,20.6-11.1,30.7-14.6c8.2-2.8,17.5-4.8,26.6-6.8
						c3.5-0.8,7.2-1.6,10.8-2.4c10-2.3,17.5-4.8,24.3-8c13.8-6.6,25.3-16.6,34.1-29.8c8.1-12.1,13.6-26.5,15.7-40.4
						c1.9-13.3,1.5-26,1-38.4c-0.4-11.2-0.9-22.9,0.5-35.1c2-18.7,8.4-39.4,18.6-59.9c10.8-22,26.1-44,44-63.7
						c35.9-39.3,84.5-71.6,133.1-88.6l0.1,0.6c-48.5,17-96.9,49.2-132.7,88.4c-17.9,19.6-33.1,41.5-43.9,63.5
						c-10.1,20.4-16.5,41.1-18.5,59.7c-1.3,12.2-0.9,23.8-0.5,35c0.5,12.4,0.9,25.2-1,38.5c-2.1,14.1-7.7,28.6-15.9,40.8
						c-8.9,13.3-20.5,23.5-34.4,30.1c-6.8,3.2-14.4,5.7-24.4,8.1c-3.6,0.8-7.2,1.6-10.8,2.4c-9,1.9-18.4,3.9-26.5,6.8
						c-10.1,3.5-19.5,8-30.6,14.5c-23,13.5-45.5,33.3-65,57.1c-11.9,14.5-22.8,31.2-34.3,48.8c-2.6,3.9-5.2,7.9-7.8,11.9
						c-3.2,4.9-6.5,9.8-9.7,14.5c-11.5,17.1-22.4,33.2-29.7,49c-6.8,14.9-11.3,29.5-16.1,44.9c-3.9,12.7-8,25.9-13.5,39.6
						c-0.9,2.2-1.8,4.4-2.7,6.5C58.4,468.6,34,507.2,6.2,519.9z"/>
				</g>
				<g>
					
						<linearGradient id="SVGID_10_" gradientUnits="userSpaceOnUse" x1="395.5405" y1="298.9703" x2="470.4173" y2="298.9703" gradientTransform="matrix(0.7488 0.6628 0.841 -0.95 -284.4913 141.2727)">
						<stop  offset="0" style="stop-color:#7A99ED"/>
						<stop  offset="1" style="stop-color:#FEFCFF"/>
					</linearGradient>
					<path class="st9" d="M4.2,518.7L4,518c29.3-16.5,55.9-68.3,63.3-83.8c1-2.1,2-4.2,3-6.3c5.6-12,10-23.2,14.3-34.1
						c6.1-15.4,11.8-30,20.1-44.6c6-10.5,14-21.3,22.6-32.7c6.8-9.1,13.9-18.6,20.7-28.8c7.2-11,13.6-21.8,19.7-32.2
						c6.4-10.9,12.5-21.2,18.9-30.6c16.6-24.3,36.2-45.3,56.5-60.6c7.6-5.8,16.1-11.8,27.8-17.1c10.4-4.6,23.1-7.6,35.5-10.4
						l2.5-0.6c8.1-1.9,16.8-4,24.9-7.4c14.1-5.8,26-14.6,35.5-26.1c8.6-10.5,15.3-23.1,18.8-35.5c3.3-11.7,4.3-22.5,5.4-34
						c1-10.1,2-20.5,4.6-31.7c4.1-17.1,12.4-36.2,24.1-55.2c12.6-20.6,29.3-41.4,48.4-60.2c38-37.4,88.1-70.2,137.5-89.8l0.1,0.8
						c-49.3,19.6-99.3,52.3-137.1,89.6c-19,18.7-35.6,39.5-48.2,60c-11.6,18.9-19.9,37.9-24,54.9c-2.6,11.1-3.6,21.5-4.6,31.6
						c-1.1,11.5-2.1,22.4-5.4,34.1c-3.5,12.6-10.3,25.3-19,35.9c-9.6,11.6-21.7,20.5-35.9,26.4c-8.2,3.4-16.9,5.6-25.1,7.5l-2.5,0.6
						c-12.3,2.8-25,5.7-35.3,10.3c-11.7,5.2-20,11.2-27.6,17c-20.2,15.2-39.6,36.1-56.2,60.3c-6.4,9.4-12.5,19.7-18.9,30.6
						c-6.1,10.4-12.5,21.3-19.8,32.3c-6.8,10.3-13.8,19.7-20.7,28.9c-8.5,11.4-16.6,22.1-22.5,32.6c-8.3,14.6-14,29.1-20,44.5
						c-4.3,10.9-8.7,22.2-14.3,34.2c-1,2.1-2,4.2-3,6.3C60.5,450,33.8,502,4.2,518.7z"/>
				</g>
				<g>
					
						<linearGradient id="SVGID_11_" gradientUnits="userSpaceOnUse" x1="404.3243" y1="297.5656" x2="467.4714" y2="297.5656" gradientTransform="matrix(0.7488 0.6628 0.841 -0.95 -284.4913 141.2727)">
						<stop  offset="0" style="stop-color:#7A99ED"/>
						<stop  offset="1" style="stop-color:#FEFCFF"/>
					</linearGradient>
					<path class="st10" d="M2.3,517.5l-0.4-0.8c16.6-11.7,37.3-40.2,61.3-84.9l3.3-6.1c5.2-9.7,9.6-18.7,13.9-27.4
						c7.7-15.8,15.1-30.8,25.4-45.5c5.2-7.4,11.7-15,18.7-23.1c9.1-10.6,19.4-22.6,28.4-36.2c9.9-15,17.1-29.6,24.2-43.7
						c3.7-7.5,7.3-14.6,11-21.3c13.8-24.8,30.2-46.9,47.6-63.9c6.4-6.2,13.6-13.3,24.9-19.6c10.7-6,24.9-9.6,38.5-12.7
						c8.5-1.9,17.2-3.9,25.6-6.8c14.4-5.1,26.8-12.6,36.9-22.3c9.1-8.8,16.9-19.7,21.9-30.6c4.6-10.2,7.2-19.8,9.9-29.9
						c2.4-8.8,4.8-18,8.7-27.9c6.2-15.5,16.5-33,29.6-50.4c14.4-19.2,32.6-38.8,52.7-56.8c39.8-35.5,91.5-68.7,141.8-91l0.2,0.9
						c-50.2,22.3-101.8,55.4-141.5,90.8c-20,17.9-38.2,37.4-52.5,56.6C419.3-17.8,409.1-0.4,402.9,15c-3.9,9.9-6.4,19-8.7,27.8
						c-2.7,10.2-5.3,19.8-10,30.1c-5,11.1-12.9,22.1-22.1,31c-10.2,9.9-22.8,17.5-37.4,22.6c-8.4,3-17.2,4.9-25.7,6.8
						c-13.6,3.1-27.6,6.7-38.3,12.6c-11.2,6.2-18.4,13.2-24.7,19.4c-17.3,17-33.7,39-47.4,63.6c-3.7,6.6-7.2,13.7-10.9,21.2
						c-7,14.1-14.3,28.8-24.3,43.9c-9,13.7-19.4,25.7-28.5,36.4c-6.9,8-13.4,15.7-18.6,23C96.1,368,88.8,382.9,81,398.7
						c-4.3,8.7-8.7,17.7-13.9,27.5l-3.3,6.1C39.9,477,19.1,505.7,2.3,517.5z"/>
				</g>
				<g>
					
						<linearGradient id="SVGID_12_" gradientUnits="userSpaceOnUse" x1="398.9615" y1="296.4355" x2="494.6471" y2="296.4355" gradientTransform="matrix(0.7488 0.6628 0.841 -0.95 -284.4913 141.2727)">
						<stop  offset="0" style="stop-color:#7A99ED"/>
						<stop  offset="1" style="stop-color:#FEFCFF"/>
					</linearGradient>
					<path class="st11" d="M0.5,516.2l-0.6-0.8c16.7-14.8,38-50.4,55.1-79l4.2-7c1.2-2,2.4-4,3.6-6c3.9-6.3,7.4-12.2,10.7-17.9
						c10.8-18.2,20.1-33.9,33.4-49.2c4.6-5.3,10-10.7,15.8-16.5c11.4-11.5,24.4-24.4,35.1-40.7c11.7-17.9,19-36,25.4-51.9
						c2.1-5.3,4.2-10.4,6.3-15.2c10.9-25,24.3-48.3,38.8-67.2l0.4-0.5c5.5-7.2,11.2-14.7,21.7-21.7c8.7-5.9,21.5-10.6,39.2-14.5
						c1.8-0.4,3.6-0.8,5.4-1.2c7.3-1.6,14.1-3.1,20.9-5c14.8-4.4,27.7-10.6,38.4-18.6c12.2-9.1,20.3-19,24.9-25.7
						c6.2-9,10.5-17.6,14.9-26.7c3.6-7.3,7.3-14.9,12.3-23.2c8.4-14,20.6-29.7,35.1-45.6c16.3-17.8,36-36.2,57.1-53.3
						c41.3-33.3,94.6-66.9,146.2-92.2l0.3,1c-51.6,25.2-104.7,58.7-145.9,92c-21,17-40.7,35.4-56.9,53.1
						c-14.5,15.8-26.6,31.4-35,45.3c-5,8.3-8.7,15.8-12.3,23.1c-4.5,9.2-8.7,17.8-15,26.9c-4.7,6.8-12.9,16.8-25.3,26.1
						c-10.8,8.1-23.8,14.4-38.8,18.8c-6.8,2-13.6,3.5-20.9,5.1c-1.8,0.4-3.6,0.8-5.4,1.2c-17.5,3.9-30.1,8.5-38.7,14.3
						c-10.3,6.9-15.9,14.2-21.3,21.3l-0.4,0.5c-14.4,18.8-27.8,42-38.6,66.9c-2.1,4.8-4.1,9.8-6.2,15.2c-6.4,16-13.7,34.2-25.5,52.2
						c-10.7,16.4-23.8,29.4-35.3,40.9c-5.7,5.8-11.2,11.2-15.7,16.4c-13.1,15.2-22.4,30.9-33.2,49c-3.4,5.7-6.9,11.6-10.7,17.9
						c-1.2,1.9-2.4,3.9-3.6,5.9l-4.2,7C38.8,465.5,17.4,501.2,0.5,516.2z"/>
				</g>
				<g>
					
						<linearGradient id="SVGID_13_" gradientUnits="userSpaceOnUse" x1="391.1445" y1="295.0864" x2="521.8304" y2="295.0864" gradientTransform="matrix(0.7488 0.6628 0.841 -0.95 -284.4913 141.2727)">
						<stop  offset="0" style="stop-color:#7A99ED"/>
						<stop  offset="1" style="stop-color:#FEFCFF"/>
					</linearGradient>
					<path class="st12" d="M-2.2,514.2C7.6,503,20.4,482.3,34,460.5c7.1-11.4,14.4-23.3,21.2-33.5c1.3-2,2.6-3.9,3.9-5.8l0.1-0.2
						c18.2-26.3,30.3-43.7,48.9-61.2c3.9-3.7,8.4-7.5,13.1-11.5c13.8-11.7,29.4-25,41.5-43.5c13.2-20.2,19.4-40.6,24.8-58.5
						c1.1-3.7,2.2-7.2,3.3-10.7c8.1-25.1,18.4-49.5,30-70.5l0.6-1c4.2-7.8,8.6-15.8,18.6-23.7c11-8.7,27.7-13.6,39.8-16.3
						c3.9-0.8,7.7-1.6,11.4-2.3c5.4-1.1,10.5-2.1,15.5-3.3c15.7-3.7,28.7-8.6,39.9-14.9c10.2-5.7,19.6-12.7,28-20.9
						c8.6-8.3,15-16.5,21.9-25.1c4.2-5.4,8.6-10.9,13.9-17C421.2,28.1,435.2,14,451-0.1c18.6-16.8,39.2-33.5,61.4-49.8
						c42.5-31.1,95.9-64.3,150.6-93.3l0.3,1.1c-54.6,29-108,62.1-150.4,93.2c-22.1,16.3-42.7,33-61.2,49.7
						C436,14.9,422,28.9,411.2,41.4c-5.3,6.1-9.6,11.6-13.9,17c-6.9,8.7-13.4,16.9-22,25.3c-8.6,8.3-18.1,15.4-28.4,21.2
						c-11.3,6.3-24.4,11.2-40.2,15c-5.1,1.2-10.1,2.2-15.5,3.3c-3.7,0.7-7.5,1.5-11.4,2.3c-11.9,2.6-28.4,7.5-39.2,16
						c-9.7,7.7-14,15.5-18.2,23.2l-0.6,1c-11.5,20.9-21.8,45.2-29.8,70.2c-1.1,3.4-2.2,6.9-3.3,10.6c-5.5,18.1-11.7,38.6-25,59
						c-12.3,18.8-28,32.1-41.8,43.9c-4.7,4-9.2,7.8-13.1,11.5c-18.5,17.3-30.5,34.7-48.6,60.9l-0.1,0.2c-1.3,1.9-2.6,3.8-3.9,5.7
						c-6.8,10-14.1,21.8-21.2,33.3c-13.6,21.9-26.5,42.7-36.4,54L-2.2,514.2z"/>
				</g>
				<g>
					
						<linearGradient id="SVGID_14_" gradientUnits="userSpaceOnUse" x1="382.5438" y1="293.745" x2="548.8558" y2="293.745" gradientTransform="matrix(0.7488 0.6628 0.841 -0.95 -284.4913 141.2727)">
						<stop  offset="0" style="stop-color:#7A99ED"/>
						<stop  offset="1" style="stop-color:#FEFCFF"/>
					</linearGradient>
					<path class="st13" d="M-4.4,513c4.3-6.5,9.8-15.9,16.3-26.7c11.5-19.4,25.8-43.4,39.3-61.9c1.4-1.9,2.8-3.8,4.2-5.6
						c20.5-26.3,35-41.3,53.8-55.5c3.2-2.4,6.7-4.9,10.3-7.5c15.4-11,34.5-24.6,48.1-45.4c14.5-22.2,19.1-44.5,23.2-64.3
						c0.5-2.4,1-4.7,1.5-7c5.4-25,12.5-49.8,21.1-73.7l0.4-1.2c3-8.5,6.2-17.2,15.8-26.1c11.6-10.7,30.3-15.9,40.4-18.1
						c6-1.3,11.9-2.3,17.6-3.3c3.4-0.6,6.7-1.1,9.9-1.7c16.8-3.1,30.3-6.8,41.4-11.1c10.5-4.2,20.7-9.4,31.2-16.1
						c13.5-8.6,23.6-17,36.4-27.7c2.5-2.1,5.2-4.3,8-6.6c14.3-11.8,29.8-23.9,46.1-35.9c21.2-15.8,43.3-31.4,65.7-46.3
						c40.7-27.1,91.3-58,154.9-94.5l0.4,1.2c-63.5,36.5-114.1,67.4-154.8,94.4c-22.3,15-44.4,30.6-65.6,46.4
						c-16.2,12-31.7,24.1-46,35.9c-2.8,2.3-5.4,4.5-8,6.6c-12.8,10.7-23,19.1-36.6,27.8c-10.5,6.7-20.8,12-31.5,16.2
						c-11.2,4.4-24.8,8.1-41.6,11.2c-3.3,0.6-6.6,1.2-9.9,1.7c-5.7,1-11.6,2-17.6,3.2c-9.9,2.1-28.3,7.2-39.6,17.6
						c-9.3,8.6-12.4,17.1-15.3,25.3l-0.4,1.2c-8.6,23.9-15.7,48.6-21.1,73.5c-0.5,2.3-1,4.6-1.5,7c-4.1,19.9-8.8,42.4-23.4,64.9
						c-13.8,21.1-33.1,34.8-48.6,45.9c-3.7,2.6-7.1,5.1-10.3,7.5c-18.6,14.1-33.1,29.1-53.5,55.2c-1.4,1.7-2.8,3.6-4.2,5.5
						c-13.4,18.3-27.7,42.4-39.2,61.7c-6.4,10.8-12,20.2-16.3,26.8L-4.4,513z"/>
				</g>
				<g>
					
						<linearGradient id="SVGID_15_" gradientUnits="userSpaceOnUse" x1="373.6891" y1="292.3436" x2="575.9474" y2="292.3436" gradientTransform="matrix(0.7488 0.6628 0.841 -0.95 -284.4913 141.2727)">
						<stop  offset="0" style="stop-color:#7A99ED"/>
						<stop  offset="1" style="stop-color:#FEFCFF"/>
					</linearGradient>
					<path class="st14" d="M-6.5,511.9c9.4-20.4,31.4-62.2,53.7-89.9c1.5-1.9,3-3.7,4.5-5.4c22-25.3,38.8-37.8,58.7-49.7
						c2.2-1.3,4.6-2.7,7-4.1c17.9-10.5,40.1-23.5,55.1-46.5c15.6-24,18.4-49.2,20.7-69.5l0.4-3.8c2.8-24,6.7-48.5,12.3-77l0.2-1.1
						c1.7-8.8,3.7-18.8,13.1-28.8c8.4-8.9,23.4-16.2,41-19.9c8.3-1.8,16.4-2.8,24.1-3.9l4.1-0.5c17.3-2.3,31.1-4.5,42.9-7.4
						c14-3.5,25.7-7.8,34.3-11.2c17.5-6.9,31.9-14.1,52.9-26.5c14.1-8.2,30.8-18.4,50.1-30.3l15.3-9.4C501,16.6,520.2,4.8,540.2-7.4
						c19.3-11.7,39.2-23.5,60.3-36.1c32.9-19.6,67-39.9,98.9-59.6l0.5,1.3c-31.9,19.7-66,40-98.9,59.6c-21.1,12.6-41,24.4-60.3,36.1
						c-20,12.1-39.2,23.9-56.1,34.3l-15.3,9.4c-19.4,11.8-36.1,22-50.2,30.3C398,80.4,383.6,87.6,366,94.6
						c-8.7,3.4-20.4,7.8-34.5,11.3c-11.8,2.9-25.7,5.1-43,7.4l-4.1,0.5c-7.7,1-15.7,2.1-24,3.8c-17.3,3.6-31.9,10.7-40,19.3
						c-9,9.6-10.8,18.8-12.6,27.8l-0.2,1.1c-5.6,28.5-9.5,52.9-12.3,76.9l-0.4,3.8c-2.3,20.5-5.1,46-21,70.3
						c-15.3,23.5-37.8,36.7-55.8,47.2c-2.4,1.4-4.7,2.8-7,4.1c-19.8,11.9-36.4,24.3-58.2,49.3c-1.5,1.7-3,3.5-4.5,5.3
						c-22.1,27.5-44,69.1-53.4,89.4L-6.5,511.9z"/>
				</g>
				<g>
					
						<linearGradient id="SVGID_16_" gradientUnits="userSpaceOnUse" x1="364.372" y1="290.8015" x2="603.1631" y2="290.8015" gradientTransform="matrix(0.7488 0.6628 0.841 -0.95 -284.4913 141.2727)">
						<stop  offset="0" style="stop-color:#7A99ED"/>
						<stop  offset="1" style="stop-color:#FEFCFF"/>
					</linearGradient>
					<path class="st15" d="M-8.6,510.8c6-20.4,27.3-63.5,51.7-91.2c1.6-1.8,3.2-3.6,4.8-5.2c23.4-24,43.5-34.5,63.6-43.9l2.8-1.3
						c19.6-9.1,46.4-21.6,63-47.2c16.7-25.7,17.2-52.7,17.6-74.4v-1c0.5-26.1,1.9-50.4,3-71.8l0.5-9.3c0.5-9.6,1.1-20.4,10.3-31.6
						c8.2-9.9,23.8-18,41.7-21.7c9.9-2,19.3-3,28.9-3.8c7-0.6,13.4-1.1,19.7-1.5c8.8-0.6,17.2-1.2,24.7-2.1
						c14.1-1.6,26.8-4.1,37.4-6.4c19.6-4.1,37.6-8.9,61.5-18.6c15.6-6.3,34.2-14.9,57-26.3c20.6-10.3,44.9-23.2,74.3-39.4
						c65.7-36,119.2-67.7,163.5-96.8l0.7,1.4C674-52.4,620.5-20.7,554.7,15.4c-29.4,16.2-53.8,29.1-74.4,39.4
						c-22.8,11.4-41.5,20-57.2,26.4C399,91,381,95.8,361.3,100c-10.6,2.2-23.4,4.7-37.6,6.4c-7.5,0.9-15.9,1.5-24.7,2.1
						c-6.2,0.5-12.7,0.9-19.7,1.5c-9.5,0.8-18.9,1.7-28.7,3.8c-17.5,3.6-32.6,11.4-40.5,20.9c-8.8,10.6-9.3,20.7-9.8,30.4l-0.5,9.3
						c-1.2,21.4-2.5,45.7-3,71.8v1c-0.4,22-0.9,49.3-18,75.5c-17,26.1-44.2,38.8-64,48L112,372c-20,9.4-39.8,19.7-63,43.5
						c-1.6,1.6-3.2,3.3-4.8,5.1C20.1,448.1-1,490.7-7,510.9L-8.6,510.8z"/>
				</g>
				<g>
					
						<linearGradient id="SVGID_17_" gradientUnits="userSpaceOnUse" x1="355.0634" y1="289.5635" x2="630.4216" y2="289.5635" gradientTransform="matrix(0.7488 0.6628 0.841 -0.95 -284.4913 141.2727)">
						<stop  offset="0" style="stop-color:#7A99ED"/>
						<stop  offset="1" style="stop-color:#FEFCFF"/>
					</linearGradient>
					<path class="st16" d="M-10.7,509.7c3.2-22.6,24.5-66.2,49.8-92.5c1.7-1.8,3.4-3.5,5.2-5.1c24.6-22.7,46.9-30.5,68.5-38.1
						c19.1-6.7,51.1-18,69.5-46.3c17.7-27.3,15.7-56.3,14.2-77.5c-1-14.6-1.9-28.5-2.7-42.1c-0.9-14.6-1.7-28.4-2.7-41.5v-0.5
						c-0.8-10.4-1.6-22.2,7.5-34.6c8-11,23.8-19.8,42.3-23.5c10.8-2.2,21-2.8,29.6-3.2c12.1-0.5,23.1-0.3,32.9-0.1
						c4.5,0.1,8.8,0.2,13,0.2c14.7,0,28.2-0.7,40.6-1.5c23.6-1.5,44.5-3.9,70.1-10.8c18-4.8,39-12.1,62.5-21.5
						c23.3-9.5,49.8-21.6,78.6-35.9c43.4-21.6,107.7-56.1,167.8-98l0.8,1.5c-60.3,42-124.7,76.5-168.2,98.1
						c-28.9,14.4-55.4,26.5-78.8,36c-23.5,9.5-44.6,16.8-62.7,21.6c-25.7,6.9-46.8,9.4-70.4,10.9c-12.4,0.8-25.9,1.5-40.7,1.5
						c-4.1,0-8.4-0.1-13-0.2c-9.7-0.2-20.8-0.4-32.8,0.1c-8.5,0.3-18.6,1-29.3,3.2c-17.9,3.7-33.2,12.1-40.9,22.6
						c-8.6,11.7-7.7,23.1-7,33.1v0.5c1,13,1.8,26.8,2.7,41.5c0.8,13.5,1.7,27.5,2.7,42c1.5,21.5,3.6,50.9-14.5,78.8
						c-18.9,29.1-51.4,40.5-70.8,47.3c-21.4,7.5-43.4,15.3-67.7,37.6c-1.7,1.5-3.4,3.2-5,4.9c-24.3,25.3-46,69-49.2,91.2
						L-10.7,509.7z"/>
				</g>
				<g>
					
						<linearGradient id="SVGID_18_" gradientUnits="userSpaceOnUse" x1="345.5545" y1="288.2177" x2="657.447" y2="288.2177" gradientTransform="matrix(0.7488 0.6628 0.841 -0.95 -284.4913 141.2727)">
						<stop  offset="0" style="stop-color:#7A99ED"/>
						<stop  offset="1" style="stop-color:#FEFCFF"/>
					</linearGradient>
					<path class="st17" d="M-12.7,508.6c0.1-22.9,20.6-67.9,47.9-93.9c1.8-1.7,3.7-3.4,5.5-4.9c24.3-20.1,46.5-25.6,69.9-31.5
						l3.5-0.9c24.7-6.2,55.4-16.8,73.2-44.2c17.2-26.5,14.5-54.9,10.7-79.5l-1.6-10.2c-4.2-27.3-8.2-53.1-12.6-76.6
						c-2.1-11.2-4.5-23.9,4.4-37.6c9.2-14.2,28.2-22.4,43-25.4c9.1-1.8,18.7-2.6,30.3-2.6c14.7,0.1,28,1.6,39.8,3
						c2.6,0.3,5.1,0.6,7.6,0.9c16.3,1.8,31.2,2.7,43.7,3.4c23.1,1.2,48.7,1.7,78.7-3c20.4-3.2,43.2-8.9,67.9-16.8
						c25.5-8.2,53.4-19.1,82.9-32.5c44-19.8,109.6-53.1,172.1-99.1l0.9,1.6C692.3,5.1,626.6,38.5,582.5,58.3
						c-29.6,13.4-57.6,24.3-83.2,32.6c-24.8,7.9-47.8,13.6-68.3,16.8c-30.2,4.8-55.8,4.3-79.1,3c-12.5-0.7-27.4-1.6-43.8-3.4
						c-2.5-0.3-5-0.6-7.6-0.9c-11.7-1.4-25-2.9-39.6-3c-11.5-0.1-21,0.8-29.9,2.6c-14.2,2.9-32.5,10.7-41.3,24.2
						c-8.4,12.9-6.1,25.1-4.1,36c4.4,23.6,8.4,49.4,12.6,76.7l1.6,10.2c3.9,25,6.6,53.9-11.1,81.1c-18.3,28.2-49.6,39-74.8,45.3
						l-3.5,0.9c-23.2,5.7-45.1,11.2-68.9,30.9c-1.8,1.5-3.6,3.1-5.3,4.7c-26.8,25.5-47,69.7-47.1,92.1L-12.7,508.6z"/>
				</g>
				<g>
					
						<linearGradient id="SVGID_19_" gradientUnits="userSpaceOnUse" x1="336.0607" y1="286.813" x2="684.6798" y2="286.813" gradientTransform="matrix(0.7488 0.6628 0.841 -0.95 -284.4913 141.2727)">
						<stop  offset="0" style="stop-color:#7A99ED"/>
						<stop  offset="1" style="stop-color:#FEFCFF"/>
					</linearGradient>
					<path class="st18" d="M-14.8,507.5c-3.1-26.1,18.8-71.5,46-95.3c1.9-1.7,3.8-3.2,5.8-4.7c24.5-18.3,47.2-21.7,71.1-25.4
						c2.4-0.4,4.8-0.7,7.2-1.1c37.3-5.9,62.4-19.6,76.9-42c17.1-26.3,13.6-54.8,7.2-81.6c-6.5-27.5-14.3-59.8-23-90.1
						c-3.2-11.2-7.3-25.1,1.5-40.2c5.9-10.2,20.4-22.7,43.6-27.2c9.6-1.9,19.4-2.5,31-2c16.3,0.8,31,3.9,44.1,6.7l4.8,1
						c14,2.9,28.5,5.5,46.8,8.3c24.4,3.6,53.8,7.1,87.3,4.8c22.7-1.5,47.4-5.6,73.4-12c27.4-6.8,56.7-16.6,87.2-29
						c64.7-26.4,125.7-61,176.4-100.3l1,1.7c-51,39.4-112.2,74.2-177.1,100.6c-30.6,12.5-60,22.3-87.5,29.1
						c-26.2,6.5-51,10.5-73.8,12.1c-33.6,2.3-63.2-1.2-87.7-4.8c-18.4-2.8-32.8-5.4-46.9-8.3l-4.8-1c-13-2.7-27.7-5.8-43.8-6.6
						c-11.4-0.5-21,0.1-30.5,1.9c-13.9,2.8-33.2,11.2-41.7,25.8c-8.2,14.1-4.3,27.6-1.2,38.3c8.7,30.3,16.5,62.6,23,90.2
						c6.4,27.3,10,56.3-7.6,83.4c-15,23.1-40.7,37.3-78.8,43.3c-2.4,0.4-4.8,0.7-7.2,1.1c-23.6,3.6-46,7-70,24.9
						c-1.9,1.4-3.8,2.9-5.6,4.5c-26.5,23.2-48,67.5-45,93L-14.8,507.5z"/>
				</g>
				<g>
					
						<linearGradient id="SVGID_20_" gradientUnits="userSpaceOnUse" x1="326.5514" y1="285.4082" x2="711.7715" y2="285.4082" gradientTransform="matrix(0.7488 0.6628 0.841 -0.95 -284.4913 141.2727)">
						<stop  offset="0" style="stop-color:#7A99ED"/>
						<stop  offset="1" style="stop-color:#FEFCFF"/>
					</linearGradient>
					<path class="st19" d="M-16.8,506.4c-6.2-27,14.8-73.1,44-96.6c2-1.6,4.1-3.1,6.1-4.5c25-16.8,49.5-18.4,73.2-19.9
						c3.3-0.2,6.7-0.4,10-0.7c26.3-2,61.7-10.6,80.6-39.9c17.8-27.5,11.9-57.7,3.8-83.6c-11.3-36.3-21.7-66.8-31.8-93.4
						c-4.2-11.1-10-26.3-1.5-42.7c8.7-16.8,29.3-26.2,44.2-29.1c10-2,20.4-2.4,31.7-1.4c17.1,1.5,32.8,6.2,46.7,10.3l3.7,1.1
						c15.7,4.7,32.1,9,49.9,13.2c36.6,8.5,66.2,12.4,95.8,12.6c25,0.2,51.5-2.2,78.9-7.2c29.3-5.4,60-14,91.5-25.6
						C676.5,74.6,739,39.5,790.7-2.4l1.1,1.7c-52,42.1-114.7,77.3-181.6,101.9c-31.6,11.6-62.5,20.3-91.9,25.7
						c-27.5,5-54.2,7.5-79.3,7.3c-29.8-0.2-59.5-4.1-96.3-12.7c-17.9-4.2-34.2-8.5-50-13.2l-3.7-1.1c-14.4-4.3-29.4-8.8-46.3-10.3
						c-11.1-1-21.3-0.6-31,1.3c-14.3,2.8-33.9,11.7-42.2,27.5c-8,15.3-2.4,30,1.7,40.7c10.1,26.6,20.5,57.2,31.8,93.5
						c8.3,26.4,14.2,57.3-4.1,85.7c-19.6,30.3-55.8,39.2-82.8,41.3c-3.4,0.3-6.7,0.5-10.1,0.7c-23.3,1.5-47.4,3.1-71.9,19.5
						c-2,1.3-4,2.8-5.9,4.3C0.4,434-20.5,479.6-14.6,505.3L-16.8,506.4z"/>
				</g>
				<g>
					
						<linearGradient id="SVGID_21_" gradientUnits="userSpaceOnUse" x1="317.0552" y1="284.0295" x2="739.1454" y2="284.0295" gradientTransform="matrix(0.7488 0.6628 0.841 -0.95 -284.4913 141.2727)">
						<stop  offset="0" style="stop-color:#7A99ED"/>
						<stop  offset="1" style="stop-color:#FEFCFF"/>
					</linearGradient>
					<path class="st20" d="M-18.8,505.2c-9.1-27.6,11.4-75.2,42.1-97.9c2.1-1.6,4.3-3,6.4-4.3c25.7-15.6,51.1-15.2,75.7-14.9
						c4.1,0.1,8.3,0.1,12.4,0.1c22.4-0.1,63.2-5.1,84.3-37.7c18.4-28.5,10.5-59.3,0.3-85.7c-13.8-35.8-27.1-67.4-40.6-96.6
						c-5.1-11-12.8-27.5-4.5-45.2c5.3-11.3,20.2-26.2,44.9-30.9c10.4-2,21-2.3,32.3-0.8c17.8,2.3,33.6,8.3,48.9,14.1l3,1.1
						c17.3,6.5,35.1,12.6,53,18.1c38.3,11.6,71.5,18.1,104.4,20.4c27.3,2,55.7,1.1,84.4-2.5c31.1-3.9,63.3-11.4,95.8-22.1
						c68.5-22.7,132.5-58.1,185-102.5l1.3,1.8C757.5,64.4,693.2,100,624.2,122.8c-32.7,10.8-65.1,18.3-96.3,22.2
						c-28.9,3.6-57.4,4.4-84.8,2.5c-33.1-2.4-66.4-8.9-104.9-20.5c-17.9-5.4-35.8-11.5-53.1-18.1l-3-1.1
						c-15.2-5.8-30.9-11.7-48.4-14c-11.2-1.5-21.5-1.2-31.6,0.7c-23.5,4.5-37.6,18.5-42.6,29.1c-7.1,15.3-1.9,29.1,4.6,43.1
						c13.5,29.2,26.8,60.9,40.6,96.8c4.3,11.3,9.5,26.2,10.6,42.1c1.2,17.3-2.5,32.3-11.3,45.9c-21.9,33.9-63.8,39.1-86.8,39.2
						c-4.1,0-8.4,0-12.4-0.1c-24.2-0.3-49.2-0.7-74.2,14.5c-2.1,1.3-4.2,2.7-6.2,4.2c-29.8,22.1-49.6,68.1-40.8,94.8L-18.8,505.2z"
						/>
				</g>
				<g>
					
						<linearGradient id="SVGID_22_" gradientUnits="userSpaceOnUse" x1="307.066" y1="282.6644" x2="765.8222" y2="282.6644" gradientTransform="matrix(0.7488 0.6628 0.841 -0.95 -284.4913 141.2727)">
						<stop  offset="0" style="stop-color:#7A99ED"/>
						<stop  offset="1" style="stop-color:#FEFCFF"/>
					</linearGradient>
					<path class="st21" d="M-20.9,504.1c-12.1-28.6,7.4-76.9,40.1-99.3c2.2-1.5,4.5-2.9,6.8-4.1c26.5-14.5,53-12.2,78.5-10.1
						c4.7,0.4,9.7,0.8,14.4,1.1c58,3.6,82-26.4,88-35.6c19.1-29.6,8.3-62.4-3.2-87.7c-16-35.1-32.6-68.7-49.4-99.9
						c-7.8-14.5-14.9-30.2-7.5-47.8c7.6-18.1,28.4-29.5,45.5-32.8c10.7-2,21.5-2.1,33-0.2c18.1,3,34.4,10.4,50.2,17.6l3.1,1.4
						c18.4,8.4,37.2,16.1,56.1,22.9c39.7,14.4,76.7,23.6,113,28.2c29.5,3.7,59.8,4.5,89.9,2.3c32.9-2.4,66.5-8.7,100.1-18.7
						c70.6-21,136.1-56.8,189.3-103.7l1.4,1.8C775,87,709.1,123.1,638,144.1c-33.8,10-67.6,16.3-100.7,18.8
						c-30.3,2.2-60.7,1.4-90.4-2.3c-36.5-4.6-73.6-13.9-113.5-28.4c-18.9-6.9-37.8-14.6-56.2-23l-3.1-1.4
						c-15.7-7.1-31.9-14.5-49.7-17.5c-11.2-1.9-21.8-1.8-32.2,0.1c-16.3,3.1-35.9,13.8-43,30.7c-6.9,16.4-0.1,31.5,7.5,45.6
						c16.8,31.2,33.4,64.9,49.4,100.1c11.8,25.8,22.7,59.5,2.8,90.3c-9.3,14.5-23.4,25-41.8,31.2c-18.5,6.3-36.9,6.7-49,6
						c-4.8-0.3-9.7-0.7-14.5-1.1c-25.2-2.1-51.2-4.3-76.9,9.7c-2.2,1.2-4.3,2.5-6.5,4c-31.6,21.6-50.4,68.1-38.8,95.7L-20.9,504.1z"
						/>
				</g>
				<g>
					
						<linearGradient id="SVGID_23_" gradientUnits="userSpaceOnUse" x1="297.4324" y1="281.3085" x2="793.3373" y2="281.3085" gradientTransform="matrix(0.7488 0.6628 0.841 -0.95 -284.4913 141.2727)">
						<stop  offset="0" style="stop-color:#7A99ED"/>
						<stop  offset="1" style="stop-color:#FEFCFF"/>
					</linearGradient>
					<path class="st22" d="M-22.9,503c-7.8-15.3-7-36.2,2.1-57.3c9.1-21.1,24.9-38.3,43.2-47.3c27.4-13.4,54.9-9.3,81.5-5.4
						c5.4,0.8,10.9,1.6,16.3,2.3c47.9,5.8,78.8-13.5,91.7-33.5c19.9-30.9,5.8-66-6.6-89.8c-18.3-35-37.8-69.8-58.2-103.2
						c-4.1-6.7-8.6-14.5-11.1-23.2c-2.8-9.6-2.6-18.5,0.7-27.1c7.3-19.3,28.5-31.3,46.1-34.7c32.5-6.1,59.6,8.1,85.8,21.8l2.7,1.4
						c95.9,50.2,186.2,73.4,276.2,71c109.3-3,217.9-46.7,298-120l1.5,2c-80.7,73.9-190.1,118-300.1,121
						c-90.4,2.4-181.1-20.8-277.3-71.2l-2.7-1.4c-25.9-13.6-52.6-27.6-84.3-21.6c-16.7,3.1-36.6,14.4-43.5,32.3
						c-6.7,17.6,1.5,33.3,10.4,48c20.4,33.5,40,68.3,58.2,103.3c26.5,50.7,16.3,77.2,6.3,92.7c-20.5,31.9-62.4,39-94.8,35.1
						c-5.4-0.7-11-1.5-16.4-2.3C76.6,392,49.5,388,23,401c-17.5,8.5-32.6,25-41.3,45.3c-8.8,20.3-9.5,40.3-2.1,55L-22.9,503z"/>
				</g>
			</g>
		</g>
		<g>
			<defs>
				<rect id="SVGID_24_" width="750" height="500"/>
			</defs>
			<clipPath id="SVGID_25_">
				<use xlink:href="#SVGID_24_"  style="overflow:visible;"/>
			</clipPath>
			<g class="st23">
				
					<linearGradient id="SVGID_26_" gradientUnits="userSpaceOnUse" x1="-69.8745" y1="392.2" x2="200.8" y2="392.2" gradientTransform="matrix(1 0 0 -1 0 502)">
					<stop  offset="0" style="stop-color:#7A99ED"/>
					<stop  offset="1" style="stop-color:#FEFCFF"/>
				</linearGradient>
				<path class="st24" d="M-63.5,376.2c-17.2-41.3,3.2-87.7,28-117.4c16.1-19.2,35.6-35.5,54.4-51.3c12.7-10.7,25.9-21.7,37.9-33.5
					c35.3-34.8,62-78.1,77.3-125.2c7.6-23.6,12.7-48.7,17.5-73c9.2-46.2,18.8-94,46.8-132.4l2.4,1.8
					c-27.6,37.9-37.1,85.3-46.3,131.2c-4.9,24.4-9.9,49.6-17.6,73.3C121.7,97.3,94.7,141,59,176.1c-12.1,11.9-25.3,23-38.1,33.7
					c-18.8,15.7-38.2,31.9-54,50.9c-24.3,29-44.3,74.3-27.6,114.3L-63.5,376.2z"/>
				
					<linearGradient id="SVGID_27_" gradientUnits="userSpaceOnUse" x1="-35.3" y1="375.55" x2="239.9" y2="375.55" gradientTransform="matrix(1 0 0 -1 0 502)">
					<stop  offset="0" style="stop-color:#7A99ED"/>
					<stop  offset="1" style="stop-color:#FEFCFF"/>
				</linearGradient>
				<path class="st25" d="M-34.6,379.2l-0.7-0.3C-12,329.1-9.7,272.7-7.4,218.1c1.7-42.2,3.5-85.8,14.9-126.6
					C28.8,14.7,84.8-50.8,157.3-83.8c7.3-3.3,14.9-6.4,22.2-9.4c21.2-8.6,43.1-17.5,59.9-33.1l0.5,0.6c-17,15.7-38.9,24.6-60.2,33.2
					c-7.3,3-14.9,6.1-22.2,9.4C85.3-50.2,29.5,15.2,8.2,91.7C-3.1,132.4-4.9,176-6.7,218.2C-8.9,272.8-11.3,329.3-34.6,379.2z"/>
				
					<linearGradient id="SVGID_28_" gradientUnits="userSpaceOnUse" x1="-21.8" y1="381.05" x2="280.2127" y2="381.05" gradientTransform="matrix(1 0 0 -1 0 502)">
					<stop  offset="0" style="stop-color:#7A99ED"/>
					<stop  offset="1" style="stop-color:#FEFCFF"/>
				</linearGradient>
				<path class="st26" d="M-21,403.1l-0.8-0.6C6.7,368.4,25.3,322.8,36.8,259c3.5-19.5,6.2-39.6,8.9-59c4.3-31.7,8.8-64.4,16.8-95.9
					C77.7,44,104-0.8,140.5-29.3C155.6-41,172.8-50.2,189.4-59c12.6-6.7,25.6-13.6,37.7-21.6c15.9-10.6,52.9-39.7,52.1-80.6h1
					c0.8,41.4-36.4,70.8-52.5,81.5c-12.1,8-25.1,15-37.8,21.7c-16.6,8.8-33.7,17.9-48.7,29.6c-36.4,28.3-62.5,73-77.7,132.8
					c-8,31.4-12.4,64.2-16.8,95.8c-2.6,19.4-5.4,39.4-8.9,59C26.3,323.1,7.6,368.8-21,403.1z"/>
				
					<linearGradient id="SVGID_29_" gradientUnits="userSpaceOnUse" x1="-49.5" y1="422.05" x2="189.6" y2="422.05" gradientTransform="matrix(1 0 0 -1 0 502)">
					<stop  offset="0" style="stop-color:#7A99ED"/>
					<stop  offset="1" style="stop-color:#FEFCFF"/>
				</linearGradient>
				<path class="st27" d="M-48.8,355.1l-0.7-0.1c4.4-48.8,28.1-95.4,64.9-127.8c10.6-9.3,22.5-17.7,33.9-25.7
					c16.6-11.7,33.9-23.8,47.5-39.2c23.9-27,38.2-66,42.7-116c1.8-20.4,2.1-41.3,2.4-61.5c0.3-21.1,0.6-43,2.6-64.3
					c4.9-50,19.8-89,44.5-115.7l0.6,0.5C165-168.1,150-129.3,145.2-79.4c-2.1,21.3-2.4,43.2-2.6,64.3c-0.3,20.2-0.5,41.1-2.4,61.6
					c-4.5,50.1-18.9,89.3-42.9,116.4c-13.7,15.5-30.9,27.6-47.6,39.3c-11.4,8-23.2,16.3-33.8,25.6
					C-20.8,260.1-44.4,306.5-48.8,355.1z"/>
			</g>
		</g>
		<g>
			<defs>
				<rect id="SVGID_33_" width="750" height="500"/>
			</defs>
			<clipPath id="SVGID_34_">
				<use xlink:href="#SVGID_33_"  style="overflow:visible;"/>
			</clipPath>
			<g class="st28">
				
					<linearGradient id="SVGID_35_" gradientUnits="userSpaceOnUse" x1="412.3" y1="26.25" x2="904.9" y2="26.25" gradientTransform="matrix(1 0 0 -1 0 502)">
					<stop  offset="0" style="stop-color:#7A99ED"/>
					<stop  offset="1" style="stop-color:#FEFCFF"/>
				</linearGradient>
				<path class="st29" d="M415.3,642.6l-3-0.4c5.5-44.4,46.2-74.6,82.5-88.1c23.5-8.7,48.5-13.3,72.7-17.7c16.4-3,33.3-6,49.5-10.4
					c47.9-12.8,92.5-37.1,129.2-70.5c18.3-16.7,35.1-36,51.3-54.7c30.9-35.6,62.9-72.3,106.2-91.9l1.2,2.7
					c-42.8,19.3-74.5,55.8-105.2,91.1c-16.3,18.8-33.2,38.2-51.6,55c-37,33.7-82.1,58.3-130.4,71.2c-16.4,4.4-33.3,7.4-49.8,10.4
					c-24.1,4.4-49,8.9-72.2,17.5C460.4,570.1,420.6,599.5,415.3,642.6z"/>
				
					<linearGradient id="SVGID_36_" gradientUnits="userSpaceOnUse" x1="435.5" y1="-2.8626" x2="924.5" y2="-2.8626" gradientTransform="matrix(1 0 0 -1 0 502)">
					<stop  offset="0" style="stop-color:#7A99ED"/>
					<stop  offset="1" style="stop-color:#FEFCFF"/>
				</linearGradient>
				<path class="st30" d="M435.9,659.1l-0.4-0.6c44.9-31.8,74.8-79.6,103.8-125.9c22.4-35.8,45.5-72.8,75.6-102.7
					c56.5-56.1,137.6-85.4,217-78.2c8,0.7,16.1,1.8,24,2.9c22.6,3,46.1,6.2,68.4,0.9l0.2,0.7c-22.5,5.2-46,2.1-68.7-0.9
					c-7.9-1-16-2.1-23.9-2.9c-79.1-7.1-160,22-216.4,78c-30,29.8-53.1,66.8-75.5,102.5C510.9,579.3,480.9,627.3,435.9,659.1z"/>
				
					<linearGradient id="SVGID_37_" gradientUnits="userSpaceOnUse" x1="435.6" y1="-13.75" x2="977" y2="-13.75" gradientTransform="matrix(1 0 0 -1 0 502)">
					<stop  offset="0" style="stop-color:#7A99ED"/>
					<stop  offset="1" style="stop-color:#FEFCFF"/>
				</linearGradient>
				<path class="st31" d="M435.9,686.6l-0.3-0.9c41.6-15.5,80.4-45.9,121.9-95.7c12.7-15.2,25-31.3,36.9-46.8
					c19.4-25.4,39.5-51.6,62.1-75.1c43-44.6,88-70.6,133.8-77.2c18.9-2.7,38.4-2.2,57.2-1.6c14.3,0.4,29,0.9,43.5-0.1
					c19.1-1.3,65.6-8.3,85.1-44.3l0.9,0.5c-19.8,36.4-66.7,43.5-86,44.8c-14.5,1-29.3,0.6-43.6,0.1c-18.8-0.6-38.2-1.1-57,1.6
					c-45.6,6.6-90.4,32.5-133.2,76.9c-22.5,23.4-42.6,49.6-62,75c-11.9,15.5-24.2,31.6-36.9,46.9C516.6,640.5,477.7,671,435.9,686.6
					z"/>
				
					<linearGradient id="SVGID_38_" gradientUnits="userSpaceOnUse" x1="434.9" y1="51" x2="914.8" y2="51" gradientTransform="matrix(1 0 0 -1 0 502)">
					<stop  offset="0" style="stop-color:#7A99ED"/>
					<stop  offset="1" style="stop-color:#FEFCFF"/>
				</linearGradient>
				<path class="st32" d="M435.5,631.2l-0.6-0.4c28-40.2,71.6-69,119.7-78.9c13.9-2.9,28.2-4.2,42.2-5.5
					c20.2-1.9,41.2-3.9,60.7-10.6c34.1-11.6,65.9-38.4,94.5-79.6c11.7-16.8,22.3-34.9,32.5-52.3c10.7-18.2,21.7-37.1,34.1-54.6
					c29-41.1,61.3-67.5,96-78.5l0.2,0.7c-34.5,11-66.7,37.3-95.6,78.2c-12.4,17.5-23.4,36.4-34.1,54.6
					c-10.2,17.4-20.8,35.4-32.5,52.3c-28.7,41.3-60.7,68.2-94.9,79.9c-19.6,6.7-40.6,8.7-60.8,10.6c-13.9,1.3-28.3,2.7-42.1,5.5
					C506.9,562.4,463.4,591.1,435.5,631.2z"/>
			</g>
		</g>
		<g>
			<defs>
				<rect id="SVGID_39_" width="750" height="500"/>
			</defs>
			<clipPath id="SVGID_40_">
				<use xlink:href="#SVGID_39_"  style="overflow:visible;"/>
			</clipPath>
			<g class="st33">
				<g>
					<g>
						
							<image style="overflow:visible;opacity:0.75;enable-background:new    ;" width="9" height="10" xlink:href="67E89EFE65816E3.png"  transform="matrix(1 0 0 1 105 48)">
						</image>
						<g>
							<path class="st34" d="M111,52.7c0,0.8-0.7,1.5-1.5,1.5s-1.5-0.7-1.5-1.5s0.7-1.5,1.5-1.5S111,51.9,111,52.7z"/>
						</g>
					</g>
					<g>
						
							<image style="overflow:visible;opacity:0.75;enable-background:new    ;" width="10" height="10" xlink:href="67E89EFE65816E1.png"  transform="matrix(1 0 0 1 288 58)">
						</image>
						<g>
							<path class="st34" d="M294,63.4c0,0.8-0.7,1.5-1.5,1.5s-1.5-0.7-1.5-1.5s0.7-1.5,1.5-1.5C293.4,62,294,62.6,294,63.4z"/>
						</g>
					</g>
				</g>
				<g>
					<g>
						
							<image style="overflow:visible;opacity:0.75;enable-background:new    ;" width="10" height="10" xlink:href="67E89EFE65816E7.png"  transform="matrix(1 0 0 1 487 37)">
						</image>
						<g>
							<path class="st34" d="M493.1,41.9c0,0.8-0.7,1.5-1.5,1.5s-1.5-0.7-1.5-1.5s0.7-1.5,1.5-1.5S493.1,41.1,493.1,41.9z"/>
						</g>
					</g>
					<g>
						
							<image style="overflow:visible;opacity:0.75;enable-background:new    ;" width="10" height="10" xlink:href="67E89EFE65816E0.png"  transform="matrix(1 0 0 1 670 48)">
						</image>
						<g>
							<path class="st34" d="M676.2,52.7c0,0.8-0.7,1.5-1.5,1.5s-1.5-0.7-1.5-1.5s0.7-1.5,1.5-1.5S676.2,51.9,676.2,52.7z"/>
						</g>
					</g>
				</g>
				<g>
					
						<image style="overflow:visible;opacity:0.75;enable-background:new    ;" width="10" height="10" xlink:href="67E89EFE65816EE.png"  transform="matrix(1 0 0 1 51 351)">
					</image>
					<g>
						<path class="st34" d="M57.6,356c0,0.8-0.7,1.5-1.5,1.5s-1.5-0.7-1.5-1.5s0.7-1.5,1.5-1.5S57.6,355.2,57.6,356z"/>
					</g>
				</g>
				<g>
					
						<image style="overflow:visible;opacity:0.75;enable-background:new    ;" width="10" height="10" xlink:href="67E89EFE65816EF.png"  transform="matrix(1 0 0 1 127 439)">
					</image>
					<g>
						<path class="st34" d="M133.3,443.8c0,0.8-0.7,1.5-1.5,1.5s-1.5-0.7-1.5-1.5s0.7-1.5,1.5-1.5
							C132.6,442.4,133.3,443,133.3,443.8z"/>
					</g>
				</g>
				<g>
					
						<image style="overflow:visible;opacity:0.75;enable-background:new    ;" width="10" height="9" xlink:href="67E89EFE65816E2.png"  transform="matrix(1 0 0 1 277 324)">
					</image>
					<g>
						<path class="st34" d="M283.1,328.5c0,0.8-0.7,1.5-1.5,1.5s-1.5-0.7-1.5-1.5s0.7-1.5,1.5-1.5
							C282.5,327.1,283.1,327.7,283.1,328.5z"/>
					</g>
				</g>
				<g>
					
						<image style="overflow:visible;opacity:0.75;enable-background:new    ;" width="10" height="10" xlink:href="67E89EFE65816E5.png"  transform="matrix(1 0 0 1 446 187)">
					</image>
					<g>
						<path class="st34" d="M452.1,192.3c0,0.8-0.7,1.5-1.5,1.5s-1.5-0.7-1.5-1.5s0.7-1.5,1.5-1.5S452.1,191.5,452.1,192.3z"/>
					</g>
				</g>
				<g>
					
						<image style="overflow:visible;opacity:0.75;enable-background:new    ;" width="10" height="10" xlink:href="67E89EFE65816E6.png"  transform="matrix(1 0 0 1 560 417)">
					</image>
					<g>
						<path class="st34" d="M566.5,422c0,0.8-0.7,1.5-1.5,1.5s-1.5-0.7-1.5-1.5s0.7-1.5,1.5-1.5S566.5,421.2,566.5,422z"/>
					</g>
				</g>
				<g>
					
						<image style="overflow:visible;opacity:0.75;enable-background:new    ;" width="10" height="10" xlink:href="F049EFAC4ABB4ED0.png"  transform="matrix(1 0 0 1 658 187)">
					</image>
					<g>
						<path class="st34" d="M664.8,192.3c0,0.8-0.7,1.5-1.5,1.5s-1.5-0.7-1.5-1.5s0.7-1.5,1.5-1.5S664.8,191.5,664.8,192.3z"/>
					</g>
				</g>
				<g>
					
						<image style="overflow:visible;opacity:0.75;enable-background:new    ;" width="10" height="9" xlink:href="F049EFAC4ABB4ED7.png"  transform="matrix(1 0 0 1 713 257)">
					</image>
					<g>
						<path class="st34" d="M719.8,261.5c0,0.8-0.7,1.5-1.5,1.5s-1.5-0.7-1.5-1.5s0.7-1.5,1.5-1.5
							C719.2,260,719.8,260.7,719.8,261.5z"/>
					</g>
				</g>
				<g>
					
						<image style="overflow:visible;opacity:0.75;enable-background:new    ;" width="10" height="10" xlink:href="F049EFAC4ABB4ED1.png"  transform="matrix(1 0 0 1 518 266)">
					</image>
					<g>
						<path class="st34" d="M524.5,271c0,0.8-0.7,1.5-1.5,1.5s-1.5-0.7-1.5-1.5s0.7-1.5,1.5-1.5S524.5,270.2,524.5,271z"/>
					</g>
				</g>
				<g>
					
						<image style="overflow:visible;opacity:0.75;enable-background:new    ;" width="10" height="10" xlink:href="F049EFAC4ABB4ED3.png"  transform="matrix(1 0 0 1 128 199)">
					</image>
					<g>
						<path class="st34" d="M134.7,203.8c0,0.8-0.7,1.5-1.5,1.5s-1.5-0.7-1.5-1.5s0.7-1.5,1.5-1.5
							C134.1,202.4,134.7,203,134.7,203.8z"/>
					</g>
				</g>
			</g>
		</g>
		<g>
			<defs>
				<rect id="SVGID_41_" width="750" height="500"/>
			</defs>
			<clipPath id="SVGID_42_">
				<use xlink:href="#SVGID_41_"  style="overflow:visible;"/>
			</clipPath>
			
				<pattern  id="SVGID_43_" xlink:href="#SVGID_30_" patternTransform="matrix(0.4566 0.4566 0.4566 -0.4566 -7868.5117 -7225.0684)">
			</pattern>
			<circle class="st35" cx="700" cy="109.8" r="131.5"/>
		</g>
		<g>
			<defs>
				<rect id="SVGID_44_" width="750" height="500"/>
			</defs>
			<clipPath id="SVGID_45_">
				<use xlink:href="#SVGID_44_"  style="overflow:visible;"/>
			</clipPath>
			
				<pattern  id="SVGID_46_" xlink:href="#SVGID_31_" patternTransform="matrix(0.4566 0.4566 0.4566 -0.4566 -7868.5117 -7225.0684)">
			</pattern>
			<circle class="st36" cx="-10.7" cy="229.2" r="131.5"/>
		</g>
		<g>
			<defs>
				<rect id="SVGID_47_" width="750" height="500"/>
			</defs>
			<clipPath id="SVGID_48_">
				<use xlink:href="#SVGID_47_"  style="overflow:visible;"/>
			</clipPath>
			
				<pattern  id="SVGID_49_" xlink:href="#SVGID_32_" patternTransform="matrix(0.4566 0.4566 0.4566 -0.4566 -7868.5117 -7225.0684)">
			</pattern>
			<circle class="st37" cx="673.2" cy="530.2" r="131.5"/>
		</g>
		<g>
			<defs>
				<rect id="SVGID_50_" width="750" height="500"/>
			</defs>
			<clipPath id="SVGID_51_">
				<use xlink:href="#SVGID_50_"  style="overflow:visible;"/>
			</clipPath>
			<path class="st38" d="M558.9,266.9c-9.9,0-17.9-8-17.9-17.9s8-17.9,17.9-17.9s17.9,8,17.9,17.9S568.7,266.9,558.9,266.9z
				 M558.9,233.1c-8.8,0-15.9,7.1-15.9,15.9s7.1,15.9,15.9,15.9s15.9-7.1,15.9-15.9S567.6,233.1,558.9,233.1z"/>
		</g>
		<g>
			<defs>
				<rect id="SVGID_52_" width="750" height="500"/>
			</defs>
			<clipPath id="SVGID_53_">
				<use xlink:href="#SVGID_52_"  style="overflow:visible;"/>
			</clipPath>
			<path class="st39" d="M265.5,226.5c-9.9,0-17.9-8-17.9-17.9s8-17.9,17.9-17.9s17.9,8,17.9,17.9S275.4,226.5,265.5,226.5z
				 M265.5,192.7c-8.8,0-15.9,7.1-15.9,15.9s7.1,15.9,15.9,15.9s15.9-7.1,15.9-15.9S274.3,192.7,265.5,192.7z"/>
		</g>
		<g>
			<defs>
				<rect id="SVGID_54_" width="750" height="500"/>
			</defs>
			<clipPath id="SVGID_55_">
				<use xlink:href="#SVGID_54_"  style="overflow:visible;"/>
			</clipPath>
			<path class="st40" d="M521.5,468.8c-9.9,0-17.9-8-17.9-17.9s8-17.9,17.9-17.9c9.9,0,17.9,8,17.9,17.9S531.4,468.8,521.5,468.8z
				 M521.5,435c-8.8,0-15.9,7.1-15.9,15.9s7.1,15.9,15.9,15.9s15.9-7.1,15.9-15.9S530.3,435,521.5,435z"/>
		</g>
		<g>
			<defs>
				<rect id="SVGID_56_" width="750" height="500"/>
			</defs>
			<clipPath id="SVGID_57_">
				<use xlink:href="#SVGID_56_"  style="overflow:visible;"/>
			</clipPath>
			<path class="st41" d="M266.4,407.4c-9.9,0-17.9-8-17.9-17.9s8-17.9,17.9-17.9s17.9,8,17.9,17.9S276.2,407.4,266.4,407.4z
				 M266.4,373.7c-8.8,0-15.9,7.1-15.9,15.9s7.1,15.9,15.9,15.9s15.9-7.1,15.9-15.9S275.1,373.7,266.4,373.7z"/>
		</g>
		<g>
			<defs>
				<rect id="SVGID_58_" width="750" height="500"/>
			</defs>
			<clipPath id="SVGID_59_">
				<use xlink:href="#SVGID_58_"  style="overflow:visible;"/>
			</clipPath>
			<path class="st42" d="M599.6,289.1c-5.3,0-9.7-4.3-9.7-9.7c0-5.3,4.3-9.7,9.7-9.7c5.3,0,9.7,4.3,9.7,9.7
				C609.3,284.8,604.9,289.1,599.6,289.1z M599.6,270.9c-4.7,0-8.6,3.9-8.6,8.6s3.9,8.6,8.6,8.6c4.7,0,8.6-3.9,8.6-8.6
				C608.2,274.7,604.3,270.9,599.6,270.9z"/>
		</g>
		<g>
			<defs>
				<rect id="SVGID_60_" width="750" height="500"/>
			</defs>
			<clipPath id="SVGID_61_">
				<use xlink:href="#SVGID_60_"  style="overflow:visible;"/>
			</clipPath>
			<path class="st43" d="M468,301.1c-5.3,0-9.7-4.3-9.7-9.7s4.3-9.7,9.7-9.7s9.7,4.3,9.7,9.7S473.3,301.1,468,301.1z M468,282.8
				c-4.7,0-8.6,3.9-8.6,8.6s3.9,8.6,8.6,8.6s8.6-3.9,8.6-8.6S472.7,282.8,468,282.8z"/>
		</g>
		<g>
			<defs>
				<rect id="SVGID_62_" width="750" height="500"/>
			</defs>
			<clipPath id="SVGID_63_">
				<use xlink:href="#SVGID_62_"  style="overflow:visible;"/>
			</clipPath>
			<path class="st44" d="M164,433.1c-5.3,0-9.7-4.3-9.7-9.7c0-5.3,4.3-9.7,9.7-9.7s9.7,4.3,9.7,9.7
				C173.7,428.8,169.3,433.1,164,433.1z M164,414.8c-4.7,0-8.6,3.9-8.6,8.6s3.9,8.6,8.6,8.6s8.6-3.9,8.6-8.6
				C172.6,418.7,168.7,414.8,164,414.8z"/>
		</g>
		<g>
			<defs>
				<rect id="SVGID_64_" width="750" height="500"/>
			</defs>
			<clipPath id="SVGID_65_">
				<use xlink:href="#SVGID_64_"  style="overflow:visible;"/>
			</clipPath>
			<path class="st45" d="M179.9,63.8c-5.3,0-9.7-4.3-9.7-9.7s4.3-9.7,9.7-9.7s9.7,4.3,9.7,9.7S185.2,63.8,179.9,63.8z M179.9,45.6
				c-4.7,0-8.6,3.9-8.6,8.6s3.9,8.6,8.6,8.6c4.7,0,8.6-3.9,8.6-8.6S184.6,45.6,179.9,45.6z"/>
		</g>
		<g>
			<defs>
				<rect id="SVGID_66_" width="750" height="500"/>
			</defs>
			<clipPath id="SVGID_67_">
				<use xlink:href="#SVGID_66_"  style="overflow:visible;"/>
			</clipPath>
			<path class="st46" d="M314.3,22.2c8.7,0,15.8,7.1,15.9,15.8h2c-0.1-9.8-8.1-17.8-17.9-17.8s-17.8,8-17.9,17.8h2
				C298.4,29.3,305.5,22.2,314.3,22.2z"/>
		</g>
		<g>
			<defs>
				<rect id="SVGID_68_" width="750" height="500"/>
			</defs>
			<clipPath id="SVGID_69_">
				<use xlink:href="#SVGID_68_"  style="overflow:visible;"/>
			</clipPath>
			<path class="st47" d="M-4.4,382.7c8.7,0,15.8,7.1,15.9,15.8h2c-0.1-9.8-8.1-17.8-17.9-17.8s-17.8,8-17.9,17.8h2
				C-20.2,389.7-13.1,382.7-4.4,382.7z"/>
		</g>
		<g>
			<defs>
				<rect id="SVGID_70_" width="750" height="500"/>
			</defs>
			<clipPath id="SVGID_71_">
				<use xlink:href="#SVGID_70_"  style="overflow:visible;"/>
			</clipPath>
			<path class="st48" d="M681.6,254.6c8.7,0,15.8,7.1,15.9,15.8h2c-0.1-9.8-8.1-17.8-17.9-17.8s-17.8,8-17.9,17.8h2
				C665.8,261.7,672.9,254.6,681.6,254.6z"/>
		</g>
	</g>
</g>
</svg>
